# Deagle Barrel | length 4 | barrel -X up +Y
mtllib deeagle.mtl
g barrel
v 0.627548 0.099926 -0.058253
v 0.627548 0.099926 0.141200
v 0.627548 -0.066393 0.041158
v 0.627548 0.012863 0.153864
v 0.627548 0.012863 -0.070917
v 0.627548 -0.033428 0.153864
v 0.627548 -0.066393 0.153864
v 0.627548 -0.033428 -0.070917
v 0.627548 -0.066393 -0.070917
v -0.298927 0.216078 0.041158
v -0.298927 0.149492 -0.044323
v -0.298927 0.201109 -0.029127
v -0.298927 0.149492 0.126637
v -0.298927 0.201109 0.112074
v -0.279234 0.099926 -0.073449
v -0.279234 0.099926 0.156396
v -0.662438 0.216078 0.041158
v -0.298927 0.201109 0.112074
v -0.298927 0.216078 0.041158
v -0.670478 0.201109 0.112074
v -0.298927 0.201109 -0.029127
v -0.670478 0.201109 -0.029127
v -0.279234 0.099926 0.156396
v 0.627548 0.099926 0.141200
v -0.279234 0.099926 -0.073449
v 0.627548 0.099926 -0.058253
v -0.279234 0.099926 0.156396
v -0.743928 0.099052 0.156396
v -0.279234 0.012863 0.153864
v -0.698148 0.150397 0.126637
v -0.750260 0.012540 0.153864
v -0.298927 0.149492 0.126637
v -0.670478 0.201109 0.112074
v -0.298927 0.201109 0.112074
v 0.627548 0.012863 0.153864
v 0.627548 0.099926 0.141200
v 0.627548 -0.033428 0.153864
v -0.279234 -0.033428 0.153864
v 0.627548 -0.066393 0.153864
v -0.758301 -0.033043 0.153864
v -0.279234 -0.066393 0.153864
v -0.763050 -0.066393 0.153864
v -0.750260 0.012540 -0.070917
v -0.743928 0.099052 0.041158
v -0.743928 0.099052 -0.073449
v -0.698148 0.150397 -0.044323
v -0.698148 0.150397 0.041158
v -0.670478 0.201109 -0.029127
v -0.670478 0.200115 0.041158
v -0.662438 0.216078 0.041158
v -0.670478 0.201109 0.112074
v -0.698148 0.150397 0.126637
v -0.743928 0.099052 0.156396
v -0.750260 0.012540 0.153864
v -0.750260 0.012540 0.041158
v -0.758301 -0.033043 0.153864
v -0.758301 -0.033043 0.041158
v -0.763050 -0.066393 0.153864
v -0.758301 -0.033043 -0.070917
v -0.763050 -0.066393 0.041158
v -0.763050 -0.066393 -0.070917
v 0.627548 -0.066393 -0.070917
v -0.279234 -0.066393 0.041158
v -0.279234 -0.066393 -0.070917
v 0.627548 -0.066393 0.041158
v -0.763050 -0.066393 0.041158
v -0.763050 -0.066393 -0.070917
v -0.279234 -0.066393 0.153864
v 0.627548 -0.066393 0.153864
v -0.763050 -0.066393 0.153864
v -0.750260 0.012540 -0.070917
v -0.279234 -0.033428 -0.070917
v -0.758301 -0.033043 -0.070917
v -0.279234 -0.066393 -0.070917
v -0.763050 -0.066393 -0.070917
v 0.627548 -0.033428 -0.070917
v 0.627548 -0.066393 -0.070917
v 0.627548 0.012863 -0.070917
v -0.279234 0.012863 -0.070917
v 0.627548 0.099926 -0.058253
v -0.743928 0.099052 -0.073449
v -0.279234 0.099926 -0.073449
v -0.698148 0.150397 -0.044323
v -0.298927 0.149492 -0.044323
v -0.670478 0.201109 -0.029127
v -0.298927 0.201109 -0.029127
vt 12.0197 -2.99505 
vt 11.9803 -2.99505 
vt 12 -3.02788 
vt 11.9778 -3.01224 
vt 12.0222 -3.01224 
vt 11.9778 -3.02137 
vt 11.9778 -3.02788 
vt 12.0222 -3.02137 
vt 12.0222 -3.02788 
vt 12 -2.97212 
vt 12.0169 -2.98526 
vt 12.014 -2.97507 
vt 11.9831 -2.98526 
vt 11.986 -2.97507 
vt 12.0227 -2.99505 
vt 11.9773 -2.99505 
vt 12.1174 -3 
vt 12.0456 -2.98602 
vt 12.0456 -3 
vt 12.119 -2.98602 
vt 12.0456 -3.01398 
vt 12.119 -3.01398 
vt 12.0417 -2.97734 
vt 11.8627 -2.98025 
vt 12.0417 -3.02266 
vt 11.8627 -3.01975 
vt 11.9583 -2.99505 
vt 11.8665 -2.99522 
vt 11.9583 -3.01224 
vt 11.8756 -2.98508 
vt 11.8653 -3.0123 
vt 11.9544 -2.98526 
vt 11.881 -2.97507 
vt 11.9544 -2.97507 
vt 12.1373 -3.01224 
vt 12.1373 -2.99505 
vt 12.1373 -3.02137 
vt 11.9583 -3.02137 
vt 12.1373 -3.02788 
vt 11.8637 -3.0213 
vt 11.9583 -3.02788 
vt 11.8627 -3.02788 
vt 11.9778 -3.0123 
vt 12 -2.99522 
vt 11.9773 -2.99522 
vt 11.9831 -2.98508 
vt 12 -2.98508 
vt 11.986 -2.97507 
vt 12 -2.97527 
vt 12 -2.97212 
vt 12.014 -2.97507 
vt 12.0169 -2.98508 
vt 12.0227 -2.99522 
vt 12.0222 -3.0123 
vt 12 -3.0123 
vt 12.0222 -3.0213 
vt 12 -3.0213 
vt 12.0222 -3.02788 
vt 11.9778 -3.0213 
vt 12 -3.02788 
vt 11.9778 -3.02788 
vt 12.1373 -3.02218 
vt 11.9583 -3 
vt 11.9583 -3.02218 
vt 12.1373 -3 
vt 11.8627 -3 
vt 11.8627 -3.02218 
vt 11.9583 -2.97782 
vt 12.1373 -2.97782 
vt 11.8627 -2.97782 
vt 12.1347 -3.0123 
vt 12.0417 -3.02137 
vt 12.1363 -3.0213 
vt 12.0417 -3.02788 
vt 12.1373 -3.02788 
vt 11.8627 -3.02137 
vt 11.8627 -3.02788 
vt 11.8627 -3.01224 
vt 12.0417 -3.01224 
vt 11.8627 -2.99505 
vt 12.1335 -2.99522 
vt 12.0417 -2.99505 
vt 12.1244 -2.98508 
vt 12.0456 -2.98526 
vt 12.119 -2.97507 
vt 12.0456 -2.97507 
vn 1.0000 0.0000 0.0000
vn 1.0000 0.0000 0.0000
vn 1.0000 0.0000 0.0000
vn 1.0000 0.0000 0.0000
vn 1.0000 0.0000 0.0000
vn 1.0000 0.0000 0.0000
vn 1.0000 0.0000 0.0000
vn 1.0000 0.0000 0.0000
vn 1.0000 0.0000 0.0000
vn 0.9764 0.2047 0.0000
vn 0.9764 0.2047 0.0000
vn 0.9764 0.2047 0.0000
vn 0.9764 0.2047 0.0000
vn 0.9764 0.2047 0.0000
vn 0.9764 0.2047 0.0000
vn 0.9764 0.2047 0.0000
vn -0.0000 1.0000 0.0000
vn -0.0000 0.9764 0.2047
vn -0.0000 1.0000 0.0000
vn -0.0000 0.9764 0.2047
vn -0.0000 0.9764 -0.2047
vn -0.0000 0.9764 -0.2047
vn -0.0000 1.0000 0.0000
vn -0.0000 1.0000 0.0000
vn -0.0000 1.0000 0.0000
vn -0.0000 1.0000 0.0000
vn -0.0000 0.1890 0.9843
vn -0.0000 0.2362 0.9685
vn -0.0000 0.0079 1.0000
vn -0.0000 0.4016 0.9134
vn -0.0000 -0.0157 1.0000
vn -0.0000 0.3937 0.9213
vn -0.0000 0.2756 0.9606
vn -0.0000 0.2756 0.9606
vn 0.0079 0.0315 1.0000
vn 0.0079 0.0551 1.0000
vn -0.0000 0.0000 1.0000
vn -0.0000 0.0000 1.0000
vn -0.0000 0.0000 1.0000
vn -0.0000 0.0000 1.0000
vn -0.0000 0.0000 1.0000
vn -0.0000 0.0000 1.0000
vn -0.9921 0.1260 0.0000
vn -0.8976 0.4331 0.0000
vn -0.9213 0.3858 0.0000
vn -0.7953 0.5984 0.0000
vn -0.8110 0.5827 0.0000
vn -0.8819 0.4803 0.0000
vn -0.8819 0.4646 0.0000
vn -0.8898 0.4488 0.0000
vn -0.8819 0.4803 0.0000
vn -0.7953 0.5984 0.0000
vn -0.9213 0.3858 0.0000
vn -0.9921 0.1260 0.0000
vn -0.9921 0.1260 0.0000
vn -0.9843 0.1575 0.0000
vn -0.9843 0.1575 0.0000
vn -0.9921 0.1417 0.0000
vn -0.9843 0.1575 0.0000
vn -0.9921 0.1417 0.0000
vn -0.9921 0.1417 0.0000
vn -0.0000 -1.0000 0.0000
vn -0.0000 -1.0000 0.0000
vn -0.0000 -1.0000 0.0000
vn -0.0000 -1.0000 0.0000
vn -0.0000 -1.0000 0.0000
vn -0.0000 -1.0000 0.0000
vn -0.0000 -1.0000 0.0000
vn -0.0000 -1.0000 0.0000
vn -0.0000 -1.0000 0.0000
vn -0.0000 -0.0157 -1.0000
vn -0.0000 0.0000 -1.0000
vn -0.0000 0.0000 -1.0000
vn -0.0000 0.0000 -1.0000
vn -0.0000 0.0000 -1.0000
vn -0.0000 0.0000 -1.0000
vn -0.0000 0.0000 -1.0000
vn 0.0079 0.0315 -1.0000
vn -0.0000 0.0079 -1.0000
vn 0.0079 0.0551 -1.0000
vn -0.0000 0.2362 -0.9685
vn -0.0000 0.1890 -0.9843
vn -0.0000 0.4016 -0.9134
vn -0.0000 0.3937 -0.9213
vn -0.0000 0.2756 -0.9606
vn -0.0000 0.2756 -0.9606
usemtl Meshpart4Mtl
f 1/1/1 2/2/2 3/3/3
f 3/3/3 2/2/2 4/4/4
f 3/3/3 5/5/5 1/1/1
f 3/3/3 4/4/4 6/6/6
f 3/3/3 6/6/6 7/7/7
f 5/5/5 3/3/3 8/8/8
f 8/8/8 3/3/3 9/9/9
f 10/10/10 11/11/11 12/12/12
f 11/11/11 10/10/10 13/13/13
f 13/13/13 10/10/10 14/14/14
f 11/11/11 13/13/13 15/15/15
f 16/16/16 15/15/15 13/13/13
f 17/17/17 18/18/18 19/19/19
f 18/18/18 17/17/17 20/20/20
f 21/21/21 17/17/17 19/19/19
f 17/17/17 21/21/21 22/22/22
f 23/23/23 24/24/24 25/25/25
f 26/26/26 25/25/25 24/24/24
f 27/27/27 28/28/28 29/29/29
f 27/27/27 30/30/30 28/28/28
f 31/31/31 29/29/29 28/28/28
f 30/30/30 27/27/27 32/32/32
f 32/32/32 33/33/33 30/30/30
f 33/33/33 32/32/32 34/34/34
f 35/35/35 27/27/27 29/29/29
f 27/27/27 35/35/35 36/36/36
f 29/29/29 37/37/37 35/35/35
f 29/29/29 31/31/31 38/38/38
f 37/37/37 29/29/29 38/38/38
f 38/38/38 39/39/39 37/37/37
f 40/40/40 38/38/38 31/31/31
f 39/39/39 38/38/38 41/41/41
f 38/38/38 40/40/40 41/41/41
f 42/42/42 41/41/41 40/40/40
f 43/43/43 44/44/44 45/45/45
f 44/44/44 46/46/46 45/45/45
f 46/46/46 44/44/44 47/47/47
f 47/47/47 48/48/48 46/46/46
f 48/48/48 47/47/47 49/49/49
f 48/48/48 49/49/49 50/50/50
f 49/49/49 51/51/51 50/50/50
f 49/49/49 47/47/47 51/51/51
f 47/47/47 52/52/52 51/51/51
f 47/47/47 44/44/44 52/52/52
f 44/44/44 53/53/53 52/52/52
f 44/44/44 54/54/54 53/53/53
f 44/44/44 55/55/55 54/54/54
f 44/44/44 43/43/43 55/55/55
f 55/55/55 56/56/56 54/54/54
f 43/43/43 57/57/57 55/55/55
f 57/57/57 56/56/56 55/55/55
f 57/57/57 58/58/58 56/56/56
f 59/59/59 57/57/57 43/43/43
f 60/60/60 58/58/58 57/57/57
f 59/59/59 60/60/60 57/57/57
f 61/61/61 60/60/60 59/59/59
f 62/62/62 63/63/63 64/64/64
f 63/63/63 62/62/62 65/65/65
f 63/63/63 66/66/66 64/64/64
f 64/64/64 66/66/66 67/67/67
f 65/65/65 68/68/68 63/63/63
f 66/66/66 63/63/63 68/68/68
f 68/68/68 65/65/65 69/69/69
f 66/66/66 68/68/68 70/70/70
f 71/71/71 72/72/72 73/73/73
f 73/73/73 74/74/74 75/75/75
f 74/74/74 73/73/73 72/72/72
f 76/76/76 74/74/74 72/72/72
f 74/74/74 76/76/76 77/77/77
f 72/72/72 78/78/78 76/76/76
f 72/72/72 71/71/71 79/79/79
f 78/78/78 72/72/72 79/79/79
f 79/79/79 80/80/80 78/78/78
f 81/81/81 79/79/79 71/71/71
f 80/80/80 79/79/79 82/82/82
f 79/79/79 81/81/81 82/82/82
f 82/82/82 81/81/81 83/83/83
f 82/82/82 83/83/83 84/84/84
f 84/84/84 83/83/83 85/85/85
f 85/85/85 86/86/86 84/84/84
