# Deagle Handles & irons | length 4 | barrel -X up +Y
mtllib deeagle.mtl
g handles_irons
v -0.390232 -0.390282 -0.050022
v -0.390232 -0.390282 0.132968
v -0.422587 -0.452885 -0.038624
v -0.422587 -0.452885 0.121572
v -0.307601 0.106558 -0.035458
v -0.427146 -0.361048 0.118406
v -0.427146 -0.361048 -0.035458
v -0.307601 0.106558 0.118406
v -0.307601 0.106558 -0.035458
v -0.635843 0.106558 -0.035458
v -0.635843 0.106558 0.118406
v -0.307601 0.106558 0.118406
v -0.753932 -0.328623 0.118406
v -0.753932 -0.328623 -0.035458
v -0.787301 -0.351702 -0.050022
v -0.787301 -0.351702 0.132968
v -0.427146 -0.361048 -0.035458
v -0.390232 -0.390282 0.132968
v -0.390232 -0.390282 -0.050022
v -0.427146 -0.361048 0.118406
v -0.390232 -0.390282 0.132968
v -0.766343 -0.418978 0.121572
v -0.422587 -0.452885 0.121572
v -0.787301 -0.351702 0.132968
v -0.427146 -0.361048 0.118406
v -0.635843 0.106558 0.118406
v -0.753932 -0.328623 0.118406
v -0.307601 0.106558 0.118406
v -0.427146 -0.361048 0.118406
v -0.753932 -0.328623 0.118406
v -0.787301 -0.351702 0.132968
v -0.390232 -0.390282 0.132968
v -0.766343 -0.418978 -0.038624
v -0.766343 -0.418978 0.121572
v -0.787301 -0.351702 -0.050022
v -0.787301 -0.351702 0.132968
v -0.753932 -0.328623 0.118406
v -0.635843 0.106558 0.118406
v -0.753932 -0.328623 -0.035458
v -0.635843 0.106558 -0.035458
v -0.766343 -0.418978 -0.038624
v -0.422587 -0.452885 -0.038624
v -0.422587 -0.452885 0.121572
v -0.766343 -0.418978 0.121572
v -0.390232 -0.390282 -0.050022
v -0.766343 -0.418978 -0.038624
v -0.787301 -0.351702 -0.050022
v -0.422587 -0.452885 -0.038624
v -0.307601 0.106558 -0.035458
v -0.427146 -0.361048 -0.035458
v -0.635843 0.106558 -0.035458
v -0.753932 -0.328623 -0.035458
v -0.787301 -0.351702 -0.050022
v -0.427146 -0.361048 -0.035458
v -0.390232 -0.390282 -0.050022
v -0.753932 -0.328623 -0.035458
v 0.796292 0.352652 -0.029127
v 0.796292 0.305657 0.041158
v 0.796292 0.305657 -0.045589
v 0.770964 0.194293 0.041158
v 0.770964 0.194293 -0.053188
v 0.796292 0.352652 0.041158
v 0.796292 0.395714 -0.023428
v 0.796292 0.409549 0.041158
v 0.796292 0.395714 0.106375
v 0.796292 0.352652 0.112074
v 0.796292 0.305657 0.128537
v 0.770964 0.194293 0.136134
v 0.745638 0.141890 0.136134
v 0.745638 0.141890 0.041158
v 0.745638 0.141890 -0.053188
v 0.692133 0.156828 -0.065851
v 0.692133 0.156828 0.148798
v 0.692133 0.111016 -0.065851
v 0.692133 0.111016 0.148798
v -0.385103 -0.364467 0.041158
v -0.369399 -0.212788 0.041158
v -0.385103 -0.364467 0.148798
v -0.369399 -0.212788 0.148798
v -0.369399 -0.212788 -0.065851
v -0.385103 -0.364467 -0.065851
v -0.336221 -0.127618 -0.065851
v -0.336221 -0.127618 0.041158
v -0.336221 -0.127618 0.148798
v -0.296963 -0.046432 -0.065851
v -0.296963 -0.046432 0.041158
v -0.296963 -0.046432 0.148798
v -0.263595 0.036471 -0.065851
v -0.263595 0.036471 0.041158
v -0.263595 0.036471 0.148798
v -0.256439 0.081422 -0.065851
v -0.256439 0.081422 0.041158
v -0.258403 0.156828 -0.065851
v -0.256439 0.081422 0.148798
v -0.258403 0.156828 0.041158
v -0.258403 0.156828 0.148798
v -0.309753 0.409549 0.041158
v 0.624762 0.395714 -0.023428
v -0.309753 0.395714 -0.023428
v 0.624762 0.409549 0.041158
v -0.309753 0.395714 0.106375
v 0.796292 0.395714 -0.023428
v 0.624762 0.395714 0.106375
v 0.796292 0.409549 0.041158
v 0.796292 0.395714 0.106375
v 0.692133 0.156828 -0.065851
v -0.261125 0.156828 -0.065851
v -0.261125 0.156828 0.148798
v 0.692133 0.156828 0.148798
v -0.658258 0.156828 0.148798
v -0.258403 0.156828 0.148798
v -0.658258 0.156828 0.041158
v -0.258403 0.156828 0.041158
v -0.258403 0.156828 -0.065851
v -0.658258 0.156828 -0.065851
v -0.727465 0.156828 -0.065851
v -0.727465 0.156828 0.041158
v -0.824279 0.156828 -0.065851
v -0.727465 0.156828 0.148798
v -0.824279 0.156828 0.041158
v -0.824279 0.156828 0.148798
v 0.621597 0.305657 0.128537
v -0.309753 0.352652 0.112074
v -0.309753 0.305657 0.128537
v 0.624762 0.395714 0.106375
v -0.309753 0.395714 0.106375
v 0.624762 0.352652 0.112074
v 0.796292 0.395714 0.106375
v 0.796292 0.352652 0.112074
v 0.796292 0.305657 0.128537
v 0.770964 0.194293 0.136134
v 0.621597 0.194293 0.136134
v 0.745638 0.141890 0.136134
v 0.607223 0.141890 0.136134
v 0.692133 0.156828 0.148798
v -0.261125 0.156828 0.148798
v 0.692133 0.111016 0.148798
v -0.261125 0.111016 0.148798
v -0.385103 -0.364467 0.148798
v -0.766469 -0.185422 0.148798
v -0.784262 -0.325710 0.148798
v -0.369399 -0.212788 0.148798
v -0.734683 -0.108262 0.148798
v -0.336221 -0.127618 0.148798
v -0.698972 -0.033489 0.148798
v -0.296963 -0.046432 0.148798
v -0.667123 0.043316 0.148798
v -0.704670 0.026512 0.148798
v -0.263595 0.036471 0.148798
v -0.712395 0.059038 0.148798
v -0.658132 0.084840 0.148798
v -0.256439 0.081422 0.148798
v -0.258403 0.156828 0.148798
v -0.658258 0.156828 0.148798
v -0.758175 0.091248 0.148798
v -0.727465 0.156828 0.148798
v -0.824279 0.156828 0.148798
v -0.833333 0.127258 0.148798
v -0.824279 0.156828 0.041158
v -0.824279 0.156828 -0.065851
v -0.824279 0.156828 0.148798
v -0.833333 0.127258 -0.065851
v -0.833333 0.127258 0.148798
v -0.824279 0.156828 -0.065851
v -0.824279 0.156828 0.148798
v -0.784262 -0.325710 -0.065851
v -0.766469 -0.185422 0.041158
v -0.766469 -0.185422 -0.065851
v -0.784262 -0.325710 0.041158
v -0.766469 -0.185422 0.148798
v -0.784262 -0.325710 0.148798
v -0.734683 -0.108262 0.148798
v -0.734683 -0.108262 0.041158
v -0.734683 -0.108262 -0.065851
v -0.698972 -0.033489 0.148798
v -0.698972 -0.033489 0.041158
v -0.698972 -0.033489 -0.065851
v -0.704670 0.026512 0.148798
v -0.704670 0.026512 0.041158
v -0.704670 0.026512 -0.065851
v -0.712395 0.059038 0.148798
v -0.712395 0.059038 0.041158
v -0.712395 0.059038 -0.065851
v -0.309753 0.305657 0.041158
v -0.309753 0.352652 -0.029127
v -0.309753 0.305657 -0.045589
v -0.309753 0.409549 0.041158
v -0.309753 0.395714 -0.023428
v -0.309753 0.352652 0.112074
v -0.309753 0.395714 0.106375
v -0.309753 0.305657 0.128537
v 0.607223 0.141890 0.041158
v 0.621597 0.194293 0.136134
v 0.621597 0.194293 0.041158
v 0.607223 0.141890 0.136134
v 0.607223 0.141890 -0.053188
v 0.621597 0.305657 0.128537
v 0.621597 0.194293 -0.053188
v 0.621597 0.305657 0.041158
v 0.621597 0.305657 -0.045589
v -0.712395 0.059038 0.041158
v -0.712395 0.059038 0.148798
v -0.758175 0.091248 0.148798
v -0.712395 0.059038 -0.065851
v -0.758175 0.091248 -0.065851
v -0.833333 0.127258 0.148798
v -0.833333 0.127258 -0.065851
v -0.385103 -0.364467 -0.065851
v -0.784262 -0.325710 0.041158
v -0.784262 -0.325710 -0.065851
v -0.385103 -0.364467 0.041158
v -0.784262 -0.325710 0.148798
v -0.385103 -0.364467 0.148798
v -0.261125 0.111016 -0.065851
v 0.692133 0.111016 -0.065851
v 0.692133 0.111016 0.148798
v -0.261125 0.111016 0.148798
v 0.607223 0.141890 -0.053188
v 0.745638 0.141890 -0.053188
v 0.745638 0.141890 0.041158
v 0.607223 0.141890 0.041158
v 0.745638 0.141890 0.136134
v 0.607223 0.141890 0.136134
v 0.621597 0.305657 0.041158
v -0.309753 0.305657 0.128537
v -0.309753 0.305657 0.041158
v 0.621597 0.305657 0.128537
v -0.309753 0.305657 -0.045589
v 0.621597 0.305657 -0.045589
v -0.309753 0.352652 -0.029127
v 0.624762 0.352652 -0.029127
v 0.621597 0.305657 -0.045589
v -0.309753 0.305657 -0.045589
v -0.309753 0.395714 -0.023428
v 0.624762 0.395714 -0.023428
v 0.796292 0.352652 -0.029127
v 0.796292 0.395714 -0.023428
v 0.796292 0.305657 -0.045589
v 0.770964 0.194293 -0.053188
v 0.621597 0.194293 -0.053188
v 0.745638 0.141890 -0.053188
v 0.607223 0.141890 -0.053188
v 0.692133 0.156828 -0.065851
v -0.261125 0.111016 -0.065851
v -0.261125 0.156828 -0.065851
v 0.692133 0.111016 -0.065851
v -0.385103 -0.364467 -0.065851
v -0.766469 -0.185422 -0.065851
v -0.369399 -0.212788 -0.065851
v -0.784262 -0.325710 -0.065851
v -0.734683 -0.108262 -0.065851
v -0.336221 -0.127618 -0.065851
v -0.698972 -0.033489 -0.065851
v -0.296963 -0.046432 -0.065851
v -0.667123 0.043316 -0.065851
v -0.704670 0.026512 -0.065851
v -0.263595 0.036471 -0.065851
v -0.712395 0.059038 -0.065851
v -0.658132 0.084840 -0.065851
v -0.256439 0.081422 -0.065851
v -0.258403 0.156828 -0.065851
v -0.658258 0.156828 -0.065851
v -0.758175 0.091248 -0.065851
v -0.727465 0.156828 -0.065851
v -0.824279 0.156828 -0.065851
v -0.833333 0.127258 -0.065851
v -0.402452 -0.214788 -0.078515
v -0.402452 -0.214788 0.161462
v -0.413469 -0.328788 -0.078515
v -0.413469 -0.328788 0.161462
v -0.379213 -0.132836 0.161462
v -0.379213 -0.132836 -0.078515
v -0.344136 -0.062318 0.161462
v -0.344136 -0.062318 -0.078515
v -0.311653 0.007143 0.161462
v -0.311653 0.007143 -0.078515
v -0.306651 0.044804 0.161462
v -0.306651 0.044804 -0.078515
v -0.306651 0.044804 -0.078515
v -0.641479 0.055422 -0.078515
v -0.641479 0.055422 0.161462
v -0.306651 0.044804 0.161462
v -0.715751 -0.043715 -0.078515
v -0.670098 -0.043715 0.161462
v -0.670098 -0.043715 -0.078515
v -0.715751 -0.043715 0.161462
v -0.729808 -0.288561 0.161462
v -0.413469 -0.328788 0.161462
v -0.402452 -0.214788 0.161462
v -0.774194 -0.184104 0.161462
v -0.786667 -0.288561 0.161462
v -0.717334 -0.184104 0.161462
v -0.745131 -0.108863 0.161462
v -0.695109 -0.108863 0.161462
v -0.715751 -0.043715 0.161462
v -0.379213 -0.132836 0.161462
v -0.670098 -0.043715 0.161462
v -0.344136 -0.062318 0.161462
v -0.647811 0.020629 0.161462
v -0.311653 0.007143 0.161462
v -0.641479 0.055422 0.161462
v -0.306651 0.044804 0.161462
v -0.715751 -0.043715 0.161462
v -0.715751 -0.043715 -0.078515
v -0.745131 -0.108863 -0.078515
v -0.745131 -0.108863 0.161462
v -0.774194 -0.184104 -0.078515
v -0.774194 -0.184104 0.161462
v -0.786667 -0.288561 -0.078515
v -0.786667 -0.288561 0.161462
v -0.647811 0.020629 -0.078515
v -0.641479 0.055422 0.161462
v -0.641479 0.055422 -0.078515
v -0.647811 0.020629 0.161462
v -0.670098 -0.043715 -0.078515
v -0.670098 -0.043715 0.161462
v -0.729808 -0.288561 -0.078515
v -0.786667 -0.288561 0.161462
v -0.786667 -0.288561 -0.078515
v -0.729808 -0.288561 0.161462
v -0.413469 -0.328788 -0.078515
v -0.413469 -0.328788 0.161462
v -0.402452 -0.214788 -0.078515
v -0.729808 -0.288561 -0.078515
v -0.717334 -0.184104 -0.078515
v -0.413469 -0.328788 -0.078515
v -0.774194 -0.184104 -0.078515
v -0.786667 -0.288561 -0.078515
v -0.745131 -0.108863 -0.078515
v -0.695109 -0.108863 -0.078515
v -0.715751 -0.043715 -0.078515
v -0.379213 -0.132836 -0.078515
v -0.670098 -0.043715 -0.078515
v -0.344136 -0.062318 -0.078515
v -0.647811 0.020629 -0.078515
v -0.311653 0.007143 -0.078515
v -0.641479 0.055422 -0.078515
v -0.306651 0.044804 -0.078515
v 0.248145 0.241084 -0.128537
v 0.246688 0.237963 -0.149431
v 0.246752 0.244789 -0.127903
v 0.248145 0.235127 -0.147532
v 0.246625 0.237526 -0.129169
v 0.246688 0.217872 -0.160196
v 0.246562 0.232391 -0.144999
v 0.248145 0.217549 -0.156396
v 0.246562 0.217233 -0.152597
v 0.246562 0.200941 -0.147532
v 0.248145 0.198642 -0.150698
v 0.246625 0.193115 -0.132968
v 0.248145 0.189487 -0.132968
v 0.246688 0.196262 -0.153230
v 0.246752 0.185719 -0.132968
v 0.239343 0.237963 -0.149431
v 0.243016 0.246391 -0.127270
v 0.243016 0.239160 -0.150698
v 0.239280 0.244789 -0.127903
v 0.246688 0.237963 -0.149431
v 0.246752 0.244789 -0.127903
v 0.246625 0.193115 -0.132968
v 0.246562 0.200941 -0.147532
v 0.243016 0.201859 -0.146899
v 0.243016 0.194628 -0.132968
v 0.239407 0.193115 -0.132968
v 0.239470 0.200941 -0.147532
v 0.243016 0.231296 -0.144366
v 0.246562 0.217233 -0.152597
v 0.246562 0.232391 -0.144999
v 0.243016 0.217113 -0.151331
v 0.239470 0.217233 -0.152597
v 0.239470 0.232391 -0.144999
v 0.243016 0.201859 -0.146899
v 0.246562 0.200941 -0.147532
v 0.239470 0.200941 -0.147532
v 0.239343 0.237963 -0.149431
v 0.237888 0.241084 -0.128537
v 0.239280 0.244789 -0.127903
v 0.237888 0.235127 -0.147532
v 0.239407 0.237526 -0.129169
v 0.239343 0.217872 -0.160196
v 0.239470 0.232391 -0.144999
v 0.239343 0.196262 -0.153230
v 0.239280 0.185719 -0.132968
v 0.237888 0.189487 -0.132968
v 0.237888 0.198642 -0.150698
v 0.239407 0.193115 -0.132968
v 0.237888 0.217549 -0.156396
v 0.239470 0.217233 -0.152597
v 0.239470 0.200941 -0.147532
v 0.243016 0.231296 -0.144366
v 0.239407 0.237526 -0.129169
v 0.239470 0.232391 -0.144999
v 0.246625 0.237526 -0.129169
v 0.246562 0.232391 -0.144999
v 0.243016 0.236044 -0.129169
v 0.246688 0.196262 -0.153230
v 0.246752 0.185719 -0.132968
v 0.243016 0.184098 -0.132968
v 0.243016 0.195262 -0.154497
v 0.239343 0.196262 -0.153230
v 0.239280 0.185719 -0.132968
v 0.243016 0.218006 -0.161462
v 0.239343 0.237963 -0.149431
v 0.243016 0.239160 -0.150698
v 0.246688 0.237963 -0.149431
v 0.239343 0.217872 -0.160196
v 0.246688 0.217872 -0.160196
v 0.246688 0.196262 -0.153230
v 0.243016 0.195262 -0.154497
v 0.239343 0.196262 -0.153230
v 0.288163 0.212687 -0.100677
v 0.273155 0.243788 -0.110174
v 0.274928 0.244492 -0.098143
v 0.273155 0.183737 -0.115873
v 0.274928 0.180882 -0.103842
v 0.285629 0.213763 -0.113340
v 0.243016 0.257668 -0.096877
v 0.212876 0.243788 -0.110174
v 0.211103 0.244492 -0.098143
v 0.243016 0.256224 -0.109541
v 0.273155 0.243788 -0.110174
v 0.274928 0.244492 -0.098143
v 0.212876 0.243788 -0.110174
v 0.200403 0.213763 -0.113340
v 0.197870 0.212687 -0.100677
v 0.212876 0.183737 -0.115873
v 0.211103 0.244492 -0.098143
v 0.211103 0.180882 -0.103842
v 0.212876 0.183737 -0.115873
v 0.243016 0.167705 -0.104475
v 0.211103 0.180882 -0.103842
v 0.243016 0.171296 -0.116506
v 0.273155 0.183737 -0.115873
v 0.274928 0.180882 -0.103842
v 0.266507 0.192019 -0.134235
v 0.276258 0.215422 -0.131703
v 0.285629 0.213769 -0.113340
v 0.266507 0.238824 -0.129803
v 0.273155 0.183744 -0.115873
v 0.273155 0.243795 -0.110174
v 0.293164 0.209634 -0.065851
v 0.274928 0.244498 -0.098143
v 0.278474 0.244972 -0.062685
v 0.288163 0.212693 -0.100677
v 0.274928 0.180888 -0.103842
v 0.278474 0.174297 -0.069018
v 0.243016 0.256230 -0.109541
v 0.273155 0.243795 -0.110174
v 0.266507 0.238824 -0.129803
v 0.243016 0.248518 -0.129169
v 0.219525 0.238824 -0.129803
v 0.212876 0.243795 -0.110174
v 0.211103 0.244498 -0.098143
v 0.243016 0.259612 -0.061419
v 0.243016 0.257674 -0.096877
v 0.274928 0.244498 -0.098143
v 0.207558 0.244972 -0.062685
v 0.278474 0.244972 -0.062685
v 0.200403 0.213769 -0.113340
v 0.219525 0.192019 -0.134235
v 0.212876 0.183744 -0.115873
v 0.212876 0.243795 -0.110174
v 0.219525 0.238824 -0.129803
v 0.209774 0.215422 -0.131703
v 0.211103 0.244498 -0.098143
v 0.192868 0.209634 -0.065851
v 0.207558 0.244972 -0.062685
v 0.197870 0.212693 -0.100677
v 0.211103 0.180888 -0.103842
v 0.207558 0.174297 -0.069018
v 0.243016 0.171308 -0.116506
v 0.266507 0.192019 -0.134235
v 0.273155 0.183744 -0.115873
v 0.243016 0.182325 -0.134868
v 0.219525 0.192019 -0.134235
v 0.212876 0.183744 -0.115873
v 0.211103 0.180888 -0.103842
v 0.243016 0.159658 -0.070283
v 0.207558 0.174297 -0.069018
v 0.274928 0.180888 -0.103842
v 0.278474 0.174297 -0.069018
v 0.243016 0.167718 -0.104475
v 0.266507 0.192019 -0.134235
v 0.219525 0.238824 -0.129803
v 0.266507 0.238824 -0.129803
v 0.243016 0.248518 -0.129169
v 0.276258 0.215422 -0.131703
v 0.219525 0.192019 -0.134235
v 0.209774 0.215422 -0.131703
v 0.243016 0.182325 -0.134868
v -0.612478 0.452885 -0.017729
v -0.607983 0.425728 0.025960
v -0.607983 0.425728 -0.025960
v -0.612478 0.452885 0.024694
v -0.607983 0.401920 -0.025960
v -0.607983 0.401920 0.041158
v -0.607983 0.425728 0.041158
v -0.607983 0.425728 0.056987
v -0.607983 0.401920 0.108275
v -0.607983 0.425728 0.108275
v -0.612478 0.452885 0.100043
v -0.612478 0.452885 0.058253
v -0.635147 0.452885 -0.017729
v -0.635147 0.452885 0.024694
v -0.612478 0.452885 -0.017729
v -0.612478 0.452885 0.024694
v -0.635147 0.452885 0.058253
v -0.635147 0.452885 0.100043
v -0.612478 0.452885 0.058253
v -0.612478 0.452885 0.100043
v -0.639706 0.425728 0.041158
v -0.607983 0.425728 0.025960
v -0.639706 0.425728 0.025960
v -0.607983 0.425728 0.041158
v -0.639706 0.425728 0.056987
v -0.607983 0.425728 0.056987
v -0.639706 0.425728 0.108275
v -0.607983 0.425728 0.108275
v -0.635147 0.452885 0.100043
v -0.612478 0.452885 0.100043
v -0.639706 0.401920 0.108275
v -0.607983 0.401920 0.108275
v -0.639706 0.401920 0.041158
v -0.607983 0.401920 0.041158
v -0.607983 0.425728 0.041158
v -0.639706 0.425728 0.041158
v -0.639706 0.425728 0.025960
v -0.607983 0.425728 0.025960
v -0.635147 0.452885 0.024694
v -0.612478 0.452885 0.024694
v -0.635147 0.452885 -0.017729
v -0.639706 0.425728 -0.025960
v -0.639706 0.425728 0.025960
v -0.635147 0.452885 0.024694
v -0.639706 0.401920 -0.025960
v -0.639706 0.401920 0.041158
v -0.639706 0.425728 0.041158
v -0.639706 0.425728 0.056987
v -0.639706 0.401920 0.108275
v -0.639706 0.425728 0.108275
v -0.635147 0.452885 0.100043
v -0.635147 0.452885 0.058253
v -0.607983 0.401920 0.041158
v -0.639706 0.401920 0.108275
v -0.639706 0.401920 0.041158
v -0.607983 0.401920 0.108275
v -0.607983 0.401920 -0.025960
v -0.639706 0.401920 -0.025960
v -0.607983 0.425728 -0.025960
v -0.635147 0.452885 -0.017729
v -0.612478 0.452885 -0.017729
v -0.639706 0.425728 -0.025960
v -0.607983 0.401920 -0.025960
v -0.639706 0.401920 -0.025960
v -0.607983 0.425728 0.056987
v -0.635147 0.452885 0.058253
v -0.612478 0.452885 0.058253
v -0.639706 0.425728 0.056987
vt 28.018 0.957138 
vt 27.982 0.957138 
vt 28.0158 0.944779 
vt 27.9842 0.944779 
vt 28.0151 1.05522 
vt 27.9849 0.962908 
vt 28.0151 0.962908 
vt 27.9849 1.05522 
vt 27.9527 0.984856 
vt 28.0174 0.984856 
vt 28.0174 1.01514 
vt 27.9527 1.01514 
vt 28.0408 1.01514 
vt 28.0408 0.984856 
vt 28.0473 0.981984 
vt 28.0473 1.01802 
vt 27.9762 0.984856 
vt 27.969 1.01802 
vt 27.969 0.981984 
vt 27.9762 1.01514 
vt 28.031 0.957138 
vt 27.9568 0.951473 
vt 28.0247 0.944779 
vt 27.9527 0.964754 
vt 28.0238 0.962908 
vt 27.9826 1.05522 
vt 27.9592 0.96931 
vt 28.0473 1.05522 
vt 28.0238 0.962908 
vt 27.9592 0.96931 
vt 27.9527 0.964754 
vt 28.031 0.957138 
vt 27.9842 0.951473 
vt 28.0158 0.951473 
vt 27.982 0.964754 
vt 28.018 0.964754 
vt 28.0151 0.96931 
vt 28.0151 1.05522 
vt 27.9849 0.96931 
vt 27.9849 1.05522 
vt 27.9568 0.984163 
vt 28.0247 0.984163 
vt 28.0247 1.01584 
vt 27.9568 1.01584 
vt 27.969 0.957138 
vt 28.0432 0.951473 
vt 28.0473 0.964754 
vt 27.9753 0.944779 
vt 27.9527 1.05522 
vt 27.9762 0.962908 
vt 28.0174 1.05522 
vt 28.0408 0.96931 
vt 28.0473 0.964754 
vt 27.9762 0.962908 
vt 27.969 0.957138 
vt 28.0408 0.96931 
vt 44.0139 -26.9348 
vt 44 -26.9441 
vt 44.0172 -26.9441 
vt 44 -26.9661 
vt 44.0187 -26.9661 
vt 44 -26.9348 
vt 44.0128 -26.9263 
vt 44 -26.9236 
vt 43.9872 -26.9263 
vt 43.9861 -26.9348 
vt 43.9828 -26.9441 
vt 43.9813 -26.9661 
vt 43.9813 -26.9764 
vt 44 -26.9764 
vt 44.0187 -26.9764 
vt 44.0212 -26.9735 
vt 43.9788 -26.9735 
vt 44.0212 -26.9825 
vt 43.9788 -26.9825 
vt 44 -27.0764 
vt 44 -27.0465 
vt 43.9788 -27.0764 
vt 43.9788 -27.0465 
vt 44.0212 -27.0465 
vt 44.0212 -27.0764 
vt 44.0212 -27.0296 
vt 44 -27.0296 
vt 43.9788 -27.0296 
vt 44.0212 -27.0136 
vt 44 -27.0136 
vt 43.9788 -27.0136 
vt 44.0212 -26.9972 
vt 44 -26.9972 
vt 43.9788 -26.9972 
vt 44.0212 -26.9884 
vt 44 -26.9884 
vt 44.0212 -26.9735 
vt 43.9788 -26.9884 
vt 44 -26.9735 
vt 43.9788 -26.9735 
vt 44.0575 -27 
vt 43.873 -27.0128 
vt 44.0575 -27.0128 
vt 43.873 -27 
vt 44.0575 -26.9872 
vt 43.8391 -27.0128 
vt 43.873 -26.9872 
vt 43.8391 -27 
vt 43.8391 -26.9872 
vt 43.8597 -27.0212 
vt 44.0479 -27.0212 
vt 44.0479 -26.9788 
vt 43.8597 -26.9788 
vt 44.1263 -26.9788 
vt 44.0474 -26.9788 
vt 44.1263 -27 
vt 44.0474 -27 
vt 44.0474 -27.0212 
vt 44.1263 -27.0212 
vt 44.14 -27.0212 
vt 44.14 -27 
vt 44.1591 -27.0212 
vt 44.14 -26.9788 
vt 44.1591 -27 
vt 44.1591 -26.9788 
vt 44.1264 -26.9441 
vt 43.9425 -26.9348 
vt 43.9425 -26.9441 
vt 44.127 -26.9263 
vt 43.9425 -26.9263 
vt 44.127 -26.9348 
vt 44.1609 -26.9263 
vt 44.1609 -26.9348 
vt 44.1609 -26.9441 
vt 44.1559 -26.9661 
vt 44.1264 -26.9661 
vt 44.1509 -26.9764 
vt 44.1235 -26.9764 
vt 44.1403 -26.9735 
vt 43.9521 -26.9735 
vt 44.1403 -26.9825 
vt 43.9521 -26.9825 
vt 43.9276 -27.0764 
vt 43.8523 -27.0411 
vt 43.8488 -27.0688 
vt 43.9307 -27.0465 
vt 43.8586 -27.0258 
vt 43.9373 -27.0296 
vt 43.8657 -27.0111 
vt 43.945 -27.0136 
vt 43.872 -26.9959 
vt 43.8645 -26.9992 
vt 43.9516 -26.9972 
vt 43.863 -26.9928 
vt 43.8737 -26.9877 
vt 43.953 -26.9884 
vt 43.9526 -26.9735 
vt 43.8737 -26.9735 
vt 43.854 -26.9864 
vt 43.86 -26.9735 
vt 43.8409 -26.9735 
vt 43.8391 -26.9793 
vt 43.8409 -26.9735 
vt 43.8409 -26.9735 
vt 43.8409 -26.9735 
vt 43.9788 -26.9793 
vt 44.0212 -26.9793 
vt 43.9788 -26.9735 
vt 44.0212 -26.9735 
vt 43.9788 -27.0688 
vt 44 -27.0411 
vt 43.9788 -27.0411 
vt 44 -27.0688 
vt 44.0212 -27.0411 
vt 44.0212 -27.0688 
vt 44.0212 -27.0258 
vt 44 -27.0258 
vt 43.9788 -27.0258 
vt 44.0212 -27.0111 
vt 44 -27.0111 
vt 43.9788 -27.0111 
vt 44.0212 -26.9992 
vt 44 -26.9992 
vt 43.9788 -26.9992 
vt 44.0212 -26.9928 
vt 44 -26.9928 
vt 43.9788 -26.9928 
vt 44 -26.9441 
vt 43.9861 -26.9348 
vt 43.9828 -26.9441 
vt 44 -26.9236 
vt 43.9872 -26.9263 
vt 44.0139 -26.9348 
vt 44.0128 -26.9263 
vt 44.0172 -26.9441 
vt 44 -26.9764 
vt 44.0187 -26.9661 
vt 44 -26.9661 
vt 44.0187 -26.9764 
vt 43.9813 -26.9764 
vt 44.0172 -26.9441 
vt 43.9813 -26.9661 
vt 44 -26.9441 
vt 43.9828 -26.9441 
vt 43.863 -27 
vt 43.863 -26.9788 
vt 43.854 -26.9788 
vt 43.863 -27.0212 
vt 43.854 -27.0212 
vt 43.8391 -26.9788 
vt 43.8391 -27.0212 
vt 43.9276 -27.0212 
vt 43.8488 -27 
vt 43.8488 -27.0212 
vt 43.9276 -27 
vt 43.8488 -26.9788 
vt 43.9276 -26.9788 
vt 43.9521 -27.0212 
vt 44.1403 -27.0212 
vt 44.1403 -26.9788 
vt 43.9521 -26.9788 
vt 44.1235 -27.0187 
vt 44.1509 -27.0187 
vt 44.1509 -27 
vt 44.1235 -27 
vt 44.1509 -26.9813 
vt 44.1235 -26.9813 
vt 44.1264 -27 
vt 43.9425 -26.9828 
vt 43.9425 -27 
vt 44.1264 -26.9828 
vt 43.9425 -27.0172 
vt 44.1264 -27.0172 
vt 44.0575 -26.9348 
vt 43.873 -26.9348 
vt 43.8736 -26.9441 
vt 44.0575 -26.9441 
vt 44.0575 -26.9263 
vt 43.873 -26.9263 
vt 43.8391 -26.9348 
vt 43.8391 -26.9263 
vt 43.8391 -26.9441 
vt 43.8441 -26.9661 
vt 43.8736 -26.9661 
vt 43.8491 -26.9764 
vt 43.8765 -26.9764 
vt 43.8597 -26.9735 
vt 44.0479 -26.9825 
vt 44.0479 -26.9735 
vt 43.8597 -26.9825 
vt 44.0724 -27.0764 
vt 44.1477 -27.0411 
vt 44.0693 -27.0465 
vt 44.1512 -27.0688 
vt 44.1414 -27.0258 
vt 44.0627 -27.0296 
vt 44.1343 -27.0111 
vt 44.055 -27.0136 
vt 44.128 -26.9959 
vt 44.1355 -26.9992 
vt 44.0484 -26.9972 
vt 44.137 -26.9928 
vt 44.1263 -26.9877 
vt 44.047 -26.9884 
vt 44.0474 -26.9735 
vt 44.1263 -26.9735 
vt 44.146 -26.9864 
vt 44.14 -26.9735 
vt 44.1591 -26.9735 
vt 44.1609 -26.9793 
vt 56.0237 -47.0154 
vt 55.9763 -47.0154 
vt 56.0237 -47.0379 
vt 55.9763 -47.0379 
vt 55.9763 -46.9992 
vt 56.0237 -46.9992 
vt 55.9763 -46.9853 
vt 56.0237 -46.9853 
vt 55.9763 -46.9716 
vt 56.0237 -46.9716 
vt 55.9763 -46.9642 
vt 56.0237 -46.9642 
vt 55.9526 -47.0237 
vt 56.0187 -47.0237 
vt 56.0187 -46.9763 
vt 55.9526 -46.9763 
vt 56.0334 -47.0237 
vt 56.0244 -46.9763 
vt 56.0244 -47.0237 
vt 56.0334 -46.9763 
vt 55.9638 -47.03 
vt 56.0263 -47.0379 
vt 56.0285 -47.0154 
vt 55.9551 -47.0094 
vt 55.9526 -47.03 
vt 55.9663 -47.0094 
vt 55.9608 -46.9945 
vt 55.9707 -46.9945 
vt 55.9666 -46.9816 
vt 56.0331 -46.9992 
vt 55.9756 -46.9816 
vt 56.04 -46.9853 
vt 55.98 -46.9689 
vt 56.0464 -46.9716 
vt 55.9813 -46.9621 
vt 56.0474 -46.9642 
vt 56.0237 -46.9816 
vt 55.9763 -46.9816 
vt 55.9763 -46.9945 
vt 56.0237 -46.9945 
vt 55.9763 -47.0094 
vt 56.0237 -47.0094 
vt 55.9763 -47.03 
vt 56.0237 -47.03 
vt 55.9763 -46.9689 
vt 56.0237 -46.9621 
vt 55.9763 -46.9621 
vt 56.0237 -46.9689 
vt 55.9763 -46.9816 
vt 56.0237 -46.9816 
vt 55.9638 -47.0237 
vt 55.9526 -46.9763 
vt 55.9526 -47.0237 
vt 55.9638 -46.9763 
vt 56.0263 -47.0237 
vt 56.0263 -46.9763 
vt 55.9715 -47.0154 
vt 56.0362 -47.03 
vt 56.0337 -47.0094 
vt 55.9737 -47.0379 
vt 56.0449 -47.0094 
vt 56.0474 -47.03 
vt 56.0392 -46.9945 
vt 56.0293 -46.9945 
vt 56.0334 -46.9816 
vt 55.9669 -46.9992 
vt 56.0244 -46.9816 
vt 55.96 -46.9853 
vt 56.02 -46.9689 
vt 55.9536 -46.9716 
vt 56.0187 -46.9621 
vt 55.9526 -46.9642 
vt 5.99697 -26.9949 
vt 6.00111 -26.9959 
vt 5.9969 -26.9941 
vt 6.00059 -26.9964 
vt 5.99705 -26.9956 
vt 6.00282 -27 
vt 6.00009 -26.9969 
vt 6.00209 -27 
vt 6.00138 -27 
vt 6.00009 -27.0031 
vt 6.00059 -27.0036 
vt 5.99705 -27.0044 
vt 5.99697 -27.0051 
vt 6.00111 -27.0041 
vt 5.9969 -27.0059 
vt 6.00073 -27.0011 
vt 6 -26.9969 
vt 6 -27.0013 
vt 6.00074 -26.9969 
vt 5.99927 -27.0011 
vt 5.99926 -26.9969 
vt 5.99929 -26.997 
vt 5.9993 -27.0001 
vt 6 -26.9999 
vt 6 -26.9971 
vt 6.00071 -26.997 
vt 6.0007 -27.0001 
vt 6 -26.9971 
vt 6.0007 -27 
vt 6.0007 -26.9969 
vt 6 -27 
vt 5.9993 -27 
vt 5.9993 -26.9969 
vt 6 -27.0029 
vt 6.0007 -27.0031 
vt 5.9993 -27.0031 
vt 5.99889 -26.9959 
vt 6.00303 -26.9949 
vt 6.0031 -26.9941 
vt 5.99941 -26.9964 
vt 6.00295 -26.9956 
vt 5.99718 -27 
vt 5.99991 -26.9969 
vt 5.99889 -27.0041 
vt 6.0031 -27.0059 
vt 6.00303 -27.0051 
vt 5.99941 -27.0036 
vt 6.00295 -27.0044 
vt 5.99791 -27 
vt 5.99862 -27 
vt 5.99991 -27.0031 
vt 6 -26.9999 
vt 5.99929 -26.997 
vt 5.9993 -27.0001 
vt 6.00071 -26.997 
vt 6.0007 -27.0001 
vt 6 -26.9971 
vt 6.00073 -27.0011 
vt 6.00074 -26.9969 
vt 6 -26.9969 
vt 6 -27.0013 
vt 5.99927 -27.0011 
vt 5.99926 -26.9969 
vt 6 -27 
vt 6.00073 -26.9959 
vt 6 -26.9956 
vt 5.99927 -26.9959 
vt 6.00073 -27 
vt 5.99927 -27 
vt 5.99927 -27.0041 
vt 6 -27.0044 
vt 6.00073 -27.0041 
vt 55.9988 -9 
vt 56.0012 -8.99405 
vt 55.9988 -8.9937 
vt 56.0012 -9.00595 
vt 55.9988 -9.0063 
vt 56.0012 -9 
vt 56 -8.99878 
vt 56.006 -9.00122 
vt 56.0063 -8.99878 
vt 56 -9.00122 
vt 55.994 -9.00122 
vt 55.9937 -8.99878 
vt 55.9988 -8.99405 
vt 55.9988 -9 
vt 56.0012 -9 
vt 55.9988 -9.00595 
vt 56.0012 -8.9937 
vt 56.0012 -9.0063 
vt 55.994 -9.00122 
vt 56 -8.99878 
vt 55.9937 -8.99878 
vt 56 -9.00122 
vt 56.006 -9.00122 
vt 56.0063 -8.99878 
vt 26.0066 -17.0046 
vt 26.0066 -17 
vt 26.0028 -17 
vt 26.0066 -16.9954 
vt 26.0028 -17.006 
vt 26.0028 -16.994 
vt 25.9934 -17 
vt 26.0004 -16.9937 
vt 25.9934 -16.993 
vt 26.0004 -17 
vt 26.0004 -17.0063 
vt 25.9934 -17.007 
vt 26 -17.0028 
vt 25.994 -17.0028 
vt 25.9954 -17.0066 
vt 26 -17.0066 
vt 26.0046 -17.0066 
vt 26.006 -17.0028 
vt 26.0063 -17.0004 
vt 26 -16.9934 
vt 26 -17.0004 
vt 25.9937 -17.0004 
vt 26.007 -16.9934 
vt 25.993 -16.9934 
vt 25.9972 -17 
vt 25.9934 -17.0046 
vt 25.9972 -17.006 
vt 25.9972 -16.994 
vt 25.9934 -16.9954 
vt 25.9934 -17 
vt 25.9996 -16.9937 
vt 26.0066 -17 
vt 26.0066 -16.993 
vt 25.9996 -17 
vt 25.9996 -17.0063 
vt 26.0066 -17.007 
vt 26 -17.0028 
vt 26.0046 -17.0066 
vt 26.006 -17.0028 
vt 26 -17.0066 
vt 25.9954 -17.0066 
vt 25.994 -17.0028 
vt 25.9937 -17.0004 
vt 26 -16.9934 
vt 25.993 -16.9934 
vt 26.0063 -17.0004 
vt 26.007 -16.9934 
vt 26 -17.0004 
vt 25.9954 -17.0046 
vt 26.0046 -16.9954 
vt 25.9954 -16.9954 
vt 26 -16.9934 
vt 25.9934 -17 
vt 26.0046 -17.0046 
vt 26.0066 -17 
vt 26 -17.0066 
vt 36.0116 -40.995 
vt 36.003 -41.0003 
vt 36.0133 -41.0003 
vt 36.0033 -40.995 
vt 36.0133 -41.005 
vt 36 -41.005 
vt 36 -41.0003 
vt 35.997 -41.0003 
vt 35.9867 -41.005 
vt 35.9867 -41.0003 
vt 35.9884 -40.995 
vt 35.9967 -40.995 
vt 36.0022 -41.0116 
vt 36.0022 -41.0033 
vt 35.9978 -41.0116 
vt 35.9978 -41.0033 
vt 36.0022 -40.9967 
vt 36.0022 -40.9884 
vt 35.9978 -40.9967 
vt 35.9978 -40.9884 
vt 36.0031 -41 
vt 35.9969 -41.003 
vt 36.0031 -41.003 
vt 35.9969 -41 
vt 36.0031 -40.997 
vt 35.9969 -40.997 
vt 35.9969 -41.0003 
vt 36.0031 -41.0003 
vt 35.9978 -40.995 
vt 36.0022 -40.995 
vt 35.9969 -41.005 
vt 36.0031 -41.005 
vt 35.9969 -41.005 
vt 36.0031 -41.005 
vt 36.0031 -41.0003 
vt 35.9969 -41.0003 
vt 35.9969 -41.0003 
vt 36.0031 -41.0003 
vt 35.9978 -40.995 
vt 36.0022 -40.995 
vt 35.9884 -40.995 
vt 35.9867 -41.0003 
vt 35.997 -41.0003 
vt 35.9967 -40.995 
vt 35.9867 -41.005 
vt 36 -41.005 
vt 36 -41.0003 
vt 36.003 -41.0003 
vt 36.0133 -41.005 
vt 36.0133 -41.0003 
vt 36.0116 -40.995 
vt 36.0033 -40.995 
vt 36.0031 -41 
vt 35.9969 -40.9867 
vt 35.9969 -41 
vt 36.0031 -40.9867 
vt 36.0031 -41.0133 
vt 35.9969 -41.0133 
vt 35.9969 -41.0003 
vt 36.0022 -40.995 
vt 35.9978 -40.995 
vt 36.0031 -41.0003 
vt 35.9969 -41.005 
vt 36.0031 -41.005 
vt 35.9969 -41.0003 
vt 36.0022 -40.995 
vt 35.9978 -40.995 
vt 36.0031 -41.0003 
vn 0.8898 -0.4567 0.0000
vn 0.8898 -0.4567 0.0000
vn 0.8898 -0.4567 0.0000
vn 0.8898 -0.4567 0.0000
vn 0.9685 -0.2441 0.0000
vn 0.9685 -0.2441 0.0000
vn 0.9685 -0.2441 0.0000
vn 0.9685 -0.2441 0.0000
vn -0.0000 1.0000 0.0000
vn -0.0000 1.0000 0.0000
vn -0.0000 1.0000 0.0000
vn -0.0000 1.0000 0.0000
vn -0.5669 0.8189 0.0000
vn -0.5669 0.8189 0.0000
vn -0.5669 0.8189 0.0000
vn -0.5669 0.8189 0.0000
vn 0.6220 0.7874 0.0000
vn 0.6220 0.7874 0.0000
vn 0.6220 0.7874 0.0000
vn 0.6220 0.7874 0.0000
vn -0.0157 -0.1654 0.9843
vn -0.0157 -0.1654 0.9843
vn -0.0157 -0.1654 0.9843
vn -0.0157 -0.1654 0.9843
vn -0.0000 0.0000 1.0000
vn -0.0000 0.0000 1.0000
vn -0.0000 0.0000 1.0000
vn -0.0000 0.0000 1.0000
vn 0.0472 0.4882 0.8740
vn 0.0472 0.4882 0.8740
vn 0.0472 0.4882 0.8740
vn 0.0472 0.4882 0.8740
vn -0.9528 -0.2992 0.0000
vn -0.9528 -0.2992 0.0000
vn -0.9528 -0.2992 0.0000
vn -0.9528 -0.2992 0.0000
vn -0.9685 0.2598 0.0000
vn -0.9685 0.2598 0.0000
vn -0.9685 0.2598 0.0000
vn -0.9685 0.2598 0.0000
vn -0.1024 -0.9921 0.0000
vn -0.1024 -0.9921 0.0000
vn -0.1024 -0.9921 0.0000
vn -0.1024 -0.9921 0.0000
vn -0.0157 -0.1654 -0.9843
vn -0.0157 -0.1654 -0.9843
vn -0.0157 -0.1654 -0.9843
vn -0.0157 -0.1654 -0.9843
vn -0.0000 0.0000 -1.0000
vn -0.0000 0.0000 -1.0000
vn -0.0000 0.0000 -1.0000
vn -0.0000 0.0000 -1.0000
vn 0.0472 0.4882 -0.8740
vn 0.0472 0.4882 -0.8740
vn 0.0472 0.4882 -0.8740
vn 0.0472 0.4882 -0.8740
vn 1.0000 0.0000 0.0000
vn 0.9921 -0.1102 0.0000
vn 0.9921 -0.1102 0.0000
vn 0.9449 -0.3307 0.0000
vn 0.9449 -0.3307 0.0000
vn 1.0000 0.0000 0.0000
vn 1.0000 0.0000 0.0000
vn 1.0000 0.0000 0.0000
vn 1.0000 0.0000 0.0000
vn 1.0000 0.0000 0.0000
vn 0.9921 -0.1102 0.0000
vn 0.9449 -0.3307 0.0000
vn 0.8976 -0.4331 0.0000
vn 0.8976 -0.4331 0.0000
vn 0.8976 -0.4331 0.0000
vn 1.0000 0.0000 0.0000
vn 1.0000 0.0000 0.0000
vn 1.0000 0.0000 0.0000
vn 1.0000 0.0000 0.0000
vn 0.9921 -0.1024 0.0000
vn 0.9685 -0.2362 0.0000
vn 0.9921 -0.1024 0.0000
vn 0.9685 -0.2362 0.0000
vn 0.9685 -0.2362 0.0000
vn 0.9921 -0.1024 0.0000
vn 0.9134 -0.4016 0.0000
vn 0.9134 -0.4016 0.0000
vn 0.9134 -0.4016 0.0000
vn 0.9134 -0.4016 0.0000
vn 0.9134 -0.4016 0.0000
vn 0.9134 -0.4016 0.0000
vn 0.9606 -0.2677 0.0000
vn 0.9606 -0.2677 0.0000
vn 0.9606 -0.2677 0.0000
vn 1.0000 -0.0630 0.0000
vn 1.0000 -0.0630 0.0000
vn 1.0000 0.0236 0.0000
vn 1.0000 -0.0630 0.0000
vn 1.0000 0.0236 0.0000
vn 1.0000 0.0236 0.0000
vn -0.0000 1.0000 0.0000
vn -0.0000 0.9764 -0.2126
vn -0.0000 0.9764 -0.2126
vn -0.0000 1.0000 0.0000
vn -0.0000 0.9764 0.2126
vn -0.0000 0.9764 -0.2126
vn -0.0000 0.9764 0.2126
vn -0.0000 1.0000 0.0000
vn -0.0000 0.9764 0.2126
vn -0.0000 1.0000 0.0000
vn -0.0000 1.0000 0.0000
vn -0.0000 1.0000 0.0000
vn -0.0000 1.0000 0.0000
vn -0.0000 1.0000 0.0000
vn -0.0000 1.0000 0.0000
vn -0.0000 1.0000 0.0000
vn -0.0000 1.0000 0.0000
vn -0.0000 1.0000 0.0000
vn -0.0000 1.0000 0.0000
vn -0.0000 1.0000 0.0000
vn -0.0000 1.0000 0.0000
vn -0.0000 1.0000 0.0000
vn -0.0000 1.0000 0.0000
vn -0.0000 1.0000 0.0000
vn -0.0000 1.0000 0.0000
vn -0.0000 0.2520 0.9685
vn -0.0000 0.2362 0.9685
vn -0.0000 0.3307 0.9449
vn -0.0000 0.1260 0.9921
vn -0.0000 0.1260 0.9921
vn -0.0000 0.2362 0.9685
vn -0.0000 0.1260 0.9921
vn -0.0000 0.2362 0.9685
vn -0.0000 0.2047 0.9764
vn -0.0000 0.0315 1.0000
vn -0.0000 0.0315 1.0000
vn -0.0000 0.0000 1.0000
vn -0.0000 0.0000 1.0000
vn -0.0000 0.0000 1.0000
vn -0.0000 0.0000 1.0000
vn -0.0000 0.0000 1.0000
vn -0.0000 0.0000 1.0000
vn -0.0000 0.0000 1.0000
vn -0.0000 0.0000 1.0000
vn -0.0000 0.0000 1.0000
vn -0.0000 0.0000 1.0000
vn -0.0000 0.0000 1.0000
vn -0.0000 0.0000 1.0000
vn -0.0000 0.0000 1.0000
vn -0.0000 0.0000 1.0000
vn -0.0000 0.0000 1.0000
vn -0.0000 0.0000 1.0000
vn -0.0000 0.0000 1.0000
vn -0.0000 0.0000 1.0000
vn -0.0000 0.0000 1.0000
vn -0.0000 0.0000 1.0000
vn -0.0000 0.0000 1.0000
vn -0.0000 0.0000 1.0000
vn -0.0000 0.0000 1.0000
vn -0.0000 0.0000 1.0000
vn -0.0000 0.0000 1.0000
vn -0.0000 0.0000 1.0000
vn -0.0000 -1.0000 0.0000
vn -0.0000 -1.0000 0.0000
vn -0.0000 -1.0000 0.0000
vn -0.9528 0.2913 0.0000
vn -0.9528 0.2913 0.0000
vn -0.9528 0.2913 0.0000
vn -0.9528 0.2913 0.0000
vn -0.9921 0.1260 0.0000
vn -0.9685 0.2598 0.0000
vn -0.9685 0.2598 0.0000
vn -0.9921 0.1260 0.0000
vn -0.9685 0.2598 0.0000
vn -0.9921 0.1260 0.0000
vn -0.9134 0.4094 0.0000
vn -0.9134 0.4094 0.0000
vn -0.9134 0.4094 0.0000
vn -0.9843 0.1890 0.0000
vn -0.9843 0.1890 0.0000
vn -0.9843 0.1890 0.0000
vn -0.9843 -0.1654 0.0000
vn -0.9843 -0.1654 0.0000
vn -0.9843 -0.1654 0.0000
vn -0.7717 -0.6378 0.0000
vn -0.7717 -0.6378 0.0000
vn -0.7717 -0.6378 0.0000
vn -1.0000 0.0000 0.0000
vn -1.0000 0.0000 0.0000
vn -1.0000 0.0000 0.0000
vn -1.0000 0.0000 0.0000
vn -1.0000 0.0000 0.0000
vn -1.0000 0.0000 0.0000
vn -1.0000 0.0000 0.0000
vn -1.0000 0.0000 0.0000
vn -0.9606 0.2677 0.0000
vn -0.9921 0.1339 0.0000
vn -0.9921 0.1339 0.0000
vn -0.9606 0.2677 0.0000
vn -0.9606 0.2677 0.0000
vn -1.0000 0.0000 0.0000
vn -0.9921 0.1339 0.0000
vn -1.0000 0.0000 0.0000
vn -1.0000 0.0000 0.0000
vn -0.7717 -0.6378 0.0000
vn -0.7717 -0.6378 0.0000
vn -0.4961 -0.8661 0.0000
vn -0.7717 -0.6378 0.0000
vn -0.4961 -0.8661 0.0000
vn -0.4331 -0.9055 0.0000
vn -0.4331 -0.9055 0.0000
vn -0.0945 -0.9921 0.0000
vn -0.0945 -0.9921 0.0000
vn -0.0945 -0.9921 0.0000
vn -0.0945 -0.9921 0.0000
vn -0.0945 -0.9921 0.0000
vn -0.0945 -0.9921 0.0000
vn -0.0000 -1.0000 0.0000
vn -0.0000 -1.0000 0.0000
vn -0.0000 -1.0000 0.0000
vn -0.0000 -1.0000 0.0000
vn -0.0000 -1.0000 0.0000
vn -0.0000 -1.0000 0.0000
vn -0.0000 -1.0000 0.0000
vn -0.0000 -1.0000 0.0000
vn -0.0000 -1.0000 0.0000
vn -0.0000 -1.0000 0.0000
vn -0.0000 -1.0000 0.0000
vn -0.0000 -1.0000 0.0000
vn -0.0000 -1.0000 0.0000
vn -0.0000 -1.0000 0.0000
vn -0.0000 -1.0000 0.0000
vn -0.0000 -1.0000 0.0000
vn -0.0000 0.2362 -0.9685
vn -0.0000 0.2362 -0.9685
vn -0.0000 0.2520 -0.9685
vn -0.0000 0.3307 -0.9449
vn -0.0000 0.1260 -0.9921
vn -0.0000 0.1260 -0.9921
vn -0.0000 0.2362 -0.9685
vn -0.0000 0.1260 -0.9921
vn -0.0000 0.2047 -0.9764
vn -0.0000 0.0315 -1.0000
vn -0.0000 0.0315 -1.0000
vn -0.0000 0.0000 -1.0000
vn -0.0000 0.0000 -1.0000
vn -0.0000 0.0000 -1.0000
vn -0.0000 0.0000 -1.0000
vn -0.0000 0.0000 -1.0000
vn -0.0000 0.0000 -1.0000
vn -0.0000 0.0000 -1.0000
vn -0.0000 0.0000 -1.0000
vn -0.0000 0.0000 -1.0000
vn -0.0000 0.0000 -1.0000
vn -0.0000 0.0000 -1.0000
vn -0.0000 0.0000 -1.0000
vn -0.0000 0.0000 -1.0000
vn -0.0000 0.0000 -1.0000
vn -0.0000 0.0000 -1.0000
vn -0.0000 0.0000 -1.0000
vn -0.0000 0.0000 -1.0000
vn -0.0000 0.0000 -1.0000
vn -0.0000 0.0000 -1.0000
vn -0.0000 0.0000 -1.0000
vn -0.0000 0.0000 -1.0000
vn -0.0000 0.0000 -1.0000
vn -0.0000 0.0000 -1.0000
vn -0.0000 0.0000 -1.0000
vn -0.0000 0.0000 -1.0000
vn -0.0000 0.0000 -1.0000
vn 0.9843 -0.1890 0.0000
vn 0.9843 -0.1890 0.0000
vn 0.9921 -0.0945 0.0000
vn 0.9921 -0.0945 0.0000
vn 0.9291 -0.3622 0.0000
vn 0.9291 -0.3622 0.0000
vn 0.8976 -0.4331 0.0000
vn 0.8976 -0.4331 0.0000
vn 0.9606 -0.2835 0.0000
vn 0.9606 -0.2835 0.0000
vn 0.9921 -0.1339 0.0000
vn 0.9921 -0.1339 0.0000
vn 0.0315 1.0000 0.0000
vn 0.0315 1.0000 0.0000
vn 0.0315 1.0000 0.0000
vn 0.0315 1.0000 0.0000
vn -0.0000 1.0000 0.0000
vn -0.4094 0.9134 0.0000
vn -0.4094 0.9134 0.0000
vn -0.0000 1.0000 0.0000
vn -0.0000 0.0000 1.0000
vn -0.0000 0.0000 1.0000
vn -0.0000 0.0000 1.0000
vn -0.0000 0.0000 1.0000
vn -0.0000 0.0000 1.0000
vn -0.0000 0.0000 1.0000
vn -0.0000 0.0000 1.0000
vn -0.0000 0.0000 1.0000
vn -0.0000 0.0000 1.0000
vn -0.0000 0.0000 1.0000
vn -0.0000 0.0000 1.0000
vn -0.0000 0.0000 1.0000
vn -0.0000 0.0000 1.0000
vn -0.0000 0.0000 1.0000
vn -0.0000 0.0000 1.0000
vn -0.0000 0.0000 1.0000
vn -0.9134 0.4094 0.0000
vn -0.9134 0.4094 0.0000
vn -0.9213 0.3858 0.0000
vn -0.9213 0.3858 0.0000
vn -0.9685 0.2441 0.0000
vn -0.9685 0.2441 0.0000
vn -0.9921 0.1181 0.0000
vn -0.9921 0.1181 0.0000
vn -0.9685 0.2520 0.0000
vn -0.9843 0.1811 0.0000
vn -0.9843 0.1811 0.0000
vn -0.9685 0.2520 0.0000
vn -0.4094 0.9134 0.0000
vn -0.4094 0.9134 0.0000
vn -0.0630 -1.0000 0.0000
vn -0.0000 -1.0000 0.0000
vn -0.0000 -1.0000 0.0000
vn -0.0630 -1.0000 0.0000
vn -0.1260 -0.9921 0.0000
vn -0.1260 -0.9921 0.0000
vn -0.0000 0.0000 -1.0000
vn -0.0000 0.0000 -1.0000
vn -0.0000 0.0000 -1.0000
vn -0.0000 0.0000 -1.0000
vn -0.0000 0.0000 -1.0000
vn -0.0000 0.0000 -1.0000
vn -0.0000 0.0000 -1.0000
vn -0.0000 0.0000 -1.0000
vn -0.0000 0.0000 -1.0000
vn -0.0000 0.0000 -1.0000
vn -0.0000 0.0000 -1.0000
vn -0.0000 0.0000 -1.0000
vn -0.0000 0.0000 -1.0000
vn -0.0000 0.0000 -1.0000
vn -0.0000 0.0000 -1.0000
vn -0.0000 0.0000 -1.0000
vn 0.9921 0.1024 -0.0315
vn 0.6693 0.5669 -0.4724
vn 0.6299 0.7402 -0.2283
vn 1.0000 0.0551 -0.0472
vn 0.7244 -0.6535 0.2047
vn 0.6693 0.0630 -0.7402
vn 0.7402 -0.5118 0.4331
vn 1.0000 0.0079 -0.0709
vn 0.7480 -0.0551 0.6614
vn 0.7402 0.4331 0.5118
vn 1.0000 -0.0472 -0.0551
vn 0.7323 0.6063 0.3150
vn 0.9921 -0.0945 -0.0472
vn 0.6693 -0.4803 -0.5669
vn 0.6299 -0.6929 -0.3543
vn -0.6693 0.5669 -0.4724
vn -0.0000 0.9528 -0.2992
vn -0.0000 0.7638 -0.6378
vn -0.6299 0.7402 -0.2283
vn 0.6693 0.5669 -0.4724
vn 0.6299 0.7402 -0.2283
vn 0.7323 0.6063 0.3150
vn 0.7402 0.4331 0.5118
vn -0.0000 0.6378 0.7717
vn -0.0000 0.8819 0.4646
vn -0.7323 0.6063 0.3150
vn -0.7402 0.4331 0.5118
vn -0.0000 -0.7638 0.6457
vn 0.7480 -0.0551 0.6614
vn 0.7402 -0.5118 0.4331
vn -0.0000 -0.0866 1.0000
vn -0.7480 -0.0551 0.6614
vn -0.7402 -0.5118 0.4331
vn -0.0000 0.6378 0.7717
vn 0.7402 0.4331 0.5118
vn -0.7402 0.4331 0.5118
vn -0.6693 0.5669 -0.4724
vn -0.9921 0.1024 -0.0315
vn -0.6299 0.7402 -0.2283
vn -1.0000 0.0551 -0.0472
vn -0.7323 -0.6535 0.2047
vn -0.6693 0.0630 -0.7402
vn -0.7402 -0.5118 0.4331
vn -0.6693 -0.4803 -0.5669
vn -0.6299 -0.6929 -0.3543
vn -0.9921 -0.0945 -0.0472
vn -1.0000 -0.0472 -0.0551
vn -0.7323 0.6063 0.3150
vn -1.0000 0.0079 -0.0709
vn -0.7480 -0.0551 0.6614
vn -0.7402 0.4331 0.5118
vn -0.0000 -0.7638 0.6457
vn -0.7323 -0.6535 0.2047
vn -0.7402 -0.5118 0.4331
vn 0.7244 -0.6535 0.2047
vn 0.7402 -0.5118 0.4331
vn -0.0000 -0.9528 0.3071
vn 0.6693 -0.4803 -0.5669
vn 0.6299 -0.6929 -0.3543
vn -0.0000 -0.8898 -0.4567
vn -0.0000 -0.6457 -0.7638
vn -0.6693 -0.4803 -0.5669
vn -0.6299 -0.6929 -0.3543
vn -0.0000 0.0866 -1.0000
vn -0.6693 0.5669 -0.4724
vn -0.0000 0.7638 -0.6378
vn 0.6693 0.5669 -0.4724
vn -0.6693 0.0630 -0.7402
vn 0.6693 0.0630 -0.7402
vn 0.6693 -0.4803 -0.5669
vn -0.0000 -0.6457 -0.7638
vn -0.6693 -0.4803 -0.5669
vn 0.9764 0.0157 -0.1968
vn 0.6929 0.7087 -0.1417
vn 0.6929 0.7087 -0.1417
vn 0.6929 -0.6693 -0.2598
vn 0.6929 -0.6693 -0.2598
vn 0.9764 0.0157 -0.1968
vn -0.0000 0.9921 -0.1181
vn -0.6929 0.7087 -0.1417
vn -0.6929 0.7087 -0.1417
vn -0.0000 0.9921 -0.1181
vn 0.6929 0.7087 -0.1417
vn 0.6929 0.7087 -0.1417
vn -0.6929 0.7087 -0.1417
vn -0.9764 0.0157 -0.1968
vn -0.9764 0.0157 -0.1968
vn -0.6929 -0.6693 -0.2598
vn -0.6929 0.7087 -0.1417
vn -0.6929 -0.6693 -0.2598
vn -0.6929 -0.6693 -0.2598
vn -0.0000 -0.9606 -0.2835
vn -0.6929 -0.6693 -0.2598
vn -0.0000 -0.9606 -0.2835
vn 0.6929 -0.6693 -0.2598
vn 0.6929 -0.6693 -0.2598
vn 0.6299 -0.5906 -0.4961
vn 0.8976 0.0394 -0.4409
vn 0.8976 0.0394 -0.4409
vn 0.6299 0.6693 -0.3858
vn 0.6299 -0.5906 -0.4961
vn 0.6299 0.6693 -0.3858
vn 0.9921 0.0157 -0.1417
vn 0.7008 0.7087 -0.0787
vn 0.7008 0.7087 -0.0787
vn 0.9921 0.0157 -0.1417
vn 0.7008 -0.6850 -0.2047
vn 0.7008 -0.6850 -0.2047
vn -0.0000 0.9291 -0.3622
vn 0.6299 0.6693 -0.3858
vn 0.6299 0.6693 -0.3858
vn -0.0000 0.9291 -0.3622
vn -0.6299 0.6693 -0.3858
vn -0.6299 0.6693 -0.3858
vn -0.7008 0.7087 -0.0787
vn -0.0000 1.0000 -0.0551
vn -0.0000 1.0000 -0.0551
vn 0.7008 0.7087 -0.0787
vn -0.7008 0.7087 -0.0787
vn 0.7008 0.7087 -0.0787
vn -0.8976 0.0394 -0.4409
vn -0.6299 -0.5906 -0.4961
vn -0.6299 -0.5906 -0.4961
vn -0.6299 0.6693 -0.3858
vn -0.6299 0.6693 -0.3858
vn -0.8976 0.0394 -0.4409
vn -0.7008 0.7087 -0.0787
vn -0.9921 0.0157 -0.1417
vn -0.7008 0.7087 -0.0787
vn -0.9921 0.0157 -0.1417
vn -0.7008 -0.6850 -0.2047
vn -0.7008 -0.6850 -0.2047
vn -0.0000 -0.8504 -0.5197
vn 0.6299 -0.5906 -0.4961
vn 0.6299 -0.5906 -0.4961
vn -0.0000 -0.8504 -0.5197
vn -0.6299 -0.5906 -0.4961
vn -0.6299 -0.5906 -0.4961
vn -0.7008 -0.6850 -0.2047
vn -0.0000 -0.9764 -0.2283
vn -0.7008 -0.6850 -0.2047
vn 0.7008 -0.6850 -0.2047
vn 0.7008 -0.6850 -0.2047
vn -0.0000 -0.9764 -0.2283
vn -0.0000 0.0866 -1.0000
vn -0.0000 0.0866 -1.0000
vn -0.0000 0.0866 -1.0000
vn -0.0000 0.0866 -1.0000
vn -0.0000 0.0866 -1.0000
vn -0.0000 0.0866 -1.0000
vn -0.0000 0.0866 -1.0000
vn -0.0000 0.0866 -1.0000
vn 0.9843 0.1654 0.0000
vn 1.0000 0.0551 0.0000
vn 1.0000 0.0787 0.0000
vn 0.9843 0.1654 0.0000
vn 1.0000 0.0000 0.0000
vn 1.0000 0.0000 0.0000
vn 1.0000 0.0000 0.0000
vn 1.0000 0.0551 0.0000
vn 1.0000 0.0000 0.0000
vn 1.0000 0.0787 0.0000
vn 0.9843 0.1654 0.0000
vn 0.9843 0.1654 0.0000
vn -0.0000 1.0000 0.0000
vn -0.0000 1.0000 0.0000
vn -0.0000 1.0000 0.0000
vn -0.0000 1.0000 0.0000
vn -0.0000 1.0000 0.0000
vn -0.0000 1.0000 0.0000
vn -0.0000 1.0000 0.0000
vn -0.0000 1.0000 0.0000
vn -0.0000 1.0000 0.0000
vn -0.0000 1.0000 0.0000
vn -0.0000 1.0000 0.0000
vn -0.0000 1.0000 0.0000
vn -0.0000 1.0000 0.0000
vn -0.0000 1.0000 0.0000
vn -0.0000 0.1417 0.9921
vn -0.0000 0.1417 0.9921
vn -0.0000 0.2913 0.9606
vn -0.0000 0.2913 0.9606
vn -0.0000 0.0000 1.0000
vn -0.0000 0.0000 1.0000
vn -0.0000 0.0000 1.0000
vn -0.0000 0.0000 1.0000
vn -0.0000 0.0000 1.0000
vn -0.0000 0.0000 1.0000
vn -0.0000 0.0394 1.0000
vn -0.0000 0.0394 1.0000
vn -0.0000 0.0394 1.0000
vn -0.0000 0.0394 1.0000
vn -0.9843 0.1654 0.0000
vn -1.0000 0.0787 0.0000
vn -1.0000 0.0551 0.0000
vn -0.9843 0.1654 0.0000
vn -1.0000 0.0000 0.0000
vn -1.0000 0.0000 0.0000
vn -1.0000 0.0000 0.0000
vn -1.0000 0.0551 0.0000
vn -1.0000 0.0000 0.0000
vn -1.0000 0.0787 0.0000
vn -0.9843 0.1654 0.0000
vn -0.9843 0.1654 0.0000
vn -0.0000 -1.0000 0.0000
vn -0.0000 -1.0000 0.0000
vn -0.0000 -1.0000 0.0000
vn -0.0000 -1.0000 0.0000
vn -0.0000 -1.0000 0.0000
vn -0.0000 -1.0000 0.0000
vn -0.0000 0.1417 -0.9921
vn -0.0000 0.2913 -0.9606
vn -0.0000 0.2913 -0.9606
vn -0.0000 0.1417 -0.9921
vn -0.0000 0.0000 -1.0000
vn -0.0000 0.0000 -1.0000
vn -0.0000 0.0394 -1.0000
vn -0.0000 0.0394 -1.0000
vn -0.0000 0.0394 -1.0000
vn -0.0000 0.0394 -1.0000
usemtl Meshpart1Mtl
f 1/1/1 2/2/2 3/3/3
f 3/3/3 2/2/2 4/4/4
f 5/5/5 6/6/6 7/7/7
f 6/6/6 5/5/5 8/8/8
f 9/9/9 10/10/10 11/11/11
f 9/9/9 11/11/11 12/12/12
f 13/13/13 14/14/14 15/15/15
f 15/15/15 16/16/16 13/13/13
f 17/17/17 18/18/18 19/19/19
f 18/18/18 17/17/17 20/20/20
f 21/21/21 22/22/22 23/23/23
f 22/22/22 21/21/21 24/24/24
f 25/25/25 26/26/26 27/27/27
f 26/26/26 25/25/25 28/28/28
f 29/29/29 30/30/30 31/31/31
f 31/31/31 32/32/32 29/29/29
f 33/33/33 34/34/34 35/35/35
f 35/35/35 34/34/34 36/36/36
f 37/37/37 38/38/38 39/39/39
f 40/40/40 39/39/39 38/38/38
f 41/41/41 42/42/42 43/43/43
f 41/41/41 43/43/43 44/44/44
f 45/45/45 46/46/46 47/47/47
f 46/46/46 45/45/45 48/48/48
f 49/49/49 50/50/50 51/51/51
f 50/50/50 52/52/52 51/51/51
f 53/53/53 54/54/54 55/55/55
f 54/54/54 53/53/53 56/56/56
usemtl Meshpart4Mtl
f 57/57/57 58/58/58 59/59/59
f 60/60/60 59/59/59 58/58/58
f 59/59/59 60/60/60 61/61/61
f 58/58/58 57/57/57 62/62/62
f 63/63/63 62/62/62 57/57/57
f 62/62/62 63/63/63 64/64/64
f 64/64/64 65/65/65 62/62/62
f 62/62/62 65/65/65 66/66/66
f 58/58/58 62/62/62 66/66/66
f 58/58/58 66/66/66 67/67/67
f 67/67/67 60/60/60 58/58/58
f 60/60/60 67/67/67 68/68/68
f 69/69/69 60/60/60 68/68/68
f 60/60/60 69/69/69 70/70/70
f 70/70/70 61/61/61 60/60/60
f 61/61/61 70/70/70 71/71/71
f 72/72/72 73/73/73 74/74/74
f 74/74/74 73/73/73 75/75/75
f 76/76/76 77/77/77 78/78/78
f 77/77/77 79/79/79 78/78/78
f 80/80/80 77/77/77 76/76/76
f 81/81/81 80/80/80 76/76/76
f 80/80/80 82/82/82 77/77/77
f 77/77/77 83/83/83 79/79/79
f 82/82/82 83/83/83 77/77/77
f 83/83/83 84/84/84 79/79/79
f 82/82/82 85/85/85 83/83/83
f 83/83/83 86/86/86 84/84/84
f 85/85/85 86/86/86 83/83/83
f 86/86/86 87/87/87 84/84/84
f 85/85/85 88/88/88 86/86/86
f 86/86/86 89/89/89 87/87/87
f 88/88/88 89/89/89 86/86/86
f 89/89/89 90/90/90 87/87/87
f 89/89/89 88/88/88 91/91/91
f 90/90/90 89/89/89 92/92/92
f 91/91/91 92/92/92 89/89/89
f 91/91/91 93/93/93 92/92/92
f 92/92/92 94/94/94 90/90/90
f 93/93/93 95/95/95 92/92/92
f 92/92/92 95/95/95 94/94/94
f 95/95/95 96/96/96 94/94/94
f 97/97/97 98/98/98 99/99/99
f 98/98/98 97/97/97 100/100/100
f 101/101/101 100/100/100 97/97/97
f 100/100/100 102/102/102 98/98/98
f 100/100/100 101/101/101 103/103/103
f 102/102/102 100/100/100 104/104/104
f 103/103/103 104/104/104 100/100/100
f 104/104/104 103/103/103 105/105/105
f 106/106/106 107/107/107 108/108/108
f 106/106/106 108/108/108 109/109/109
f 110/110/110 111/111/111 112/112/112
f 113/113/113 112/112/112 111/111/111
f 114/114/114 112/112/112 113/113/113
f 114/114/114 115/115/115 112/112/112
f 116/116/116 112/112/112 115/115/115
f 117/117/117 110/110/110 112/112/112
f 112/112/112 116/116/116 117/117/117
f 118/118/118 117/117/117 116/116/116
f 110/110/110 117/117/117 119/119/119
f 117/117/117 118/118/118 120/120/120
f 120/120/120 119/119/119 117/117/117
f 119/119/119 120/120/120 121/121/121
f 122/122/122 123/123/123 124/124/124
f 123/123/123 125/125/125 126/126/126
f 123/123/123 127/127/127 125/125/125
f 123/123/123 122/122/122 127/127/127
f 127/127/127 128/128/128 125/125/125
f 127/127/127 129/129/129 128/128/128
f 127/127/127 130/130/130 129/129/129
f 130/130/130 127/127/127 122/122/122
f 122/122/122 131/131/131 130/130/130
f 131/131/131 122/122/122 132/132/132
f 132/132/132 133/133/133 131/131/131
f 133/133/133 132/132/132 134/134/134
f 135/135/135 136/136/136 137/137/137
f 138/138/138 137/137/137 136/136/136
f 139/139/139 140/140/140 141/141/141
f 140/140/140 139/139/139 142/142/142
f 142/142/142 143/143/143 140/140/140
f 143/143/143 142/142/142 144/144/144
f 144/144/144 145/145/145 143/143/143
f 145/145/145 144/144/144 146/146/146
f 146/146/146 147/147/147 145/145/145
f 145/145/145 147/147/147 148/148/148
f 147/147/147 146/146/146 149/149/149
f 147/147/147 150/150/150 148/148/148
f 149/149/149 151/151/151 147/147/147
f 151/151/151 150/150/150 147/147/147
f 151/151/151 149/149/149 152/152/152
f 151/151/151 152/152/152 153/153/153
f 151/151/151 153/153/153 154/154/154
f 150/150/150 151/151/151 155/155/155
f 151/151/151 154/154/154 156/156/156
f 155/155/155 151/151/151 156/156/156
f 155/155/155 156/156/156 157/157/157
f 158/158/158 155/155/155 157/157/157
f 159/159/159 160/160/160 161/161/161
f 162/162/162 163/163/163 164/164/164
f 164/164/164 163/163/163 165/165/165
f 166/166/166 167/167/167 168/168/168
f 167/167/167 166/166/166 169/169/169
f 169/169/169 170/170/170 167/167/167
f 170/170/170 169/169/169 171/171/171
f 172/172/172 167/167/167 170/170/170
f 173/173/173 168/168/168 167/167/167
f 167/167/167 172/172/172 173/173/173
f 168/168/168 173/173/173 174/174/174
f 175/175/175 173/173/173 172/172/172
f 176/176/176 174/174/174 173/173/173
f 173/173/173 175/175/175 176/176/176
f 174/174/174 176/176/176 177/177/177
f 176/176/176 175/175/175 178/178/178
f 177/177/177 176/176/176 179/179/179
f 178/178/178 179/179/179 176/176/176
f 179/179/179 180/180/180 177/177/177
f 181/181/181 179/179/179 178/178/178
f 182/182/182 180/180/180 179/179/179
f 179/179/179 181/181/181 182/182/182
f 180/180/180 182/182/182 183/183/183
f 184/184/184 185/185/185 186/186/186
f 184/184/184 187/187/187 185/185/185
f 185/185/185 187/187/187 188/188/188
f 189/189/189 187/187/187 184/184/184
f 187/187/187 189/189/189 190/190/190
f 184/184/184 191/191/191 189/189/189
f 192/192/192 193/193/193 194/194/194
f 193/193/193 192/192/192 195/195/195
f 194/194/194 196/196/196 192/192/192
f 197/197/197 194/194/194 193/193/193
f 196/196/196 194/194/194 198/198/198
f 194/194/194 197/197/197 199/199/199
f 194/194/194 200/200/200 198/198/198
f 200/200/200 194/194/194 199/199/199
f 201/201/201 202/202/202 203/203/203
f 204/204/204 201/201/201 205/205/205
f 203/203/203 205/205/205 201/201/201
f 205/205/205 203/203/203 206/206/206
f 206/206/206 207/207/207 205/205/205
f 208/208/208 209/209/209 210/210/210
f 209/209/209 208/208/208 211/211/211
f 211/211/211 212/212/212 209/209/209
f 212/212/212 211/211/211 213/213/213
f 214/214/214 215/215/215 216/216/216
f 214/214/214 216/216/216 217/217/217
f 218/218/218 219/219/219 220/220/220
f 218/218/218 220/220/220 221/221/221
f 221/221/221 220/220/220 222/222/222
f 221/221/221 222/222/222 223/223/223
f 224/224/224 225/225/225 226/226/226
f 225/225/225 224/224/224 227/227/227
f 228/228/228 224/224/224 226/226/226
f 228/228/228 229/229/229 224/224/224
f 230/230/230 231/231/231 232/232/232
f 230/230/230 232/232/232 233/233/233
f 234/234/234 231/231/231 230/230/230
f 234/234/234 235/235/235 231/231/231
f 235/235/235 236/236/236 231/231/231
f 235/235/235 237/237/237 236/236/236
f 231/231/231 236/236/236 238/238/238
f 231/231/231 238/238/238 232/232/232
f 238/238/238 239/239/239 232/232/232
f 232/232/232 239/239/239 240/240/240
f 240/240/240 239/239/239 241/241/241
f 240/240/240 241/241/241 242/242/242
f 243/243/243 244/244/244 245/245/245
f 244/244/244 243/243/243 246/246/246
f 247/247/247 248/248/248 249/249/249
f 248/248/248 247/247/247 250/250/250
f 251/251/251 249/249/249 248/248/248
f 249/249/249 251/251/251 252/252/252
f 253/253/253 252/252/252 251/251/251
f 252/252/252 253/253/253 254/254/254
f 255/255/255 254/254/254 253/253/253
f 253/253/253 256/256/256 255/255/255
f 255/255/255 257/257/257 254/254/254
f 258/258/258 255/255/255 256/256/256
f 259/259/259 257/257/257 255/255/255
f 255/255/255 258/258/258 259/259/259
f 257/257/257 259/259/259 260/260/260
f 259/259/259 261/261/261 260/260/260
f 261/261/261 259/259/259 262/262/262
f 263/263/263 259/259/259 258/258/258
f 259/259/259 264/264/264 262/262/262
f 264/264/264 259/259/259 263/263/263
f 263/263/263 265/265/265 264/264/264
f 265/265/265 263/263/263 266/266/266
usemtl Meshpart1Mtl
f 267/267/267 268/268/268 269/269/269
f 269/269/269 268/268/268 270/270/270
f 267/267/267 271/271/271 268/268/268
f 272/272/272 271/271/271 267/267/267
f 272/272/272 273/273/273 271/271/271
f 274/274/274 273/273/273 272/272/272
f 274/274/274 275/275/275 273/273/273
f 276/276/276 275/275/275 274/274/274
f 276/276/276 277/277/277 275/275/275
f 278/278/278 277/277/277 276/276/276
f 279/279/279 280/280/280 281/281/281
f 279/279/279 281/281/281 282/282/282
f 283/283/283 284/284/284 285/285/285
f 284/284/284 283/283/283 286/286/286
f 287/287/287 288/288/288 289/289/289
f 290/290/290 291/291/291 287/287/287
f 287/287/287 292/292/292 290/290/290
f 287/287/287 289/289/289 292/292/292
f 293/293/293 290/290/290 292/292/292
f 289/289/289 294/294/294 292/292/292
f 292/292/292 294/294/294 293/293/293
f 295/295/295 293/293/293 294/294/294
f 294/294/294 289/289/289 296/296/296
f 294/294/294 297/297/297 295/295/295
f 296/296/296 297/297/297 294/294/294
f 297/297/297 296/296/296 298/298/298
f 298/298/298 299/299/299 297/297/297
f 299/299/299 298/298/298 300/300/300
f 300/300/300 301/301/301 299/299/299
f 301/301/301 300/300/300 302/302/302
f 303/303/303 304/304/304 305/305/305
f 305/305/305 306/306/306 303/303/303
f 306/306/306 305/305/305 307/307/307
f 307/307/307 308/308/308 306/306/306
f 309/309/309 308/308/308 307/307/307
f 308/308/308 309/309/309 310/310/310
f 311/311/311 312/312/312 313/313/313
f 312/312/312 311/311/311 314/314/314
f 314/314/314 311/311/311 315/315/315
f 315/315/315 316/316/316 314/314/314
f 317/317/317 318/318/318 319/319/319
f 318/318/318 317/317/317 320/320/320
f 321/321/321 320/320/320 317/317/317
f 320/320/320 321/321/321 322/322/322
f 323/323/323 324/324/324 325/325/325
f 324/324/324 323/323/323 326/326/326
f 324/324/324 327/327/327 325/325/325
f 327/327/327 324/324/324 328/328/328
f 329/329/329 325/325/325 327/327/327
f 330/330/330 323/323/323 325/325/325
f 325/325/325 329/329/329 330/330/330
f 331/331/331 330/330/330 329/329/329
f 323/323/323 330/330/330 332/332/332
f 330/330/330 331/331/331 333/333/333
f 333/333/333 332/332/332 330/330/330
f 332/332/332 333/333/333 334/334/334
f 335/335/335 334/334/334 333/333/333
f 334/334/334 335/335/335 336/336/336
f 337/337/337 336/336/336 335/335/335
f 336/336/336 337/337/337 338/338/338
usemtl Meshpart3Mtl
f 339/339/339 340/340/340 341/341/341
f 340/340/340 339/339/339 342/342/342
f 343/343/343 342/342/342 339/339/339
f 344/344/344 340/340/340 342/342/342
f 342/342/342 343/343/343 345/345/345
f 346/346/346 342/342/342 345/345/345
f 344/344/344 342/342/342 346/346/346
f 346/346/346 345/345/345 347/347/347
f 348/348/348 346/346/346 347/347/347
f 349/349/349 344/344/344 346/346/346
f 346/346/346 348/348/348 349/349/349
f 350/350/350 349/349/349 348/348/348
f 349/349/349 350/350/350 351/351/351
f 344/344/344 349/349/349 352/352/352
f 351/351/351 352/352/352 349/349/349
f 352/352/352 351/351/351 353/353/353
f 354/354/354 355/355/355 356/356/356
f 355/355/355 354/354/354 357/357/357
f 355/355/355 358/358/358 356/356/356
f 358/358/358 355/355/355 359/359/359
f 360/360/360 361/361/361 362/362/362
f 362/362/362 363/363/363 360/360/360
f 362/362/362 364/364/364 363/363/363
f 364/364/364 362/362/362 365/365/365
f 366/366/366 367/367/367 368/368/368
f 367/367/367 366/366/366 369/369/369
f 370/370/370 366/366/366 371/371/371
f 366/366/366 370/370/370 369/369/369
f 372/372/372 367/367/367 369/369/369
f 370/370/370 372/372/372 369/369/369
f 367/367/367 372/372/372 373/373/373
f 372/372/372 370/370/370 374/374/374
f 375/375/375 376/376/376 377/377/377
f 376/376/376 375/375/375 378/378/378
f 378/378/378 379/379/379 376/376/376
f 380/380/380 378/378/378 375/375/375
f 379/379/379 378/378/378 381/381/381
f 382/382/382 383/383/383 384/384/384
f 382/382/382 384/384/384 385/385/385
f 385/385/385 380/380/380 382/382/382
f 385/385/385 384/384/384 386/386/386
f 380/380/380 385/385/385 387/387/387
f 378/378/378 380/380/380 387/387/387
f 387/387/387 381/381/381 378/378/378
f 381/381/381 387/387/387 388/388/388
f 389/389/389 387/387/387 385/385/385
f 385/385/385 386/386/386 389/389/389
f 387/387/387 389/389/389 388/388/388
f 390/390/390 391/391/391 392/392/392
f 393/393/393 390/390/390 394/394/394
f 391/391/391 390/390/390 395/395/395
f 390/390/390 393/393/393 395/395/395
f 396/396/396 397/397/397 398/398/398
f 398/398/398 399/399/399 396/396/396
f 398/398/398 400/400/400 399/399/399
f 400/400/400 398/398/398 401/401/401
f 402/402/402 403/403/403 404/404/404
f 402/402/402 404/404/404 405/405/405
f 403/403/403 402/402/402 406/406/406
f 405/405/405 407/407/407 402/402/402
f 408/408/408 402/402/402 407/407/407
f 402/402/402 408/408/408 409/409/409
f 402/402/402 409/409/409 410/410/410
f 410/410/410 406/406/406 402/402/402
f 411/411/411 412/412/412 413/413/413
f 414/414/414 411/411/411 415/415/415
f 412/412/412 411/411/411 416/416/416
f 414/414/414 416/416/416 411/411/411
f 417/417/417 418/418/418 419/419/419
f 418/418/418 417/417/417 420/420/420
f 421/421/421 420/420/420 417/417/417
f 421/421/421 417/417/417 422/422/422
f 423/423/423 424/424/424 425/425/425
f 426/426/426 425/425/425 424/424/424
f 423/423/423 425/425/425 427/427/427
f 425/425/425 426/426/426 428/428/428
f 429/429/429 430/430/430 431/431/431
f 429/429/429 432/432/432 430/430/430
f 433/433/433 430/430/430 432/432/432
f 430/430/430 433/433/433 434/434/434
usemtl Meshpart1Mtl
f 435/435/435 436/436/436 437/437/437
f 438/438/438 437/437/437 436/436/436
f 437/437/437 439/439/439 435/435/435
f 437/437/437 438/438/438 440/440/440
f 441/441/441 442/442/442 443/443/443
f 442/442/442 441/441/441 444/444/444
f 441/441/441 445/445/445 444/444/444
f 445/445/445 441/441/441 446/446/446
f 447/447/447 448/448/448 449/449/449
f 449/449/449 450/450/450 447/447/447
f 451/451/451 447/447/447 450/450/450
f 447/447/447 451/451/451 452/452/452
f 453/453/453 454/454/454 455/455/455
f 454/454/454 456/456/456 455/455/455
f 454/454/454 453/453/453 457/457/457
f 456/456/456 454/454/454 458/458/458
f 459/459/459 460/460/460 461/461/461
f 459/459/459 462/462/462 463/463/463
f 460/460/460 459/459/459 464/464/464
f 463/463/463 464/464/464 459/459/459
f 465/465/465 466/466/466 467/467/467
f 466/466/466 465/465/465 468/468/468
f 469/469/469 466/466/466 468/468/468
f 466/466/466 469/469/469 470/470/470
f 471/471/471 472/472/472 473/473/473
f 472/472/472 471/471/471 474/474/474
f 475/475/475 474/474/474 471/471/471
f 471/471/471 476/476/476 475/475/475
f 477/477/477 478/478/478 479/479/479
f 478/478/478 480/480/480 481/481/481
f 478/478/478 477/477/477 482/482/482
f 480/480/480 478/478/478 482/482/482
f 483/483/483 484/484/484 485/485/485
f 485/485/485 484/484/484 486/486/486
f 483/483/483 485/485/485 487/487/487
f 483/483/483 488/488/488 484/484/484
f 484/484/484 488/488/488 489/489/489
f 488/488/488 483/483/483 490/490/490
f 491/491/491 492/492/492 493/493/493
f 492/492/492 491/491/491 494/494/494
f 493/493/493 492/492/492 495/495/495
f 495/495/495 492/492/492 496/496/496
f 492/492/492 497/497/497 496/496/496
f 498/498/498 496/496/496 497/497/497
f 496/496/496 498/498/498 499/499/499
f 499/499/499 498/498/498 500/500/500
f 498/498/498 501/501/501 500/500/500
f 501/501/501 498/498/498 502/502/502
f 503/503/503 504/504/504 505/505/505
f 505/505/505 504/504/504 506/506/506
f 507/507/507 508/508/508 509/509/509
f 509/509/509 508/508/508 510/510/510
f 511/511/511 512/512/512 513/513/513
f 512/512/512 511/511/511 514/514/514
f 514/514/514 511/511/511 515/515/515
f 514/514/514 515/515/515 516/516/516
f 517/517/517 518/518/518 519/519/519
f 518/518/518 520/520/520 519/519/519
f 521/521/521 518/518/518 517/517/517
f 521/521/521 522/522/522 518/518/518
f 523/523/523 524/524/524 525/525/525
f 523/523/523 525/525/525 526/526/526
f 527/527/527 528/528/528 529/529/529
f 528/528/528 530/530/530 529/529/529
f 531/531/531 532/532/532 533/533/533
f 531/531/531 533/533/533 534/534/534
f 533/533/533 532/532/532 535/535/535
f 536/536/536 533/533/533 535/535/535
f 533/533/533 536/536/536 537/537/537
f 536/536/536 538/538/538 537/537/537
f 536/536/536 539/539/539 538/538/538
f 538/538/538 539/539/539 540/540/540
f 541/541/541 538/538/538 540/540/540
f 538/538/538 541/541/541 542/542/542
f 543/543/543 544/544/544 545/545/545
f 544/544/544 543/543/543 546/546/546
f 547/547/547 543/543/543 545/545/545
f 545/545/545 548/548/548 547/547/547
f 549/549/549 550/550/550 551/551/551
f 550/550/550 549/549/549 552/552/552
f 553/553/553 552/552/552 549/549/549
f 552/552/552 553/553/553 554/554/554
f 555/555/555 556/556/556 557/557/557
f 556/556/556 555/555/555 558/558/558
# bbox cage (invisible) - forces identical size/center on import
v -0.833333 -0.577875 -0.161462
v -0.832083 -0.577875 -0.161462
v -0.833333 -0.576625 -0.161462
v 0.964490 0.481333 0.161462
v 0.963240 0.481333 0.161462
v 0.964490 0.480083 0.161462
vn 0 1 0
vn 0 1 0
vn 0 1 0
vn 0 1 0
vn 0 1 0
vn 0 1 0
f 559//559 560//560 561//561
f 562//562 563//563 564//564
