# Deagle Bolts (slide) | length 4 | barrel -X up +Y
mtllib deeagle.mtl
g bolts
v 1.020833 0.387824 0.013930
v 1.020833 0.415152 -0.009497
v 1.020833 0.415152 0.002533
v 1.020833 0.442473 0.013930
v 1.020833 0.379333 0.005698
v 1.020833 0.450965 0.005698
v 1.020833 0.364497 0.041158
v 1.020833 0.465807 0.041158
v 1.020833 0.376508 0.041158
v 1.020833 0.453788 0.041158
v 1.020833 0.387824 0.069018
v 1.020833 0.442473 0.069018
v 1.020833 0.379333 0.077248
v 1.020833 0.450965 0.077248
v 1.020833 0.415152 0.091812
v 1.020833 0.415152 0.080414
v 0.988541 0.415152 0.080414
v 0.988541 0.453788 0.041158
v 0.988541 0.442473 0.069018
v 0.988541 0.376508 0.041158
v 0.988541 0.387824 0.069018
v 0.988541 0.415152 0.002533
v 0.988541 0.442473 0.013930
v 0.988541 0.387824 0.013930
v 0.957515 0.492761 0.050022
v 0.957515 0.480427 0.029127
v 0.957515 0.492761 0.032293
v 0.957515 0.480427 0.053821
v 0.895589 0.502171 0.035458
v 0.957515 0.492761 0.050022
v 0.957515 0.492761 0.032293
v 0.895589 0.502171 0.047489
v 1.020833 0.387824 0.069018
v 0.988541 0.376508 0.041158
v 0.988541 0.387824 0.069018
v 1.020833 0.376508 0.041158
v 0.988541 0.387824 0.013930
v 1.020833 0.387824 0.013930
v 0.856205 0.480427 0.029127
v 0.895589 0.502171 0.047489
v 0.895589 0.502171 0.035458
v 0.856205 0.480427 0.053821
v 1.020833 0.465807 0.041158
v 0.970178 0.450965 0.077248
v 1.020833 0.450965 0.077248
v 0.970178 0.465807 0.041158
v 1.020833 0.450965 0.005698
v 0.970178 0.450965 0.005698
v 0.830878 0.351833 0.041158
v 0.273677 0.333288 0.086112
v 0.830878 0.333288 0.086112
v 0.273677 0.351833 0.041158
v 0.830878 0.333288 -0.003166
v 0.273677 0.333288 -0.003166
v 1.020833 0.415152 0.002533
v 1.020833 0.442473 0.013930
v 0.988541 0.442473 0.013930
v 0.988541 0.415152 0.002533
v 1.020833 0.387824 0.013930
v 0.988541 0.387824 0.013930
v 0.957515 0.492761 0.050022
v 0.895589 0.502171 0.047489
v 0.957515 0.480427 0.053821
v 0.856205 0.480427 0.053821
v 0.970178 0.379333 0.077248
v 1.020833 0.379333 0.077248
v 1.020833 0.415152 0.091812
v 0.970178 0.415152 0.091812
v 1.020833 0.450965 0.077248
v 0.970178 0.450965 0.077248
v 0.273677 0.243743 0.086112
v 0.830878 0.243743 0.086112
v 0.830878 0.288515 0.104475
v 0.273677 0.288515 0.104475
v 0.830878 0.333288 0.086112
v 0.273677 0.333288 0.086112
v 0.988541 0.453788 0.041158
v 1.020833 0.453788 0.041158
v 0.988541 0.442473 0.069018
v 1.020833 0.442473 0.069018
v 1.020833 0.442473 0.013930
v 0.988541 0.442473 0.013930
v 0.970178 0.364497 0.041158
v 1.020833 0.379333 0.077248
v 0.970178 0.379333 0.077248
v 1.020833 0.364497 0.041158
v 0.970178 0.379333 0.005698
v 1.020833 0.379333 0.005698
v 0.856205 0.480427 0.029127
v 0.957515 0.480427 0.029127
v 0.957515 0.480427 0.053821
v 0.856205 0.480427 0.053821
v 0.273677 0.225197 0.041158
v 0.830878 0.243743 0.086112
v 0.273677 0.243743 0.086112
v 0.830878 0.225197 0.041158
v 0.273677 0.243743 -0.003166
v 0.830878 0.243743 -0.003166
v 0.988541 0.442473 0.069018
v 1.020833 0.442473 0.069018
v 0.988541 0.415152 0.080414
v 1.020833 0.415152 0.080414
v 0.988541 0.387824 0.069018
v 1.020833 0.387824 0.069018
v 0.957515 0.480427 0.029127
v 0.895589 0.502171 0.035458
v 0.957515 0.492761 0.032293
v 0.856205 0.480427 0.029127
v 0.970178 0.415152 -0.009497
v 1.020833 0.379333 0.005698
v 0.970178 0.379333 0.005698
v 1.020833 0.415152 -0.009497
v 0.970178 0.450965 0.005698
v 1.020833 0.450965 0.005698
v 0.273677 0.288515 -0.022161
v 0.830878 0.243743 -0.003166
v 0.273677 0.243743 -0.003166
v 0.830878 0.288515 -0.022161
v 0.273677 0.333288 -0.003166
v 0.830878 0.333288 -0.003166
v 0.979550 0.487088 0.041158
v 0.979550 0.473284 0.104475
v 0.979550 0.462590 0.041158
v 0.979550 0.447140 0.104475
v 0.979550 0.473284 -0.021528
v 0.979550 0.447140 -0.021528
v 0.840249 0.178411 0.041158
v 0.840249 0.157757 0.136134
v 0.840249 0.148297 0.041158
v 0.840249 0.178411 0.136134
v 0.840249 0.157757 -0.053188
v 0.840249 0.178411 -0.053188
v 0.726277 0.178411 0.041158
v 0.726277 0.157757 0.136134
v 0.726277 0.148297 0.041158
v 0.726277 0.178411 0.136134
v 0.726277 0.157757 -0.053188
v 0.726277 0.178411 -0.053188
v 0.726277 0.487088 0.041158
v 0.726277 0.473284 0.104475
v 0.726277 0.462590 0.041158
v 0.726277 0.447140 0.104475
v 0.726277 0.473284 -0.021528
v 0.726277 0.447140 -0.021528
v 0.771928 0.414385 0.041158
v 0.759392 0.438897 -0.030393
v 0.759392 0.439764 0.041158
v 0.759392 0.438897 0.113340
v 0.771928 0.414385 -0.032925
v 0.771928 0.414385 0.115873
v 0.612303 0.178411 0.041158
v 0.612303 0.157757 -0.053188
v 0.612303 0.178411 -0.053188
v 0.612303 0.148297 0.041158
v 0.612303 0.157757 0.136134
v 0.612303 0.178411 0.136134
v 0.612303 0.487088 0.041158
v 0.612303 0.473284 0.104475
v 0.612303 0.462590 0.041158
v 0.612303 0.447140 0.104475
v 0.612303 0.473284 -0.021528
v 0.612303 0.447140 -0.021528
v 0.759392 0.389002 0.041158
v 0.771928 0.414385 0.115873
v 0.759392 0.389868 0.122838
v 0.771928 0.414385 0.041158
v 0.771928 0.414385 -0.032925
v 0.759392 0.389868 -0.039891
v 0.498330 0.178411 0.041158
v 0.498330 0.157757 0.136134
v 0.498330 0.148297 0.041158
v 0.498330 0.178411 0.136134
v 0.498330 0.157757 -0.053188
v 0.498330 0.178411 -0.053188
v 0.498330 0.487088 0.041158
v 0.498330 0.473284 0.104475
v 0.498330 0.462590 0.041158
v 0.498330 0.447140 0.104475
v 0.498330 0.473284 -0.021528
v 0.498330 0.447140 -0.021528
v 0.384358 0.178411 0.041158
v 0.384358 0.157757 0.136134
v 0.384358 0.148297 0.041158
v 0.384358 0.178411 0.136134
v 0.384358 0.157757 -0.053188
v 0.384358 0.178411 -0.053188
v 0.384358 0.487088 0.041158
v 0.384358 0.473284 0.104475
v 0.384358 0.462590 0.041158
v 0.384358 0.447140 0.104475
v 0.384358 0.473284 -0.021528
v 0.384358 0.447140 -0.021528
v 0.664541 0.473284 0.104475
v 0.726277 0.487088 0.041158
v 0.664541 0.487088 0.041158
v 0.726277 0.473284 0.104475
v 0.726277 0.473284 -0.021528
v 0.664541 0.473284 -0.021528
v 0.550567 0.487088 0.041158
v 0.550567 0.473284 0.104475
v 0.612303 0.487088 0.041158
v 0.612303 0.473284 0.104475
v 0.612303 0.473284 -0.021528
v 0.550567 0.473284 -0.021528
v 0.436594 0.473284 0.104475
v 0.498330 0.487088 0.041158
v 0.436594 0.487088 0.041158
v 0.498330 0.473284 0.104475
v 0.498330 0.473284 -0.021528
v 0.436594 0.473284 -0.021528
v 0.322621 0.473284 0.104475
v 0.384358 0.487088 0.041158
v 0.322621 0.487088 0.041158
v 0.384358 0.473284 0.104475
v 0.384358 0.473284 -0.021528
v 0.322621 0.473284 -0.021528
v 0.979550 0.487088 0.041158
v 0.778514 0.487088 0.041158
v 0.778514 0.473284 0.104475
v 0.979550 0.473284 0.104475
v 0.979550 0.473284 -0.021528
v 0.778514 0.473284 -0.021528
v 0.759392 0.438897 -0.030393
v 0.290076 0.438897 -0.030393
v 0.290076 0.439764 0.041158
v 0.759392 0.439764 0.041158
v 0.290076 0.438897 0.113340
v 0.759392 0.438897 0.113340
v 0.726277 0.178411 0.136134
v 0.664541 0.157757 0.136134
v 0.726277 0.157757 0.136134
v 0.664541 0.178411 0.136134
v 0.322621 0.157757 0.136134
v 0.384358 0.157757 0.136134
v 0.384358 0.178411 0.136134
v 0.322621 0.178411 0.136134
v 0.612303 0.178411 0.136134
v 0.550567 0.157757 0.136134
v 0.612303 0.157757 0.136134
v 0.550567 0.178411 0.136134
v 0.498330 0.178411 0.136134
v 0.436594 0.157757 0.136134
v 0.498330 0.157757 0.136134
v 0.436594 0.178411 0.136134
v 0.778514 0.157757 0.136134
v 0.840249 0.157757 0.136134
v 0.840249 0.178411 0.136134
v 0.778514 0.178411 0.136134
v 0.759392 0.438897 0.113340
v 0.277602 0.414385 0.115873
v 0.771928 0.414385 0.115873
v 0.290076 0.438897 0.113340
v 0.759392 0.389868 0.122838
v 0.290076 0.389868 0.122838
v 0.726277 0.447140 0.104475
v 0.664541 0.473284 0.104475
v 0.664541 0.447140 0.104475
v 0.726277 0.473284 0.104475
v 0.612303 0.447140 0.104475
v 0.550567 0.473284 0.104475
v 0.550567 0.447140 0.104475
v 0.612303 0.473284 0.104475
v 0.498330 0.447140 0.104475
v 0.436594 0.473284 0.104475
v 0.436594 0.447140 0.104475
v 0.498330 0.473284 0.104475
v 0.384358 0.447140 0.104475
v 0.322621 0.473284 0.104475
v 0.322621 0.447140 0.104475
v 0.384358 0.473284 0.104475
v 0.979550 0.447140 0.104475
v 0.778514 0.473284 0.104475
v 0.778514 0.447140 0.104475
v 0.979550 0.473284 0.104475
v 0.322621 0.178411 0.041158
v 0.322621 0.178411 -0.053188
v 0.322621 0.157757 -0.053188
v 0.322621 0.148297 0.041158
v 0.322621 0.157757 0.136134
v 0.322621 0.178411 0.136134
v 0.322621 0.462590 0.041158
v 0.322621 0.473284 0.104475
v 0.322621 0.487088 0.041158
v 0.322621 0.447140 0.104475
v 0.322621 0.473284 -0.021528
v 0.322621 0.447140 -0.021528
v 0.436594 0.178411 0.041158
v 0.436594 0.178411 -0.053188
v 0.436594 0.157757 -0.053188
v 0.436594 0.148297 0.041158
v 0.436594 0.157757 0.136134
v 0.436594 0.178411 0.136134
v 0.436594 0.462590 0.041158
v 0.436594 0.473284 0.104475
v 0.436594 0.487088 0.041158
v 0.436594 0.447140 0.104475
v 0.436594 0.473284 -0.021528
v 0.436594 0.447140 -0.021528
v 0.277602 0.414385 -0.032925
v 0.277602 0.414385 0.041158
v 0.290076 0.438897 -0.030393
v 0.290076 0.439764 0.041158
v 0.290076 0.438897 0.113340
v 0.277602 0.414385 0.115873
v 0.550567 0.178411 0.041158
v 0.550567 0.178411 -0.053188
v 0.550567 0.157757 -0.053188
v 0.550567 0.148297 0.041158
v 0.550567 0.157757 0.136134
v 0.550567 0.178411 0.136134
v 0.550567 0.462590 0.041158
v 0.550567 0.473284 0.104475
v 0.550567 0.487088 0.041158
v 0.550567 0.447140 0.104475
v 0.550567 0.473284 -0.021528
v 0.550567 0.447140 -0.021528
v 0.277602 0.414385 0.115873
v 0.290076 0.389002 0.041158
v 0.290076 0.389868 0.122838
v 0.277602 0.414385 0.041158
v 0.277602 0.414385 -0.032925
v 0.290076 0.389868 -0.039891
v 0.664541 0.178411 0.041158
v 0.664541 0.157757 0.136134
v 0.664541 0.178411 0.136134
v 0.664541 0.148297 0.041158
v 0.664541 0.157757 -0.053188
v 0.664541 0.178411 -0.053188
v 0.664541 0.462590 0.041158
v 0.664541 0.473284 0.104475
v 0.664541 0.487088 0.041158
v 0.664541 0.447140 0.104475
v 0.664541 0.473284 -0.021528
v 0.664541 0.447140 -0.021528
v 0.778514 0.178411 0.041158
v 0.778514 0.157757 0.136134
v 0.778514 0.178411 0.136134
v 0.778514 0.148297 0.041158
v 0.778514 0.157757 -0.053188
v 0.778514 0.178411 -0.053188
v 0.778514 0.462590 0.041158
v 0.778514 0.473284 0.104475
v 0.778514 0.487088 0.041158
v 0.778514 0.447140 0.104475
v 0.778514 0.473284 -0.021528
v 0.778514 0.447140 -0.021528
v 0.664541 0.157757 -0.053188
v 0.726277 0.157757 -0.053188
v 0.726277 0.148297 0.041158
v 0.664541 0.148297 0.041158
v 0.726277 0.157757 0.136134
v 0.664541 0.157757 0.136134
v 0.550567 0.157757 -0.053188
v 0.612303 0.157757 -0.053188
v 0.612303 0.148297 0.041158
v 0.550567 0.148297 0.041158
v 0.612303 0.157757 0.136134
v 0.550567 0.157757 0.136134
v 0.436594 0.157757 -0.053188
v 0.498330 0.157757 -0.053188
v 0.498330 0.148297 0.041158
v 0.436594 0.148297 0.041158
v 0.498330 0.157757 0.136134
v 0.436594 0.157757 0.136134
v 0.322621 0.157757 -0.053188
v 0.384358 0.157757 -0.053188
v 0.384358 0.148297 0.041158
v 0.322621 0.148297 0.041158
v 0.384358 0.157757 0.136134
v 0.322621 0.157757 0.136134
v 0.778514 0.157757 -0.053188
v 0.840249 0.157757 -0.053188
v 0.840249 0.148297 0.041158
v 0.778514 0.148297 0.041158
v 0.840249 0.157757 0.136134
v 0.778514 0.157757 0.136134
v 0.759392 0.389868 0.122838
v 0.290076 0.389002 0.041158
v 0.759392 0.389002 0.041158
v 0.290076 0.389868 0.122838
v 0.290076 0.389868 -0.039891
v 0.759392 0.389868 -0.039891
v 0.664541 0.462590 0.041158
v 0.726277 0.462590 0.041158
v 0.664541 0.447140 0.104475
v 0.726277 0.447140 0.104475
v 0.726277 0.447140 -0.021528
v 0.664541 0.447140 -0.021528
v 0.550567 0.462590 0.041158
v 0.612303 0.462590 0.041158
v 0.550567 0.447140 0.104475
v 0.612303 0.447140 0.104475
v 0.612303 0.447140 -0.021528
v 0.550567 0.447140 -0.021528
v 0.436594 0.462590 0.041158
v 0.498330 0.462590 0.041158
v 0.436594 0.447140 0.104475
v 0.498330 0.447140 0.104475
v 0.498330 0.447140 -0.021528
v 0.436594 0.447140 -0.021528
v 0.322621 0.462590 0.041158
v 0.384358 0.462590 0.041158
v 0.322621 0.447140 0.104475
v 0.384358 0.447140 0.104475
v 0.384358 0.447140 -0.021528
v 0.322621 0.447140 -0.021528
v 0.979550 0.447140 0.104475
v 0.778514 0.447140 0.104475
v 0.979550 0.462590 0.041158
v 0.778514 0.462590 0.041158
v 0.979550 0.447140 -0.021528
v 0.778514 0.447140 -0.021528
v 0.550567 0.178411 -0.053188
v 0.612303 0.178411 -0.053188
v 0.612303 0.157757 -0.053188
v 0.550567 0.157757 -0.053188
v 0.436594 0.178411 -0.053188
v 0.498330 0.178411 -0.053188
v 0.498330 0.157757 -0.053188
v 0.436594 0.157757 -0.053188
v 0.664541 0.178411 -0.053188
v 0.726277 0.178411 -0.053188
v 0.726277 0.157757 -0.053188
v 0.664541 0.157757 -0.053188
v 0.322621 0.178411 -0.053188
v 0.384358 0.178411 -0.053188
v 0.384358 0.157757 -0.053188
v 0.322621 0.157757 -0.053188
v 0.778514 0.178411 -0.053188
v 0.840249 0.178411 -0.053188
v 0.840249 0.157757 -0.053188
v 0.778514 0.157757 -0.053188
v 0.277602 0.414385 -0.032925
v 0.759392 0.438897 -0.030393
v 0.771928 0.414385 -0.032925
v 0.290076 0.438897 -0.030393
v 0.759392 0.389868 -0.039891
v 0.290076 0.389868 -0.039891
v 0.726277 0.447140 -0.021528
v 0.664541 0.447140 -0.021528
v 0.726277 0.473284 -0.021528
v 0.664541 0.473284 -0.021528
v 0.612303 0.447140 -0.021528
v 0.550567 0.447140 -0.021528
v 0.612303 0.473284 -0.021528
v 0.550567 0.473284 -0.021528
v 0.498330 0.447140 -0.021528
v 0.436594 0.447140 -0.021528
v 0.498330 0.473284 -0.021528
v 0.436594 0.473284 -0.021528
v 0.384358 0.447140 -0.021528
v 0.322621 0.447140 -0.021528
v 0.384358 0.473284 -0.021528
v 0.322621 0.473284 -0.021528
v 0.979550 0.447140 -0.021528
v 0.778514 0.447140 -0.021528
v 0.979550 0.473284 -0.021528
v 0.778514 0.473284 -0.021528
v -0.179240 0.356057 -0.077248
v -0.179240 0.356057 0.160196
v -0.234328 0.215420 -0.077248
v -0.234328 0.215420 0.160196
v -0.227615 0.356057 -0.077248
v -0.227615 0.356057 0.160196
v -0.282766 0.215420 -0.077248
v -0.282766 0.215420 0.160196
v -0.189624 0.456607 0.121572
v -0.164551 0.417096 -0.050654
v -0.189624 0.456607 -0.039258
v -0.164551 0.417096 0.133602
v -0.280549 0.356057 -0.077248
v -0.280549 0.356057 0.160196
v -0.335637 0.215420 -0.077248
v -0.335637 0.215420 0.160196
v -0.328925 0.356057 -0.077248
v -0.328925 0.356057 0.160196
v -0.384075 0.215420 -0.077248
v -0.384075 0.215420 0.160196
v -0.380719 0.356057 -0.077248
v -0.380719 0.356057 0.160196
v -0.435869 0.215420 -0.077248
v -0.435869 0.215420 0.160196
v -0.432513 0.356057 -0.077248
v -0.432513 0.356057 0.160196
v -0.487601 0.215420 -0.077248
v -0.487601 0.215420 0.160196
v -0.189624 0.377585 0.157663
v -0.189624 0.377585 -0.074716
v -0.164551 0.417096 0.133602
v -0.164551 0.417096 -0.050654
v -0.573017 0.439124 0.056987
v -0.591253 0.439542 0.025960
v -0.591253 0.439542 0.056987
v -0.573017 0.439124 0.025960
v -0.561177 0.431792 0.056987
v -0.561177 0.431792 0.025960
v -0.544334 0.421851 0.056987
v -0.544334 0.421851 0.025960
v -0.496022 0.414487 0.025960
v -0.496022 0.414487 0.056987
v -0.441505 0.456607 0.121572
v -0.189624 0.456607 -0.039258
v -0.441505 0.456607 -0.039258
v -0.189624 0.456607 0.121572
v -0.410352 0.356057 -0.077248
v -0.410352 0.356057 0.160196
v -0.380719 0.356057 -0.077248
v -0.380719 0.356057 0.160196
v -0.358558 0.356057 -0.077248
v -0.358558 0.356057 0.160196
v -0.328925 0.356057 -0.077248
v -0.328925 0.356057 0.160196
v -0.462147 0.356057 -0.077248
v -0.462147 0.356057 0.160196
v -0.432513 0.356057 -0.077248
v -0.432513 0.356057 0.160196
v -0.310183 0.356057 -0.077248
v -0.310183 0.356057 0.160196
v -0.280549 0.356057 -0.077248
v -0.280549 0.356057 0.160196
v -0.257248 0.356057 -0.077248
v -0.257248 0.356057 0.160196
v -0.227615 0.356057 -0.077248
v -0.227615 0.356057 0.160196
v -0.208873 0.356057 -0.077248
v -0.208873 0.356057 0.160196
v -0.179240 0.356057 -0.077248
v -0.179240 0.356057 0.160196
v -0.410352 0.356057 0.160196
v -0.465502 0.215420 0.160196
v -0.435869 0.215420 0.160196
v -0.380719 0.356057 0.160196
v -0.358558 0.356057 0.160196
v -0.413708 0.215420 0.160196
v -0.384075 0.215420 0.160196
v -0.328925 0.356057 0.160196
v -0.462147 0.356057 0.160196
v -0.517233 0.215420 0.160196
v -0.487601 0.215420 0.160196
v -0.432513 0.356057 0.160196
v -0.310183 0.356057 0.160196
v -0.365269 0.215420 0.160196
v -0.335637 0.215420 0.160196
v -0.280549 0.356057 0.160196
v -0.257248 0.356057 0.160196
v -0.312398 0.215420 0.160196
v -0.282766 0.215420 0.160196
v -0.227615 0.356057 0.160196
v -0.208873 0.356057 0.160196
v -0.263960 0.215420 0.160196
v -0.234328 0.215420 0.160196
v -0.179240 0.356057 0.160196
v -0.441505 0.456607 0.121572
v -0.164551 0.417096 0.133602
v -0.189624 0.456607 0.121572
v -0.466516 0.417096 0.133602
v -0.189624 0.377585 0.157663
v -0.441505 0.377585 0.157663
v -0.551489 0.339917 0.056987
v -0.496022 0.414487 0.056987
v -0.544334 0.421851 0.056987
v -0.577133 0.386000 0.056987
v -0.561177 0.431792 0.056987
v -0.592456 0.398335 0.056987
v -0.573017 0.439124 0.056987
v -0.604297 0.408206 0.056987
v -0.603980 0.425910 0.056987
v -0.591253 0.439542 0.056987
v -0.577133 0.386000 0.025960
v -0.551489 0.339917 0.056987
v -0.577133 0.386000 0.056987
v -0.551489 0.339917 0.025960
v -0.604297 0.408206 0.025960
v -0.604297 0.408206 0.056987
v -0.603980 0.425910 0.056987
v -0.603980 0.425910 0.025960
v -0.591253 0.439542 0.025960
v -0.591253 0.439542 0.056987
v -0.466516 0.417096 -0.050654
v -0.466516 0.417096 0.133602
v -0.441505 0.456607 -0.039258
v -0.441505 0.456607 0.121572
v -0.462147 0.356057 -0.077248
v -0.517233 0.215420 -0.077248
v -0.517233 0.215420 0.160196
v -0.462147 0.356057 0.160196
v -0.410352 0.356057 -0.077248
v -0.465502 0.215420 -0.077248
v -0.465502 0.215420 0.160196
v -0.410352 0.356057 0.160196
v -0.358558 0.356057 -0.077248
v -0.413708 0.215420 -0.077248
v -0.413708 0.215420 0.160196
v -0.358558 0.356057 0.160196
v -0.441505 0.377585 -0.074716
v -0.441505 0.377585 0.157663
v -0.466516 0.417096 -0.050654
v -0.466516 0.417096 0.133602
v -0.310183 0.356057 -0.077248
v -0.365269 0.215420 -0.077248
v -0.365269 0.215420 0.160196
v -0.310183 0.356057 0.160196
v -0.257248 0.356057 -0.077248
v -0.312398 0.215420 -0.077248
v -0.312398 0.215420 0.160196
v -0.257248 0.356057 0.160196
v -0.208873 0.356057 -0.077248
v -0.263960 0.215420 -0.077248
v -0.263960 0.215420 0.160196
v -0.208873 0.356057 0.160196
v -0.592456 0.398335 0.056987
v -0.592456 0.398335 0.025960
v -0.577133 0.386000 0.025960
v -0.604297 0.408206 0.056987
v -0.577133 0.386000 0.056987
v -0.604297 0.408206 0.025960
v -0.435869 0.215420 -0.077248
v -0.435869 0.215420 0.160196
v -0.465502 0.215420 -0.077248
v -0.465502 0.215420 0.160196
v -0.384075 0.215420 -0.077248
v -0.384075 0.215420 0.160196
v -0.413708 0.215420 -0.077248
v -0.413708 0.215420 0.160196
v -0.487601 0.215420 0.160196
v -0.517233 0.215420 -0.077248
v -0.487601 0.215420 -0.077248
v -0.517233 0.215420 0.160196
v -0.335637 0.215420 -0.077248
v -0.335637 0.215420 0.160196
v -0.365269 0.215420 -0.077248
v -0.365269 0.215420 0.160196
v -0.282766 0.215420 0.160196
v -0.312398 0.215420 -0.077248
v -0.282766 0.215420 -0.077248
v -0.312398 0.215420 0.160196
v -0.234328 0.215420 -0.077248
v -0.234328 0.215420 0.160196
v -0.263960 0.215420 -0.077248
v -0.263960 0.215420 0.160196
v -0.189624 0.377585 -0.074716
v -0.189624 0.377585 0.157663
v -0.441505 0.377585 -0.074716
v -0.441505 0.377585 0.157663
v -0.435869 0.215420 -0.077248
v -0.410352 0.356057 -0.077248
v -0.380719 0.356057 -0.077248
v -0.465502 0.215420 -0.077248
v -0.384075 0.215420 -0.077248
v -0.358558 0.356057 -0.077248
v -0.328925 0.356057 -0.077248
v -0.413708 0.215420 -0.077248
v -0.487601 0.215420 -0.077248
v -0.462147 0.356057 -0.077248
v -0.432513 0.356057 -0.077248
v -0.517233 0.215420 -0.077248
v -0.335637 0.215420 -0.077248
v -0.310183 0.356057 -0.077248
v -0.280549 0.356057 -0.077248
v -0.365269 0.215420 -0.077248
v -0.282766 0.215420 -0.077248
v -0.257248 0.356057 -0.077248
v -0.227615 0.356057 -0.077248
v -0.312398 0.215420 -0.077248
v -0.234328 0.215420 -0.077248
v -0.208873 0.356057 -0.077248
v -0.179240 0.356057 -0.077248
v -0.263960 0.215420 -0.077248
v -0.164551 0.417096 -0.050654
v -0.441505 0.456607 -0.039258
v -0.189624 0.456607 -0.039258
v -0.466516 0.417096 -0.050654
v -0.441505 0.377585 -0.074716
v -0.189624 0.377585 -0.074716
v -0.551489 0.339917 0.025960
v -0.544334 0.421851 0.025960
v -0.496022 0.414487 0.025960
v -0.577133 0.386000 0.025960
v -0.561177 0.431792 0.025960
v -0.592456 0.398335 0.025960
v -0.573017 0.439124 0.025960
v -0.604297 0.408206 0.025960
v -0.603980 0.425910 0.025960
v -0.591253 0.439542 0.025960
vt 58.0054 -8.99523 
vt 58.01 -8.98984 
vt 58.0076 -8.98984 
vt 58.0054 -8.98445 
vt 58.0071 -8.99691 
vt 58.0071 -8.98277 
vt 58 -8.99984 
vt 58 -8.97984 
vt 58 -8.99747 
vt 58 -8.98221 
vt 57.9946 -8.99523 
vt 57.9946 -8.98445 
vt 57.9929 -8.99691 
vt 57.9929 -8.98277 
vt 57.99 -8.98984 
vt 57.9924 -8.98984 
vt 57.9924 -8.98984 
vt 58 -8.98221 
vt 57.9946 -8.98445 
vt 58 -8.99747 
vt 57.9946 -8.99523 
vt 58.0076 -8.98984 
vt 58.0054 -8.98445 
vt 58.0054 -8.99523 
vt 57.9982 -8.97452 
vt 58.0025 -8.97695 
vt 58.0018 -8.97452 
vt 57.9975 -8.97695 
vt 57.951 -9.00117 
vt 57.9388 -8.99825 
vt 57.9388 -9.00175 
vt 57.951 -8.99883 
vt 57.9263 -8.99461 
vt 57.9326 -9 
vt 57.9326 -8.99461 
vt 57.9263 -9 
vt 57.9326 -9.00539 
vt 57.9263 -9.00539 
vt 57.9588 -9.00246 
vt 57.951 -8.99883 
vt 57.951 -9.00117 
vt 57.9588 -8.99754 
vt 57.9263 -9 
vt 57.9362 -8.99293 
vt 57.9263 -8.99293 
vt 57.9362 -9 
vt 57.9263 -9.00707 
vt 57.9362 -9.00707 
vt 57.9637 -9 
vt 58.0737 -8.99116 
vt 57.9637 -8.99116 
vt 58.0737 -9 
vt 57.9637 -9.00884 
vt 58.0737 -9.00884 
vt 58.0737 -8.98984 
vt 58.0737 -8.98445 
vt 58.0674 -8.98445 
vt 58.0674 -8.98984 
vt 58.0737 -8.99523 
vt 58.0674 -8.99523 
vt 58.0612 -8.97452 
vt 58.049 -8.97266 
vt 58.0612 -8.97695 
vt 58.0412 -8.97695 
vt 58.0638 -8.99691 
vt 58.0737 -8.99691 
vt 58.0737 -8.98984 
vt 58.0638 -8.98984 
vt 58.0737 -8.98277 
vt 58.0638 -8.98277 
vt 57.9263 -9.02368 
vt 58.0363 -9.02368 
vt 58.0363 -9.01484 
vt 57.9263 -9.01484 
vt 58.0363 -9.006 
vt 57.9263 -9.006 
vt 58.0674 -9 
vt 58.0737 -9 
vt 58.0674 -8.99461 
vt 58.0737 -8.99461 
vt 58.0737 -9.00539 
vt 58.0674 -9.00539 
vt 58.0638 -9 
vt 58.0737 -8.99293 
vt 58.0638 -8.99293 
vt 58.0737 -9 
vt 58.0638 -9.00707 
vt 58.0737 -9.00707 
vt 58.0412 -9.00246 
vt 58.0612 -9.00246 
vt 58.0612 -8.99754 
vt 58.0412 -8.99754 
vt 57.9263 -9 
vt 58.0363 -8.99116 
vt 57.9263 -8.99116 
vt 58.0363 -9 
vt 57.9263 -9.00884 
vt 58.0363 -9.00884 
vt 57.9326 -8.98445 
vt 57.9263 -8.98445 
vt 57.9326 -8.98984 
vt 57.9263 -8.98984 
vt 57.9326 -8.99523 
vt 57.9263 -8.99523 
vt 57.9388 -8.97695 
vt 57.951 -8.97266 
vt 57.9388 -8.97452 
vt 57.9588 -8.97695 
vt 57.9362 -8.98984 
vt 57.9263 -8.99691 
vt 57.9362 -8.99691 
vt 57.9263 -8.98984 
vt 57.9362 -8.98277 
vt 57.9263 -8.98277 
vt 58.0737 -9.01484 
vt 57.9637 -9.02368 
vt 58.0737 -9.02368 
vt 57.9637 -9.01484 
vt 58.0737 -9.006 
vt 57.9637 -9.006 
vt 6 -58.9666 
vt 5.98757 -58.9693 
vt 6 -58.9714 
vt 5.98757 -58.9744 
vt 6.01243 -58.9693 
vt 6.01243 -58.9744 
vt 6 -59.0275 
vt 5.98134 -59.0316 
vt 6 -59.0334 
vt 5.98134 -59.0275 
vt 6.01866 -59.0316 
vt 6.01866 -59.0275 
vt 6 -59.0275 
vt 5.98134 -59.0316 
vt 6 -59.0334 
vt 5.98134 -59.0275 
vt 6.01866 -59.0316 
vt 6.01866 -59.0275 
vt 6 -58.9666 
vt 5.98757 -58.9693 
vt 6 -58.9714 
vt 5.98757 -58.9744 
vt 6.01243 -58.9693 
vt 6.01243 -58.9744 
vt 6 -58.9809 
vt 6.01417 -58.9761 
vt 6 -58.9759 
vt 5.98583 -58.9761 
vt 6.01464 -58.9809 
vt 5.98536 -58.9809 
vt 6 -59.0275 
vt 6.01866 -59.0316 
vt 6.01866 -59.0275 
vt 6 -59.0334 
vt 5.98134 -59.0316 
vt 5.98134 -59.0275 
vt 6 -58.9666 
vt 5.98757 -58.9693 
vt 6 -58.9714 
vt 5.98757 -58.9744 
vt 6.01243 -58.9693 
vt 6.01243 -58.9744 
vt 6 -58.9859 
vt 5.98536 -58.9809 
vt 5.98388 -58.9858 
vt 6 -58.9809 
vt 6.01464 -58.9809 
vt 6.01612 -58.9858 
vt 6 -59.0275 
vt 5.98134 -59.0316 
vt 6 -59.0334 
vt 5.98134 -59.0275 
vt 6.01866 -59.0316 
vt 6.01866 -59.0275 
vt 6 -58.9666 
vt 5.98757 -58.9693 
vt 6 -58.9714 
vt 5.98757 -58.9744 
vt 6.01243 -58.9693 
vt 6.01243 -58.9744 
vt 6 -59.0275 
vt 5.98134 -59.0316 
vt 6 -59.0334 
vt 5.98134 -59.0275 
vt 6.01866 -59.0316 
vt 6.01866 -59.0275 
vt 6 -58.9666 
vt 5.98757 -58.9693 
vt 6 -58.9714 
vt 5.98757 -58.9744 
vt 6.01243 -58.9693 
vt 6.01243 -58.9744 
vt 5.9929 -58.9876 
vt 5.98071 -59 
vt 5.9929 -59 
vt 5.98071 -58.9876 
vt 5.98071 -59.0124 
vt 5.9929 -59.0124 
vt 6.0154 -59 
vt 6.0154 -58.9876 
vt 6.00321 -59 
vt 6.00321 -58.9876 
vt 6.00321 -59.0124 
vt 6.0154 -59.0124 
vt 6.0379 -58.9876 
vt 6.02571 -59 
vt 6.0379 -59 
vt 6.02571 -58.9876 
vt 6.02571 -59.0124 
vt 6.0379 -59.0124 
vt 6.0604 -58.9876 
vt 6.04821 -59 
vt 6.0604 -59 
vt 6.04821 -58.9876 
vt 6.04821 -59.0124 
vt 6.0604 -59.0124 
vt 5.93071 -59 
vt 5.9704 -59 
vt 5.9704 -58.9876 
vt 5.93071 -58.9876 
vt 5.93071 -59.0124 
vt 5.9704 -59.0124 
vt 5.97417 -59.0142 
vt 6.06682 -59.0142 
vt 6.06682 -59 
vt 5.97417 -59 
vt 6.06682 -58.9858 
vt 5.97417 -58.9858 
vt 6.01929 -59.0275 
vt 6.0071 -59.0316 
vt 6.01929 -59.0316 
vt 6.0071 -59.0275 
vt 5.9396 -59.0316 
vt 5.95179 -59.0316 
vt 5.95179 -59.0275 
vt 5.9396 -59.0275 
vt 5.99679 -59.0275 
vt 5.9846 -59.0316 
vt 5.99679 -59.0316 
vt 5.9846 -59.0275 
vt 5.97429 -59.0275 
vt 5.9621 -59.0316 
vt 5.97429 -59.0316 
vt 5.9621 -59.0275 
vt 6.0296 -59.0316 
vt 6.04179 -59.0316 
vt 6.04179 -59.0275 
vt 6.0296 -59.0275 
vt 6.02583 -58.9761 
vt 5.93071 -58.9809 
vt 6.0283 -58.9809 
vt 5.93318 -58.9761 
vt 6.02583 -58.9858 
vt 5.93318 -58.9858 
vt 6.01929 -58.9744 
vt 6.0071 -58.9693 
vt 6.0071 -58.9744 
vt 6.01929 -58.9693 
vt 5.99679 -58.9744 
vt 5.9846 -58.9693 
vt 5.9846 -58.9744 
vt 5.99679 -58.9693 
vt 5.97429 -58.9744 
vt 5.9621 -58.9693 
vt 5.9621 -58.9744 
vt 5.97429 -58.9693 
vt 5.95179 -58.9744 
vt 5.9396 -58.9693 
vt 5.9396 -58.9744 
vt 5.95179 -58.9693 
vt 6.06929 -58.9744 
vt 6.0296 -58.9693 
vt 6.0296 -58.9744 
vt 6.06929 -58.9693 
vt 6 -59.0275 
vt 5.98134 -59.0275 
vt 5.98134 -59.0316 
vt 6 -59.0334 
vt 6.01866 -59.0316 
vt 6.01866 -59.0275 
vt 6 -58.9714 
vt 6.01243 -58.9693 
vt 6 -58.9666 
vt 6.01243 -58.9744 
vt 5.98757 -58.9693 
vt 5.98757 -58.9744 
vt 6 -59.0275 
vt 5.98134 -59.0275 
vt 5.98134 -59.0316 
vt 6 -59.0334 
vt 6.01866 -59.0316 
vt 6.01866 -59.0275 
vt 6 -58.9714 
vt 6.01243 -58.9693 
vt 6 -58.9666 
vt 6.01243 -58.9744 
vt 5.98757 -58.9693 
vt 5.98757 -58.9744 
vt 5.98536 -58.9809 
vt 6 -58.9809 
vt 5.98583 -58.9761 
vt 6 -58.9759 
vt 6.01417 -58.9761 
vt 6.01464 -58.9809 
vt 6 -59.0275 
vt 5.98134 -59.0275 
vt 5.98134 -59.0316 
vt 6 -59.0334 
vt 6.01866 -59.0316 
vt 6.01866 -59.0275 
vt 6 -58.9714 
vt 6.01243 -58.9693 
vt 6 -58.9666 
vt 6.01243 -58.9744 
vt 5.98757 -58.9693 
vt 5.98757 -58.9744 
vt 6.01464 -58.9809 
vt 6 -58.9859 
vt 6.01612 -58.9858 
vt 6 -58.9809 
vt 5.98536 -58.9809 
vt 5.98388 -58.9858 
vt 6 -59.0275 
vt 6.01866 -59.0316 
vt 6.01866 -59.0275 
vt 6 -59.0334 
vt 5.98134 -59.0316 
vt 5.98134 -59.0275 
vt 6 -58.9714 
vt 6.01243 -58.9693 
vt 6 -58.9666 
vt 6.01243 -58.9744 
vt 5.98757 -58.9693 
vt 5.98757 -58.9744 
vt 6 -59.0275 
vt 6.01866 -59.0316 
vt 6.01866 -59.0275 
vt 6 -59.0334 
vt 5.98134 -59.0316 
vt 5.98134 -59.0275 
vt 6 -58.9714 
vt 6.01243 -58.9693 
vt 6 -58.9666 
vt 6.01243 -58.9744 
vt 5.98757 -58.9693 
vt 5.98757 -58.9744 
vt 6.0071 -59.0187 
vt 6.01929 -59.0187 
vt 6.01929 -59 
vt 6.0071 -59 
vt 6.01929 -58.9813 
vt 6.0071 -58.9813 
vt 5.9846 -59.0187 
vt 5.99679 -59.0187 
vt 5.99679 -59 
vt 5.9846 -59 
vt 5.99679 -58.9813 
vt 5.9846 -58.9813 
vt 5.9621 -59.0187 
vt 5.97429 -59.0187 
vt 5.97429 -59 
vt 5.9621 -59 
vt 5.97429 -58.9813 
vt 5.9621 -58.9813 
vt 5.9396 -59.0187 
vt 5.95179 -59.0187 
vt 5.95179 -59 
vt 5.9396 -59 
vt 5.95179 -58.9813 
vt 5.9396 -58.9813 
vt 6.0296 -59.0187 
vt 6.04179 -59.0187 
vt 6.04179 -59 
vt 6.0296 -59 
vt 6.04179 -58.9813 
vt 6.0296 -58.9813 
vt 6.02583 -58.9839 
vt 5.93318 -59 
vt 6.02583 -59 
vt 5.93318 -58.9839 
vt 5.93318 -59.0161 
vt 6.02583 -59.0161 
vt 6.0071 -59 
vt 6.01929 -59 
vt 6.0071 -58.9876 
vt 6.01929 -58.9876 
vt 6.01929 -59.0124 
vt 6.0071 -59.0124 
vt 5.9846 -59 
vt 5.99679 -59 
vt 5.9846 -58.9876 
vt 5.99679 -58.9876 
vt 5.99679 -59.0124 
vt 5.9846 -59.0124 
vt 5.9621 -59 
vt 5.97429 -59 
vt 5.9621 -58.9876 
vt 5.97429 -58.9876 
vt 5.97429 -59.0124 
vt 5.9621 -59.0124 
vt 5.9396 -59 
vt 5.95179 -59 
vt 5.9396 -58.9876 
vt 5.95179 -58.9876 
vt 5.95179 -59.0124 
vt 5.9396 -59.0124 
vt 6.06929 -58.9876 
vt 6.0296 -58.9876 
vt 6.06929 -59 
vt 6.0296 -59 
vt 6.06929 -59.0124 
vt 6.0296 -59.0124 
vt 6.0154 -59.0275 
vt 6.00321 -59.0275 
vt 6.00321 -59.0316 
vt 6.0154 -59.0316 
vt 6.0379 -59.0275 
vt 6.02571 -59.0275 
vt 6.02571 -59.0316 
vt 6.0379 -59.0316 
vt 5.9929 -59.0275 
vt 5.98071 -59.0275 
vt 5.98071 -59.0316 
vt 5.9929 -59.0316 
vt 6.0604 -59.0275 
vt 6.04821 -59.0275 
vt 6.04821 -59.0316 
vt 6.0604 -59.0316 
vt 5.9704 -59.0275 
vt 5.95821 -59.0275 
vt 5.95821 -59.0316 
vt 5.9704 -59.0316 
vt 6.06929 -58.9809 
vt 5.97417 -58.9761 
vt 5.9717 -58.9809 
vt 6.06682 -58.9761 
vt 5.97417 -58.9858 
vt 6.06682 -58.9858 
vt 5.98071 -58.9744 
vt 5.9929 -58.9744 
vt 5.98071 -58.9693 
vt 5.9929 -58.9693 
vt 6.00321 -58.9744 
vt 6.0154 -58.9744 
vt 6.00321 -58.9693 
vt 6.0154 -58.9693 
vt 6.02571 -58.9744 
vt 6.0379 -58.9744 
vt 6.02571 -58.9693 
vt 6.0379 -58.9693 
vt 6.04821 -58.9744 
vt 6.0604 -58.9744 
vt 6.04821 -58.9693 
vt 6.0604 -58.9693 
vt 5.93071 -58.9744 
vt 5.9704 -58.9744 
vt 5.93071 -58.9693 
vt 5.9704 -58.9693 
vt 38.0234 -10.996 
vt 37.9766 -10.996 
vt 38.0234 -11.0238 
vt 37.9766 -11.0238 
vt 38.0234 -10.996 
vt 37.9766 -10.996 
vt 38.0234 -11.0238 
vt 37.9766 -11.0238 
vt 37.9841 -10.9762 
vt 38.0182 -10.984 
vt 38.0159 -10.9762 
vt 37.9818 -10.984 
vt 38.0234 -10.996 
vt 37.9766 -10.996 
vt 38.0234 -11.0238 
vt 37.9766 -11.0238 
vt 38.0234 -10.996 
vt 37.9766 -10.996 
vt 38.0234 -11.0238 
vt 37.9766 -11.0238 
vt 38.0234 -10.996 
vt 37.9766 -10.996 
vt 38.0234 -11.0238 
vt 37.9766 -11.0238 
vt 38.0234 -10.996 
vt 37.9766 -10.996 
vt 38.0234 -11.0238 
vt 37.9766 -11.0238 
vt 37.977 -10.9918 
vt 38.023 -10.9918 
vt 37.9818 -10.984 
vt 38.0182 -10.984 
vt 38.0372 -10.9969 
vt 38.0408 -11.0031 
vt 38.0408 -10.9969 
vt 38.0372 -11.0031 
vt 38.0349 -10.9969 
vt 38.0349 -11.0031 
vt 38.0316 -10.9969 
vt 38.0316 -11.0031 
vt 38.022 -11.0031 
vt 38.022 -10.9969 
vt 38.0113 -10.9841 
vt 37.9615 -11.0159 
vt 38.0113 -11.0159 
vt 37.9615 -10.9841 
vt 38.0051 -11.0234 
vt 38.0051 -10.9766 
vt 37.9993 -11.0234 
vt 37.9993 -10.9766 
vt 37.9949 -11.0234 
vt 37.9949 -10.9766 
vt 37.989 -11.0234 
vt 37.989 -10.9766 
vt 38.0153 -11.0234 
vt 38.0153 -10.9766 
vt 38.0095 -11.0234 
vt 38.0095 -10.9766 
vt 37.9853 -11.0234 
vt 37.9853 -10.9766 
vt 37.9795 -11.0234 
vt 37.9795 -10.9766 
vt 37.9749 -11.0234 
vt 37.9749 -10.9766 
vt 37.969 -11.0234 
vt 37.969 -10.9766 
vt 37.9653 -11.0234 
vt 37.9653 -10.9766 
vt 37.9595 -11.0234 
vt 37.9595 -10.9766 
vt 37.9949 -10.996 
vt 37.984 -11.0238 
vt 37.9898 -11.0238 
vt 38.0007 -10.996 
vt 38.0051 -10.996 
vt 37.9942 -11.0238 
vt 38.0001 -11.0238 
vt 38.011 -10.996 
vt 37.9847 -10.996 
vt 37.9738 -11.0238 
vt 37.9796 -11.0238 
vt 37.9905 -10.996 
vt 38.0147 -10.996 
vt 38.0038 -11.0238 
vt 38.0096 -11.0238 
vt 38.0205 -10.996 
vt 38.0251 -10.996 
vt 38.0142 -11.0238 
vt 38.0201 -11.0238 
vt 38.031 -10.996 
vt 38.0347 -10.996 
vt 38.0238 -11.0238 
vt 38.0296 -11.0238 
vt 38.0405 -10.996 
vt 37.9887 -10.9762 
vt 38.0434 -10.984 
vt 38.0385 -10.9762 
vt 37.9838 -10.984 
vt 38.0385 -10.9918 
vt 37.9887 -10.9918 
vt 37.967 -10.9992 
vt 37.978 -10.9845 
vt 37.9684 -10.9831 
vt 37.962 -10.9901 
vt 37.9651 -10.9811 
vt 37.9589 -10.9877 
vt 37.9628 -10.9796 
vt 37.9566 -10.9857 
vt 37.9567 -10.9823 
vt 37.9592 -10.9796 
vt 37.9969 -10.9901 
vt 38.0031 -10.9992 
vt 38.0031 -10.9901 
vt 37.9969 -10.9992 
vt 37.9969 -10.9857 
vt 38.0031 -10.9857 
vt 38.0031 -10.9823 
vt 37.9969 -10.9823 
vt 37.9969 -10.9796 
vt 38.0031 -10.9796 
vt 37.9818 -10.984 
vt 38.0182 -10.984 
vt 37.9841 -10.9762 
vt 38.0159 -10.9762 
vt 37.9766 -10.996 
vt 37.9766 -11.0238 
vt 38.0234 -11.0238 
vt 38.0234 -10.996 
vt 37.9766 -10.996 
vt 37.9766 -11.0238 
vt 38.0234 -11.0238 
vt 38.0234 -10.996 
vt 37.9766 -10.996 
vt 37.9766 -11.0238 
vt 38.0234 -11.0238 
vt 38.0234 -10.996 
vt 37.977 -10.9918 
vt 38.023 -10.9918 
vt 37.9818 -10.984 
vt 38.0182 -10.984 
vt 37.9766 -10.996 
vt 37.9766 -11.0238 
vt 38.0234 -11.0238 
vt 38.0234 -10.996 
vt 37.9766 -10.996 
vt 37.9766 -11.0238 
vt 38.0234 -11.0238 
vt 38.0234 -10.996 
vt 37.9766 -10.996 
vt 37.9766 -11.0238 
vt 38.0234 -11.0238 
vt 38.0234 -10.996 
vt 37.9589 -10.9969 
vt 37.9589 -11.0031 
vt 37.962 -11.0031 
vt 37.9566 -10.9969 
vt 37.962 -10.9969 
vt 37.9566 -11.0031 
vt 37.9898 -11.0234 
vt 37.9898 -10.9766 
vt 37.984 -11.0234 
vt 37.984 -10.9766 
vt 38.0001 -11.0234 
vt 38.0001 -10.9766 
vt 37.9942 -11.0234 
vt 37.9942 -10.9766 
vt 37.9796 -10.9766 
vt 37.9738 -11.0234 
vt 37.9796 -11.0234 
vt 37.9738 -10.9766 
vt 38.0096 -11.0234 
vt 38.0096 -10.9766 
vt 38.0038 -11.0234 
vt 38.0038 -10.9766 
vt 38.0201 -10.9766 
vt 38.0142 -11.0234 
vt 38.0201 -11.0234 
vt 38.0142 -10.9766 
vt 38.0296 -11.0234 
vt 38.0296 -10.9766 
vt 38.0238 -11.0234 
vt 38.0238 -10.9766 
vt 38.0385 -11.023 
vt 38.0385 -10.977 
vt 37.9887 -11.023 
vt 37.9887 -10.977 
vt 38.0102 -11.0238 
vt 38.0051 -10.996 
vt 37.9993 -10.996 
vt 38.016 -11.0238 
vt 37.9999 -11.0238 
vt 37.9949 -10.996 
vt 37.989 -10.996 
vt 38.0058 -11.0238 
vt 38.0204 -11.0238 
vt 38.0153 -10.996 
vt 38.0095 -10.996 
vt 38.0262 -11.0238 
vt 37.9904 -11.0238 
vt 37.9853 -10.996 
vt 37.9795 -10.996 
vt 37.9962 -11.0238 
vt 37.9799 -11.0238 
vt 37.9749 -10.996 
vt 37.969 -10.996 
vt 37.9858 -11.0238 
vt 37.9704 -11.0238 
vt 37.9653 -10.996 
vt 37.9595 -10.996 
vt 37.9762 -11.0238 
vt 37.9566 -10.984 
vt 38.0113 -10.9762 
vt 37.9615 -10.9762 
vt 38.0162 -10.984 
vt 38.0113 -10.9918 
vt 37.9615 -10.9918 
vt 38.033 -10.9992 
vt 38.0316 -10.9831 
vt 38.022 -10.9845 
vt 38.038 -10.9901 
vt 38.0349 -10.9811 
vt 38.0411 -10.9877 
vt 38.0372 -10.9796 
vt 38.0434 -10.9857 
vt 38.0433 -10.9823 
vt 38.0408 -10.9796 
vn 1.0000 0.0000 0.0000
vn 1.0000 0.0000 0.0000
vn 1.0000 0.0000 0.0000
vn 1.0000 0.0000 0.0000
vn 1.0000 0.0000 0.0000
vn 1.0000 0.0000 0.0000
vn 1.0000 0.0000 0.0000
vn 1.0000 0.0000 0.0000
vn 1.0000 0.0000 0.0000
vn 1.0000 0.0000 0.0000
vn 1.0000 0.0000 0.0000
vn 1.0000 0.0000 0.0000
vn 1.0000 0.0000 0.0000
vn 1.0000 0.0000 0.0000
vn 1.0000 0.0000 0.0000
vn 1.0000 0.0000 0.0000
vn 0.4409 0.0000 -0.8976
vn 0.3937 -0.9213 0.0000
vn 0.4173 -0.6535 -0.6299
vn 0.3937 0.9213 0.0000
vn 0.4173 0.6535 -0.6299
vn 0.4409 0.0000 0.8976
vn 0.4173 -0.6535 0.6299
vn 0.4173 0.6535 0.6299
vn 1.0000 0.0000 0.0000
vn 1.0000 0.0000 0.0000
vn 1.0000 0.0000 0.0000
vn 1.0000 0.0000 0.0000
vn 0.1496 0.9921 0.0000
vn 0.1496 0.9921 0.0000
vn 0.1496 0.9921 0.0000
vn 0.1496 0.9921 0.0000
vn -0.0000 0.7165 -0.6929
vn 0.3937 0.9213 0.0000
vn 0.4173 0.6535 -0.6299
vn -0.0000 1.0000 0.0000
vn 0.4173 0.6535 0.6299
vn -0.0000 0.7165 0.6929
vn -0.4803 0.8740 0.0000
vn -0.4803 0.8740 0.0000
vn -0.4803 0.8740 0.0000
vn -0.4803 0.8740 0.0000
vn -0.0000 1.0000 0.0000
vn -0.0000 0.7165 0.6929
vn -0.0000 0.7165 0.6929
vn -0.0000 1.0000 0.0000
vn -0.0000 0.7165 -0.6929
vn -0.0000 0.7165 -0.6929
vn -0.0000 1.0000 0.0000
vn -0.0000 0.7165 0.6929
vn -0.0000 0.7165 0.6929
vn -0.0000 1.0000 0.0000
vn -0.0000 0.7165 -0.6929
vn -0.0000 0.7165 -0.6929
vn -0.0000 0.0000 1.0000
vn -0.0000 -0.7165 0.6929
vn 0.4173 -0.6535 0.6299
vn 0.4409 0.0000 0.8976
vn -0.0000 0.7165 0.6929
vn 0.4173 0.6535 0.6299
vn -0.0000 0.2835 0.9606
vn -0.0000 0.2835 0.9606
vn -0.0000 0.2835 0.9606
vn -0.0000 0.2835 0.9606
vn -0.0000 -0.7165 0.6929
vn -0.0000 -0.7165 0.6929
vn -0.0000 0.0000 1.0000
vn -0.0000 0.0000 1.0000
vn -0.0000 0.7165 0.6929
vn -0.0000 0.7165 0.6929
vn -0.0000 -0.7165 0.6929
vn -0.0000 -0.7165 0.6929
vn -0.0000 0.0000 1.0000
vn -0.0000 0.0000 1.0000
vn -0.0000 0.7165 0.6929
vn -0.0000 0.7165 0.6929
vn 0.3937 -0.9213 0.0000
vn -0.0000 -1.0000 0.0000
vn 0.4173 -0.6535 -0.6299
vn -0.0000 -0.7165 -0.6929
vn -0.0000 -0.7165 0.6929
vn 0.4173 -0.6535 0.6299
vn -0.0000 -1.0000 0.0000
vn -0.0000 -0.7165 0.6929
vn -0.0000 -0.7165 0.6929
vn -0.0000 -1.0000 0.0000
vn -0.0000 -0.7165 -0.6929
vn -0.0000 -0.7165 -0.6929
vn -0.0000 -1.0000 0.0000
vn -0.0000 -1.0000 0.0000
vn -0.0000 -1.0000 0.0000
vn -0.0000 -1.0000 0.0000
vn -0.0000 -1.0000 0.0000
vn -0.0000 -0.7165 0.6929
vn -0.0000 -0.7165 0.6929
vn -0.0000 -1.0000 0.0000
vn -0.0000 -0.7165 -0.6929
vn -0.0000 -0.7165 -0.6929
vn 0.4173 -0.6535 -0.6299
vn -0.0000 -0.7165 -0.6929
vn 0.4409 0.0000 -0.8976
vn -0.0000 0.0000 -1.0000
vn 0.4173 0.6535 -0.6299
vn -0.0000 0.7165 -0.6929
vn -0.0000 0.2835 -0.9606
vn -0.0000 0.2835 -0.9606
vn -0.0000 0.2835 -0.9606
vn -0.0000 0.2835 -0.9606
vn -0.0000 0.0000 -1.0000
vn -0.0000 -0.7165 -0.6929
vn -0.0000 -0.7165 -0.6929
vn -0.0000 0.0000 -1.0000
vn -0.0000 0.7165 -0.6929
vn -0.0000 0.7165 -0.6929
vn -0.0000 0.0000 -1.0000
vn -0.0000 -0.7165 -0.6929
vn -0.0000 -0.7165 -0.6929
vn -0.0000 0.0000 -1.0000
vn -0.0000 0.7165 -0.6929
vn -0.0000 0.7165 -0.6929
vn 1.0000 0.0000 0.0000
vn 1.0000 0.0000 0.0000
vn 1.0000 0.0000 0.0000
vn 1.0000 0.0000 0.0000
vn 1.0000 0.0000 0.0000
vn 1.0000 0.0000 0.0000
vn 1.0000 0.0000 0.0000
vn 1.0000 0.0000 0.0000
vn 1.0000 0.0000 0.0000
vn 1.0000 0.0000 0.0000
vn 1.0000 0.0000 0.0000
vn 1.0000 0.0000 0.0000
vn 1.0000 0.0000 0.0000
vn 1.0000 0.0000 0.0000
vn 1.0000 0.0000 0.0000
vn 1.0000 0.0000 0.0000
vn 1.0000 0.0000 0.0000
vn 1.0000 0.0000 0.0000
vn 1.0000 0.0000 0.0000
vn 1.0000 0.0000 0.0000
vn 1.0000 0.0000 0.0000
vn 1.0000 0.0000 0.0000
vn 1.0000 0.0000 0.0000
vn 1.0000 0.0000 0.0000
vn 0.8898 0.4488 0.0000
vn 0.3937 0.9213 -0.0079
vn 0.3780 0.9213 0.0000
vn 0.3937 0.9213 0.0079
vn 0.8898 0.4488 0.0000
vn 0.8898 0.4488 0.0000
vn 1.0000 0.0000 0.0000
vn 1.0000 0.0000 0.0000
vn 1.0000 0.0000 0.0000
vn 1.0000 0.0000 0.0000
vn 1.0000 0.0000 0.0000
vn 1.0000 0.0000 0.0000
vn 1.0000 0.0000 0.0000
vn 1.0000 0.0000 0.0000
vn 1.0000 0.0000 0.0000
vn 1.0000 0.0000 0.0000
vn 1.0000 0.0000 0.0000
vn 1.0000 0.0000 0.0000
vn 0.3780 -0.9213 0.0000
vn 0.8976 -0.4488 0.0000
vn 0.3386 -0.9449 0.0079
vn 0.8976 -0.4488 0.0000
vn 0.8976 -0.4488 0.0000
vn 0.3386 -0.9449 -0.0079
vn 1.0000 0.0000 0.0000
vn 1.0000 0.0000 0.0000
vn 1.0000 0.0000 0.0000
vn 1.0000 0.0000 0.0000
vn 1.0000 0.0000 0.0000
vn 1.0000 0.0000 0.0000
vn 1.0000 0.0000 0.0000
vn 1.0000 0.0000 0.0000
vn 1.0000 0.0000 0.0000
vn 1.0000 0.0000 0.0000
vn 1.0000 0.0000 0.0000
vn 1.0000 0.0000 0.0000
vn 1.0000 0.0000 0.0000
vn 1.0000 0.0000 0.0000
vn 1.0000 0.0000 0.0000
vn 1.0000 0.0000 0.0000
vn 1.0000 0.0000 0.0000
vn 1.0000 0.0000 0.0000
vn 1.0000 0.0000 0.0000
vn 1.0000 0.0000 0.0000
vn 1.0000 0.0000 0.0000
vn 1.0000 0.0000 0.0000
vn 1.0000 0.0000 0.0000
vn 1.0000 0.0000 0.0000
vn -0.0000 0.9764 0.2126
vn -0.0000 1.0000 0.0000
vn -0.0000 1.0000 0.0000
vn -0.0000 0.9764 0.2126
vn -0.0000 0.9764 -0.2126
vn -0.0000 0.9764 -0.2126
vn -0.0000 1.0000 0.0000
vn -0.0000 0.9764 0.2126
vn -0.0000 1.0000 0.0000
vn -0.0000 0.9764 0.2126
vn -0.0000 0.9764 -0.2126
vn -0.0000 0.9764 -0.2126
vn -0.0000 0.9764 0.2126
vn -0.0000 1.0000 0.0000
vn -0.0000 1.0000 0.0000
vn -0.0000 0.9764 0.2126
vn -0.0000 0.9764 -0.2126
vn -0.0000 0.9764 -0.2126
vn -0.0000 0.9764 0.2126
vn -0.0000 1.0000 0.0000
vn -0.0000 1.0000 0.0000
vn -0.0000 0.9764 0.2126
vn -0.0000 0.9764 -0.2126
vn -0.0000 0.9764 -0.2126
vn -0.0000 1.0000 0.0000
vn -0.0000 1.0000 0.0000
vn -0.0000 0.9764 0.2126
vn -0.0000 0.9764 0.2126
vn -0.0000 0.9764 -0.2126
vn -0.0000 0.9764 -0.2126
vn 0.3937 0.9213 -0.0079
vn -0.3937 0.9213 -0.0079
vn -0.3780 0.9213 0.0000
vn 0.3780 0.9213 0.0000
vn -0.3937 0.9213 0.0079
vn 0.3937 0.9213 0.0079
vn -0.0000 0.0000 1.0000
vn -0.0000 0.0000 1.0000
vn -0.0000 0.0000 1.0000
vn -0.0000 0.0000 1.0000
vn -0.0000 0.0000 1.0000
vn -0.0000 0.0000 1.0000
vn -0.0000 0.0000 1.0000
vn -0.0000 0.0000 1.0000
vn -0.0000 0.0000 1.0000
vn -0.0000 0.0000 1.0000
vn -0.0000 0.0000 1.0000
vn -0.0000 0.0000 1.0000
vn -0.0000 0.0000 1.0000
vn -0.0000 0.0000 1.0000
vn -0.0000 0.0000 1.0000
vn -0.0000 0.0000 1.0000
vn -0.0000 0.0000 1.0000
vn -0.0000 0.0000 1.0000
vn -0.0000 0.0000 1.0000
vn -0.0000 0.0000 1.0000
vn -0.0000 0.0945 0.9921
vn -0.0000 0.1968 0.9843
vn -0.0000 0.1968 0.9843
vn -0.0000 0.0945 0.9921
vn -0.0000 0.2913 0.9528
vn -0.0000 0.2913 0.9528
vn -0.0000 0.0000 1.0000
vn -0.0000 0.0000 1.0000
vn -0.0000 0.0000 1.0000
vn -0.0000 0.0000 1.0000
vn -0.0000 0.0000 1.0000
vn -0.0000 0.0000 1.0000
vn -0.0000 0.0000 1.0000
vn -0.0000 0.0000 1.0000
vn -0.0000 0.0000 1.0000
vn -0.0000 0.0000 1.0000
vn -0.0000 0.0000 1.0000
vn -0.0000 0.0000 1.0000
vn -0.0000 0.0000 1.0000
vn -0.0000 0.0000 1.0000
vn -0.0000 0.0000 1.0000
vn -0.0000 0.0000 1.0000
vn -0.0000 0.0000 1.0000
vn -0.0000 0.0000 1.0000
vn -0.0000 0.0000 1.0000
vn -0.0000 0.0000 1.0000
vn -1.0000 0.0000 0.0000
vn -1.0000 0.0000 0.0000
vn -1.0000 0.0000 0.0000
vn -1.0000 0.0000 0.0000
vn -1.0000 0.0000 0.0000
vn -1.0000 0.0000 0.0000
vn -1.0000 0.0000 0.0000
vn -1.0000 0.0000 0.0000
vn -1.0000 0.0000 0.0000
vn -1.0000 0.0000 0.0000
vn -1.0000 0.0000 0.0000
vn -1.0000 0.0000 0.0000
vn -1.0000 0.0000 0.0000
vn -1.0000 0.0000 0.0000
vn -1.0000 0.0000 0.0000
vn -1.0000 0.0000 0.0000
vn -1.0000 0.0000 0.0000
vn -1.0000 0.0000 0.0000
vn -1.0000 0.0000 0.0000
vn -1.0000 0.0000 0.0000
vn -1.0000 0.0000 0.0000
vn -1.0000 0.0000 0.0000
vn -1.0000 0.0000 0.0000
vn -1.0000 0.0000 0.0000
vn -0.8898 0.4488 0.0000
vn -0.8898 0.4488 0.0000
vn -0.3937 0.9213 -0.0079
vn -0.3780 0.9213 0.0000
vn -0.3937 0.9213 0.0079
vn -0.8898 0.4488 0.0000
vn -1.0000 0.0000 0.0000
vn -1.0000 0.0000 0.0000
vn -1.0000 0.0000 0.0000
vn -1.0000 0.0000 0.0000
vn -1.0000 0.0000 0.0000
vn -1.0000 0.0000 0.0000
vn -1.0000 0.0000 0.0000
vn -1.0000 0.0000 0.0000
vn -1.0000 0.0000 0.0000
vn -1.0000 0.0000 0.0000
vn -1.0000 0.0000 0.0000
vn -1.0000 0.0000 0.0000
vn -0.8976 -0.4488 0.0000
vn -0.3780 -0.9213 0.0000
vn -0.3386 -0.9449 0.0079
vn -0.8976 -0.4488 0.0000
vn -0.8976 -0.4488 0.0000
vn -0.3386 -0.9449 -0.0079
vn -1.0000 0.0000 0.0000
vn -1.0000 0.0000 0.0000
vn -1.0000 0.0000 0.0000
vn -1.0000 0.0000 0.0000
vn -1.0000 0.0000 0.0000
vn -1.0000 0.0000 0.0000
vn -1.0000 0.0000 0.0000
vn -1.0000 0.0000 0.0000
vn -1.0000 0.0000 0.0000
vn -1.0000 0.0000 0.0000
vn -1.0000 0.0000 0.0000
vn -1.0000 0.0000 0.0000
vn -1.0000 0.0000 0.0000
vn -1.0000 0.0000 0.0000
vn -1.0000 0.0000 0.0000
vn -1.0000 0.0000 0.0000
vn -1.0000 0.0000 0.0000
vn -1.0000 0.0000 0.0000
vn -1.0000 0.0000 0.0000
vn -1.0000 0.0000 0.0000
vn -1.0000 0.0000 0.0000
vn -1.0000 0.0000 0.0000
vn -1.0000 0.0000 0.0000
vn -1.0000 0.0000 0.0000
vn -0.0000 -0.9921 -0.1024
vn -0.0000 -0.9921 -0.1024
vn -0.0000 -1.0000 0.0000
vn -0.0000 -1.0000 0.0000
vn -0.0000 -0.9921 0.1024
vn -0.0000 -0.9921 0.1024
vn -0.0000 -0.9921 -0.1024
vn -0.0000 -0.9921 -0.1024
vn -0.0000 -1.0000 0.0000
vn -0.0000 -1.0000 0.0000
vn -0.0000 -0.9921 0.1024
vn -0.0000 -0.9921 0.1024
vn -0.0000 -0.9921 -0.1024
vn -0.0000 -0.9921 -0.1024
vn -0.0000 -1.0000 0.0000
vn -0.0000 -1.0000 0.0000
vn -0.0000 -0.9921 0.1024
vn -0.0000 -0.9921 0.1024
vn -0.0000 -0.9921 -0.1024
vn -0.0000 -0.9921 -0.1024
vn -0.0000 -1.0000 0.0000
vn -0.0000 -1.0000 0.0000
vn -0.0000 -0.9921 0.1024
vn -0.0000 -0.9921 0.1024
vn -0.0000 -0.9921 -0.1024
vn -0.0000 -0.9921 -0.1024
vn -0.0000 -1.0000 0.0000
vn -0.0000 -1.0000 0.0000
vn -0.0000 -0.9921 0.1024
vn -0.0000 -0.9921 0.1024
vn 0.3386 -0.9449 0.0079
vn -0.3780 -0.9213 0.0000
vn 0.3780 -0.9213 0.0000
vn -0.3386 -0.9449 0.0079
vn -0.3386 -0.9449 -0.0079
vn 0.3386 -0.9449 -0.0079
vn -0.0000 -1.0000 0.0000
vn -0.0000 -1.0000 0.0000
vn -0.0000 -0.9685 -0.2362
vn -0.0000 -0.9685 -0.2362
vn -0.0000 -0.9685 0.2362
vn -0.0000 -0.9685 0.2362
vn -0.0000 -1.0000 0.0000
vn -0.0000 -1.0000 0.0000
vn -0.0000 -0.9685 -0.2362
vn -0.0000 -0.9685 -0.2362
vn -0.0000 -0.9685 0.2362
vn -0.0000 -0.9685 0.2362
vn -0.0000 -1.0000 0.0000
vn -0.0000 -1.0000 0.0000
vn -0.0000 -0.9685 -0.2362
vn -0.0000 -0.9685 -0.2362
vn -0.0000 -0.9685 0.2362
vn -0.0000 -0.9685 0.2362
vn -0.0000 -1.0000 0.0000
vn -0.0000 -1.0000 0.0000
vn -0.0000 -0.9685 -0.2362
vn -0.0000 -0.9685 -0.2362
vn -0.0000 -0.9685 0.2362
vn -0.0000 -0.9685 0.2362
vn -0.0000 -0.9685 -0.2362
vn -0.0000 -0.9685 -0.2362
vn -0.0000 -1.0000 0.0000
vn -0.0000 -1.0000 0.0000
vn -0.0000 -0.9685 0.2362
vn -0.0000 -0.9685 0.2362
vn -0.0000 0.0000 -1.0000
vn -0.0000 0.0000 -1.0000
vn -0.0000 0.0000 -1.0000
vn -0.0000 0.0000 -1.0000
vn -0.0000 0.0000 -1.0000
vn -0.0000 0.0000 -1.0000
vn -0.0000 0.0000 -1.0000
vn -0.0000 0.0000 -1.0000
vn -0.0000 0.0000 -1.0000
vn -0.0000 0.0000 -1.0000
vn -0.0000 0.0000 -1.0000
vn -0.0000 0.0000 -1.0000
vn -0.0000 0.0000 -1.0000
vn -0.0000 0.0000 -1.0000
vn -0.0000 0.0000 -1.0000
vn -0.0000 0.0000 -1.0000
vn -0.0000 0.0000 -1.0000
vn -0.0000 0.0000 -1.0000
vn -0.0000 0.0000 -1.0000
vn -0.0000 0.0000 -1.0000
vn -0.0000 0.1968 -0.9843
vn -0.0000 0.0945 -0.9921
vn -0.0000 0.1968 -0.9843
vn -0.0000 0.0945 -0.9921
vn -0.0000 0.2913 -0.9528
vn -0.0000 0.2913 -0.9528
vn -0.0000 0.0000 -1.0000
vn -0.0000 0.0000 -1.0000
vn -0.0000 0.0000 -1.0000
vn -0.0000 0.0000 -1.0000
vn -0.0000 0.0000 -1.0000
vn -0.0000 0.0000 -1.0000
vn -0.0000 0.0000 -1.0000
vn -0.0000 0.0000 -1.0000
vn -0.0000 0.0000 -1.0000
vn -0.0000 0.0000 -1.0000
vn -0.0000 0.0000 -1.0000
vn -0.0000 0.0000 -1.0000
vn -0.0000 0.0000 -1.0000
vn -0.0000 0.0000 -1.0000
vn -0.0000 0.0000 -1.0000
vn -0.0000 0.0000 -1.0000
vn -0.0000 0.0000 -1.0000
vn -0.0000 0.0000 -1.0000
vn -0.0000 0.0000 -1.0000
vn -0.0000 0.0000 -1.0000
vn 0.9291 -0.3622 0.0000
vn 0.9291 -0.3622 0.0000
vn 0.9291 -0.3622 0.0000
vn 0.9291 -0.3622 0.0000
vn 0.9291 -0.3622 0.0000
vn 0.9291 -0.3622 0.0000
vn 0.9291 -0.3622 0.0000
vn 0.9291 -0.3622 0.0000
vn 0.3937 0.9213 0.0000
vn 0.8425 0.5354 0.0000
vn 0.3937 0.9213 0.0000
vn 0.8425 0.5354 0.0000
vn 0.9291 -0.3622 0.0000
vn 0.9291 -0.3622 0.0000
vn 0.9291 -0.3622 0.0000
vn 0.9291 -0.3622 0.0000
vn 0.9291 -0.3622 0.0000
vn 0.9291 -0.3622 0.0000
vn 0.9291 -0.3622 0.0000
vn 0.9291 -0.3622 0.0000
vn 0.9291 -0.3622 0.0000
vn 0.9291 -0.3622 0.0000
vn 0.9291 -0.3622 0.0000
vn 0.9291 -0.3622 0.0000
vn 0.9291 -0.3622 0.0000
vn 0.9291 -0.3622 0.0000
vn 0.9291 -0.3622 0.0000
vn 0.9291 -0.3622 0.0000
vn 0.2756 -0.9606 0.0000
vn 0.2756 -0.9606 0.0000
vn 0.8425 -0.5354 0.0000
vn 0.8425 -0.5354 0.0000
vn 0.2520 0.9685 0.0000
vn -0.2992 0.9528 0.0000
vn -0.2992 0.9528 0.0000
vn 0.2520 0.9685 0.0000
vn 0.5197 0.8583 0.0000
vn 0.5197 0.8583 0.0000
vn 0.3150 0.9528 0.0000
vn 0.3150 0.9528 0.0000
vn 0.1496 0.9921 0.0000
vn 0.1496 0.9921 0.0000
vn -0.3937 0.9213 0.0000
vn 0.3937 0.9213 0.0000
vn -0.3937 0.9213 0.0000
vn 0.3937 0.9213 0.0000
vn -0.0000 1.0000 0.0000
vn -0.0000 1.0000 0.0000
vn -0.0000 1.0000 0.0000
vn -0.0000 1.0000 0.0000
vn -0.0000 1.0000 0.0000
vn -0.0000 1.0000 0.0000
vn -0.0000 1.0000 0.0000
vn -0.0000 1.0000 0.0000
vn -0.0000 1.0000 0.0000
vn -0.0000 1.0000 0.0000
vn -0.0000 1.0000 0.0000
vn -0.0000 1.0000 0.0000
vn -0.0000 1.0000 0.0000
vn -0.0000 1.0000 0.0000
vn -0.0000 1.0000 0.0000
vn -0.0000 1.0000 0.0000
vn -0.0000 1.0000 0.0000
vn -0.0000 1.0000 0.0000
vn -0.0000 1.0000 0.0000
vn -0.0000 1.0000 0.0000
vn -0.0000 1.0000 0.0000
vn -0.0000 1.0000 0.0000
vn -0.0000 1.0000 0.0000
vn -0.0000 1.0000 0.0000
vn -0.0000 0.0000 1.0000
vn -0.0000 0.0000 1.0000
vn -0.0000 0.0000 1.0000
vn -0.0000 0.0000 1.0000
vn -0.0000 0.0000 1.0000
vn -0.0000 0.0000 1.0000
vn -0.0000 0.0000 1.0000
vn -0.0000 0.0000 1.0000
vn -0.0000 0.0000 1.0000
vn -0.0000 0.0000 1.0000
vn -0.0000 0.0000 1.0000
vn -0.0000 0.0000 1.0000
vn -0.0000 0.0000 1.0000
vn -0.0000 0.0000 1.0000
vn -0.0000 0.0000 1.0000
vn -0.0000 0.0000 1.0000
vn -0.0000 0.0000 1.0000
vn -0.0000 0.0000 1.0000
vn -0.0000 0.0000 1.0000
vn -0.0000 0.0000 1.0000
vn -0.0000 0.0000 1.0000
vn -0.0000 0.0000 1.0000
vn -0.0000 0.0000 1.0000
vn -0.0000 0.0000 1.0000
vn -0.0000 0.2835 0.9606
vn -0.0000 0.4094 0.9134
vn -0.0000 0.2835 0.9606
vn -0.0000 0.4094 0.9134
vn -0.0000 0.5197 0.8504
vn -0.0000 0.5197 0.8504
vn -0.0000 0.0000 1.0000
vn -0.0000 0.0000 1.0000
vn -0.0000 0.0000 1.0000
vn -0.0000 0.0000 1.0000
vn -0.0000 0.0000 1.0000
vn -0.0000 0.0000 1.0000
vn -0.0000 0.0000 1.0000
vn -0.0000 0.0000 1.0000
vn -0.0000 0.0000 1.0000
vn -0.0000 0.0000 1.0000
vn -0.7559 -0.6614 0.0000
vn -0.8740 -0.4882 0.0000
vn -0.7559 -0.6614 0.0000
vn -0.8740 -0.4882 0.0000
vn -0.8819 -0.4724 0.0000
vn -0.8819 -0.4724 0.0000
vn -0.9134 0.4094 0.0000
vn -0.9134 0.4094 0.0000
vn -0.2992 0.9528 0.0000
vn -0.2992 0.9528 0.0000
vn -0.8425 0.5354 0.0000
vn -0.8425 0.5354 0.0000
vn -0.3937 0.9213 0.0000
vn -0.3937 0.9213 0.0000
vn -0.9291 0.3622 0.0000
vn -0.9291 0.3622 0.0000
vn -0.9291 0.3622 0.0000
vn -0.9291 0.3622 0.0000
vn -0.9291 0.3622 0.0000
vn -0.9291 0.3622 0.0000
vn -0.9291 0.3622 0.0000
vn -0.9291 0.3622 0.0000
vn -0.9291 0.3622 0.0000
vn -0.9291 0.3622 0.0000
vn -0.9291 0.3622 0.0000
vn -0.9291 0.3622 0.0000
vn -0.2756 -0.9606 0.0000
vn -0.2756 -0.9606 0.0000
vn -0.8425 -0.5354 0.0000
vn -0.8425 -0.5354 0.0000
vn -0.9291 0.3622 0.0000
vn -0.9291 0.3622 0.0000
vn -0.9291 0.3622 0.0000
vn -0.9291 0.3622 0.0000
vn -0.9291 0.3622 0.0000
vn -0.9291 0.3622 0.0000
vn -0.9291 0.3622 0.0000
vn -0.9291 0.3622 0.0000
vn -0.9291 0.3622 0.0000
vn -0.9291 0.3622 0.0000
vn -0.9291 0.3622 0.0000
vn -0.9291 0.3622 0.0000
vn -0.6378 -0.7717 0.0000
vn -0.6378 -0.7717 0.0000
vn -0.7559 -0.6614 0.0000
vn -0.8819 -0.4724 0.0000
vn -0.7559 -0.6614 0.0000
vn -0.8819 -0.4724 0.0000
vn -0.0000 -1.0000 0.0000
vn -0.0000 -1.0000 0.0000
vn -0.0000 -1.0000 0.0000
vn -0.0000 -1.0000 0.0000
vn -0.0000 -1.0000 0.0000
vn -0.0000 -1.0000 0.0000
vn -0.0000 -1.0000 0.0000
vn -0.0000 -1.0000 0.0000
vn -0.0000 -1.0000 0.0000
vn -0.0000 -1.0000 0.0000
vn -0.0000 -1.0000 0.0000
vn -0.0000 -1.0000 0.0000
vn -0.0000 -1.0000 0.0000
vn -0.0000 -1.0000 0.0000
vn -0.0000 -1.0000 0.0000
vn -0.0000 -1.0000 0.0000
vn -0.0000 -1.0000 0.0000
vn -0.0000 -1.0000 0.0000
vn -0.0000 -1.0000 0.0000
vn -0.0000 -1.0000 0.0000
vn -0.0000 -1.0000 0.0000
vn -0.0000 -1.0000 0.0000
vn -0.0000 -1.0000 0.0000
vn -0.0000 -1.0000 0.0000
vn 0.2756 -0.9606 0.0000
vn 0.2756 -0.9606 0.0000
vn -0.2756 -0.9606 0.0000
vn -0.2756 -0.9606 0.0000
vn -0.0000 0.0000 -1.0000
vn -0.0000 0.0000 -1.0000
vn -0.0000 0.0000 -1.0000
vn -0.0000 0.0000 -1.0000
vn -0.0000 0.0000 -1.0000
vn -0.0000 0.0000 -1.0000
vn -0.0000 0.0000 -1.0000
vn -0.0000 0.0000 -1.0000
vn -0.0000 0.0000 -1.0000
vn -0.0000 0.0000 -1.0000
vn -0.0000 0.0000 -1.0000
vn -0.0000 0.0000 -1.0000
vn -0.0000 0.0000 -1.0000
vn -0.0000 0.0000 -1.0000
vn -0.0000 0.0000 -1.0000
vn -0.0000 0.0000 -1.0000
vn -0.0000 0.0000 -1.0000
vn -0.0000 0.0000 -1.0000
vn -0.0000 0.0000 -1.0000
vn -0.0000 0.0000 -1.0000
vn -0.0000 0.0000 -1.0000
vn -0.0000 0.0000 -1.0000
vn -0.0000 0.0000 -1.0000
vn -0.0000 0.0000 -1.0000
vn -0.0000 0.4094 -0.9134
vn -0.0000 0.2835 -0.9606
vn -0.0000 0.2835 -0.9606
vn -0.0000 0.4094 -0.9134
vn -0.0000 0.5197 -0.8504
vn -0.0000 0.5197 -0.8504
vn -0.0000 0.0000 -1.0000
vn -0.0000 0.0000 -1.0000
vn -0.0000 0.0000 -1.0000
vn -0.0000 0.0000 -1.0000
vn -0.0000 0.0000 -1.0000
vn -0.0000 0.0000 -1.0000
vn -0.0000 0.0000 -1.0000
vn -0.0000 0.0000 -1.0000
vn -0.0000 0.0000 -1.0000
vn -0.0000 0.0000 -1.0000
usemtl Meshpart1Mtl
f 1/1/1 2/2/2 3/3/3
f 2/2/2 4/4/4 3/3/3
f 2/2/2 1/1/1 5/5/5
f 4/4/4 2/2/2 6/6/6
f 7/7/7 5/5/5 1/1/1
f 8/8/8 4/4/4 6/6/6
f 7/7/7 1/1/1 9/9/9
f 4/4/4 8/8/8 10/10/10
f 11/11/11 7/7/7 9/9/9
f 8/8/8 12/12/12 10/10/10
f 7/7/7 11/11/11 13/13/13
f 8/8/8 14/14/14 12/12/12
f 15/15/15 13/13/13 11/11/11
f 15/15/15 12/12/12 14/14/14
f 11/11/11 16/16/16 15/15/15
f 12/12/12 15/15/15 16/16/16
f 17/17/17 18/18/18 19/19/19
f 20/20/20 17/17/17 21/21/21
f 20/20/20 18/18/18 17/17/17
f 18/18/18 22/22/22 23/23/23
f 18/18/18 20/20/20 22/22/22
f 22/22/22 20/20/20 24/24/24
f 25/25/25 26/26/26 27/27/27
f 26/26/26 25/25/25 28/28/28
f 29/29/29 30/30/30 31/31/31
f 30/30/30 29/29/29 32/32/32
f 33/33/33 34/34/34 35/35/35
f 34/34/34 33/33/33 36/36/36
f 36/36/36 37/37/37 34/34/34
f 37/37/37 36/36/36 38/38/38
f 39/39/39 40/40/40 41/41/41
f 40/40/40 39/39/39 42/42/42
f 43/43/43 44/44/44 45/45/45
f 46/46/46 44/44/44 43/43/43
f 47/47/47 46/46/46 43/43/43
f 48/48/48 46/46/46 47/47/47
f 49/49/49 50/50/50 51/51/51
f 50/50/50 49/49/49 52/52/52
f 53/53/53 52/52/52 49/49/49
f 52/52/52 53/53/53 54/54/54
f 55/55/55 56/56/56 57/57/57
f 58/58/58 55/55/55 57/57/57
f 59/59/59 55/55/55 58/58/58
f 60/60/60 59/59/59 58/58/58
f 61/61/61 62/62/62 63/63/63
f 64/64/64 63/63/63 62/62/62
f 65/65/65 66/66/66 67/67/67
f 65/65/65 67/67/67 68/68/68
f 68/68/68 67/67/67 69/69/69
f 68/68/68 69/69/69 70/70/70
f 71/71/71 72/72/72 73/73/73
f 71/71/71 73/73/73 74/74/74
f 74/74/74 73/73/73 75/75/75
f 74/74/74 75/75/75 76/76/76
f 77/77/77 78/78/78 79/79/79
f 78/78/78 80/80/80 79/79/79
f 81/81/81 78/78/78 77/77/77
f 82/82/82 81/81/81 77/77/77
f 83/83/83 84/84/84 85/85/85
f 83/83/83 86/86/86 84/84/84
f 87/87/87 86/86/86 83/83/83
f 87/87/87 88/88/88 86/86/86
f 89/89/89 90/90/90 91/91/91
f 89/89/89 91/91/91 92/92/92
f 93/93/93 94/94/94 95/95/95
f 93/93/93 96/96/96 94/94/94
f 97/97/97 96/96/96 93/93/93
f 97/97/97 98/98/98 96/96/96
f 99/99/99 100/100/100 101/101/101
f 100/100/100 102/102/102 101/101/101
f 101/101/101 102/102/102 103/103/103
f 102/102/102 104/104/104 103/103/103
f 105/105/105 106/106/106 107/107/107
f 106/106/106 105/105/105 108/108/108
f 109/109/109 110/110/110 111/111/111
f 109/109/109 112/112/112 110/110/110
f 113/113/113 112/112/112 109/109/109
f 113/113/113 114/114/114 112/112/112
f 115/115/115 116/116/116 117/117/117
f 115/115/115 118/118/118 116/116/116
f 119/119/119 118/118/118 115/115/115
f 119/119/119 120/120/120 118/118/118
usemtl Meshpart3Mtl
f 121/121/121 122/122/122 123/123/123
f 122/122/122 124/124/124 123/123/123
f 123/123/123 125/125/125 121/121/121
f 125/125/125 123/123/123 126/126/126
f 127/127/127 128/128/128 129/129/129
f 128/128/128 127/127/127 130/130/130
f 131/131/131 127/127/127 129/129/129
f 127/127/127 131/131/131 132/132/132
f 133/133/133 134/134/134 135/135/135
f 134/134/134 133/133/133 136/136/136
f 137/137/137 133/133/133 135/135/135
f 133/133/133 137/137/137 138/138/138
f 139/139/139 140/140/140 141/141/141
f 140/140/140 142/142/142 141/141/141
f 141/141/141 143/143/143 139/139/139
f 143/143/143 141/141/141 144/144/144
f 145/145/145 146/146/146 147/147/147
f 147/147/147 148/148/148 145/145/145
f 146/146/146 145/145/145 149/149/149
f 145/145/145 148/148/148 150/150/150
f 151/151/151 152/152/152 153/153/153
f 152/152/152 151/151/151 154/154/154
f 151/151/151 155/155/155 154/154/154
f 155/155/155 151/151/151 156/156/156
f 157/157/157 158/158/158 159/159/159
f 158/158/158 160/160/160 159/159/159
f 159/159/159 161/161/161 157/157/157
f 161/161/161 159/159/159 162/162/162
f 163/163/163 164/164/164 165/165/165
f 166/166/166 164/164/164 163/163/163
f 163/163/163 167/167/167 166/166/166
f 167/167/167 163/163/163 168/168/168
f 169/169/169 170/170/170 171/171/171
f 170/170/170 169/169/169 172/172/172
f 173/173/173 169/169/169 171/171/171
f 169/169/169 173/173/173 174/174/174
f 175/175/175 176/176/176 177/177/177
f 176/176/176 178/178/178 177/177/177
f 177/177/177 179/179/179 175/175/175
f 179/179/179 177/177/177 180/180/180
f 181/181/181 182/182/182 183/183/183
f 182/182/182 181/181/181 184/184/184
f 185/185/185 181/181/181 183/183/183
f 181/181/181 185/185/185 186/186/186
f 187/187/187 188/188/188 189/189/189
f 188/188/188 190/190/190 189/189/189
f 189/189/189 191/191/191 187/187/187
f 191/191/191 189/189/189 192/192/192
f 193/193/193 194/194/194 195/195/195
f 194/194/194 193/193/193 196/196/196
f 197/197/197 195/195/195 194/194/194
f 195/195/195 197/197/197 198/198/198
f 199/199/199 200/200/200 201/201/201
f 201/201/201 200/200/200 202/202/202
f 203/203/203 199/199/199 201/201/201
f 204/204/204 199/199/199 203/203/203
f 205/205/205 206/206/206 207/207/207
f 206/206/206 205/205/205 208/208/208
f 209/209/209 207/207/207 206/206/206
f 207/207/207 209/209/209 210/210/210
f 211/211/211 212/212/212 213/213/213
f 212/212/212 211/211/211 214/214/214
f 215/215/215 213/213/213 212/212/212
f 213/213/213 215/215/215 216/216/216
f 217/217/217 218/218/218 219/219/219
f 217/217/217 219/219/219 220/220/220
f 221/221/221 218/218/218 217/217/217
f 221/221/221 222/222/222 218/218/218
f 223/223/223 224/224/224 225/225/225
f 226/226/226 225/225/225 227/227/227
f 223/223/223 225/225/225 226/226/226
f 226/226/226 227/227/227 228/228/228
f 229/229/229 230/230/230 231/231/231
f 230/230/230 229/229/229 232/232/232
f 233/233/233 234/234/234 235/235/235
f 233/233/233 235/235/235 236/236/236
f 237/237/237 238/238/238 239/239/239
f 238/238/238 237/237/237 240/240/240
f 241/241/241 242/242/242 243/243/243
f 242/242/242 241/241/241 244/244/244
f 245/245/245 246/246/246 247/247/247
f 245/245/245 247/247/247 248/248/248
f 249/249/249 250/250/250 251/251/251
f 250/250/250 249/249/249 252/252/252
f 251/251/251 250/250/250 253/253/253
f 253/253/253 250/250/250 254/254/254
f 255/255/255 256/256/256 257/257/257
f 256/256/256 255/255/255 258/258/258
f 259/259/259 260/260/260 261/261/261
f 260/260/260 259/259/259 262/262/262
f 263/263/263 264/264/264 265/265/265
f 264/264/264 263/263/263 266/266/266
f 267/267/267 268/268/268 269/269/269
f 268/268/268 267/267/267 270/270/270
f 271/271/271 272/272/272 273/273/273
f 272/272/272 271/271/271 274/274/274
f 275/275/275 276/276/276 277/277/277
f 277/277/277 278/278/278 275/275/275
f 279/279/279 275/275/275 278/278/278
f 275/275/275 279/279/279 280/280/280
f 281/281/281 282/282/282 283/283/283
f 282/282/282 281/281/281 284/284/284
f 285/285/285 281/281/281 283/283/283
f 286/286/286 281/281/281 285/285/285
f 287/287/287 288/288/288 289/289/289
f 289/289/289 290/290/290 287/287/287
f 291/291/291 287/287/287 290/290/290
f 287/287/287 291/291/291 292/292/292
f 293/293/293 294/294/294 295/295/295
f 294/294/294 293/293/293 296/296/296
f 297/297/297 293/293/293 295/295/295
f 298/298/298 293/293/293 297/297/297
f 299/299/299 300/300/300 301/301/301
f 301/301/301 300/300/300 302/302/302
f 300/300/300 303/303/303 302/302/302
f 303/303/303 300/300/300 304/304/304
f 305/305/305 306/306/306 307/307/307
f 307/307/307 308/308/308 305/305/305
f 309/309/309 305/305/305 308/308/308
f 305/305/305 309/309/309 310/310/310
f 311/311/311 312/312/312 313/313/313
f 312/312/312 311/311/311 314/314/314
f 315/315/315 311/311/311 313/313/313
f 316/316/316 311/311/311 315/315/315
f 317/317/317 318/318/318 319/319/319
f 318/318/318 317/317/317 320/320/320
f 321/321/321 318/318/318 320/320/320
f 322/322/322 318/318/318 321/321/321
f 323/323/323 324/324/324 325/325/325
f 324/324/324 323/323/323 326/326/326
f 327/327/327 326/326/326 323/323/323
f 323/323/323 328/328/328 327/327/327
f 329/329/329 330/330/330 331/331/331
f 330/330/330 329/329/329 332/332/332
f 333/333/333 329/329/329 331/331/331
f 334/334/334 329/329/329 333/333/333
f 335/335/335 336/336/336 337/337/337
f 336/336/336 335/335/335 338/338/338
f 339/339/339 338/338/338 335/335/335
f 335/335/335 340/340/340 339/339/339
f 341/341/341 342/342/342 343/343/343
f 342/342/342 341/341/341 344/344/344
f 345/345/345 341/341/341 343/343/343
f 346/346/346 341/341/341 345/345/345
f 347/347/347 348/348/348 349/349/349
f 347/347/347 349/349/349 350/350/350
f 350/350/350 349/349/349 351/351/351
f 350/350/350 351/351/351 352/352/352
f 353/353/353 354/354/354 355/355/355
f 353/353/353 355/355/355 356/356/356
f 356/356/356 355/355/355 357/357/357
f 356/356/356 357/357/357 358/358/358
f 359/359/359 360/360/360 361/361/361
f 359/359/359 361/361/361 362/362/362
f 362/362/362 361/361/361 363/363/363
f 362/362/362 363/363/363 364/364/364
f 365/365/365 366/366/366 367/367/367
f 365/365/365 367/367/367 368/368/368
f 368/368/368 367/367/367 369/369/369
f 368/368/368 369/369/369 370/370/370
f 371/371/371 372/372/372 373/373/373
f 371/371/371 373/373/373 374/374/374
f 374/374/374 373/373/373 375/375/375
f 374/374/374 375/375/375 376/376/376
f 377/377/377 378/378/378 379/379/379
f 378/378/378 377/377/377 380/380/380
f 381/381/381 379/379/379 378/378/378
f 381/381/381 382/382/382 379/379/379
f 383/383/383 384/384/384 385/385/385
f 384/384/384 386/386/386 385/385/385
f 387/387/387 384/384/384 383/383/383
f 388/388/388 387/387/387 383/383/383
f 389/389/389 390/390/390 391/391/391
f 390/390/390 392/392/392 391/391/391
f 393/393/393 390/390/390 389/389/389
f 394/394/394 393/393/393 389/389/389
f 395/395/395 396/396/396 397/397/397
f 396/396/396 398/398/398 397/397/397
f 399/399/399 396/396/396 395/395/395
f 400/400/400 399/399/399 395/395/395
f 401/401/401 402/402/402 403/403/403
f 402/402/402 404/404/404 403/403/403
f 405/405/405 402/402/402 401/401/401
f 406/406/406 405/405/405 401/401/401
f 407/407/407 408/408/408 409/409/409
f 410/410/410 409/409/409 408/408/408
f 409/409/409 410/410/410 411/411/411
f 412/412/412 411/411/411 410/410/410
f 413/413/413 414/414/414 415/415/415
f 413/413/413 415/415/415 416/416/416
f 417/417/417 418/418/418 419/419/419
f 417/417/417 419/419/419 420/420/420
f 421/421/421 422/422/422 423/423/423
f 421/421/421 423/423/423 424/424/424
f 425/425/425 426/426/426 427/427/427
f 425/425/425 427/427/427 428/428/428
f 429/429/429 430/430/430 431/431/431
f 429/429/429 431/431/431 432/432/432
f 433/433/433 434/434/434 435/435/435
f 434/434/434 433/433/433 436/436/436
f 437/437/437 433/433/433 435/435/435
f 433/433/433 437/437/437 438/438/438
f 439/439/439 440/440/440 441/441/441
f 442/442/442 441/441/441 440/440/440
f 443/443/443 444/444/444 445/445/445
f 446/446/446 445/445/445 444/444/444
f 447/447/447 448/448/448 449/449/449
f 450/450/450 449/449/449 448/448/448
f 451/451/451 452/452/452 453/453/453
f 454/454/454 453/453/453 452/452/452
f 455/455/455 456/456/456 457/457/457
f 458/458/458 457/457/457 456/456/456
f 459/459/459 460/460/460 461/461/461
f 461/461/461 460/460/460 462/462/462
f 463/463/463 464/464/464 465/465/465
f 465/465/465 464/464/464 466/466/466
f 467/467/467 468/468/468 469/469/469
f 468/468/468 467/467/467 470/470/470
f 471/471/471 472/472/472 473/473/473
f 473/473/473 472/472/472 474/474/474
f 475/475/475 476/476/476 477/477/477
f 477/477/477 476/476/476 478/478/478
f 479/479/479 480/480/480 481/481/481
f 481/481/481 480/480/480 482/482/482
f 483/483/483 484/484/484 485/485/485
f 485/485/485 484/484/484 486/486/486
f 487/487/487 488/488/488 489/489/489
f 489/489/489 488/488/488 490/490/490
f 491/491/491 492/492/492 493/493/493
f 492/492/492 491/491/491 494/494/494
f 495/495/495 494/494/494 491/491/491
f 494/494/494 495/495/495 496/496/496
f 497/497/497 496/496/496 495/495/495
f 496/496/496 497/497/497 498/498/498
f 499/499/499 498/498/498 497/497/497
f 499/499/499 497/497/497 500/500/500
f 501/501/501 502/502/502 503/503/503
f 502/502/502 501/501/501 504/504/504
f 505/505/505 506/506/506 507/507/507
f 507/507/507 506/506/506 508/508/508
f 509/509/509 510/510/510 511/511/511
f 511/511/511 510/510/510 512/512/512
f 513/513/513 514/514/514 515/515/515
f 515/515/515 514/514/514 516/516/516
f 517/517/517 518/518/518 519/519/519
f 519/519/519 518/518/518 520/520/520
f 521/521/521 522/522/522 523/523/523
f 523/523/523 522/522/522 524/524/524
f 525/525/525 526/526/526 527/527/527
f 527/527/527 526/526/526 528/528/528
f 529/529/529 530/530/530 531/531/531
f 531/531/531 532/532/532 529/529/529
f 533/533/533 534/534/534 535/535/535
f 535/535/535 536/536/536 533/533/533
f 537/537/537 538/538/538 539/539/539
f 539/539/539 540/540/540 537/537/537
f 541/541/541 542/542/542 543/543/543
f 543/543/543 544/544/544 541/541/541
f 545/545/545 546/546/546 547/547/547
f 547/547/547 548/548/548 545/545/545
f 549/549/549 550/550/550 551/551/551
f 551/551/551 552/552/552 549/549/549
f 553/553/553 554/554/554 555/555/555
f 556/556/556 554/554/554 553/553/553
f 554/554/554 556/556/556 557/557/557
f 557/557/557 556/556/556 558/558/558
f 559/559/559 560/560/560 561/561/561
f 559/559/559 561/561/561 562/562/562
f 563/563/563 562/562/562 561/561/561
f 563/563/563 564/564/564 562/562/562
f 565/565/565 564/564/564 563/563/563
f 565/565/565 566/566/566 564/564/564
f 565/565/565 567/567/567 566/566/566
f 567/567/567 565/565/565 568/568/568
f 569/569/569 570/570/570 571/571/571
f 569/569/569 572/572/572 570/570/570
f 573/573/573 574/574/574 575/575/575
f 575/575/575 576/576/576 573/573/573
f 576/576/576 575/575/575 577/577/577
f 577/577/577 575/575/575 578/578/578
f 579/579/579 580/580/580 581/581/581
f 581/581/581 580/580/580 582/582/582
f 583/583/583 584/584/584 585/585/585
f 583/583/583 585/585/585 586/586/586
f 587/587/587 588/588/588 589/589/589
f 587/587/587 589/589/589 590/590/590
f 591/591/591 592/592/592 593/593/593
f 591/591/591 593/593/593 594/594/594
f 595/595/595 596/596/596 597/597/597
f 597/597/597 596/596/596 598/598/598
f 599/599/599 600/600/600 601/601/601
f 599/599/599 601/601/601 602/602/602
f 603/603/603 604/604/604 605/605/605
f 603/603/603 605/605/605 606/606/606
f 607/607/607 608/608/608 609/609/609
f 607/607/607 609/609/609 610/610/610
f 611/611/611 612/612/612 613/613/613
f 612/612/612 611/611/611 614/614/614
f 613/613/613 615/615/615 611/611/611
f 614/614/614 616/616/616 612/612/612
f 617/617/617 618/618/618 619/619/619
f 619/619/619 618/618/618 620/620/620
f 621/621/621 622/622/622 623/623/623
f 623/623/623 622/622/622 624/624/624
f 625/625/625 626/626/626 627/627/627
f 626/626/626 625/625/625 628/628/628
f 629/629/629 630/630/630 631/631/631
f 631/631/631 630/630/630 632/632/632
f 633/633/633 634/634/634 635/635/635
f 634/634/634 633/633/633 636/636/636
f 637/637/637 638/638/638 639/639/639
f 639/639/639 638/638/638 640/640/640
f 641/641/641 642/642/642 643/643/643
f 643/643/643 642/642/642 644/644/644
f 645/645/645 646/646/646 647/647/647
f 646/646/646 645/645/645 648/648/648
f 649/649/649 650/650/650 651/651/651
f 650/650/650 649/649/649 652/652/652
f 653/653/653 654/654/654 655/655/655
f 654/654/654 653/653/653 656/656/656
f 657/657/657 658/658/658 659/659/659
f 658/658/658 657/657/657 660/660/660
f 661/661/661 662/662/662 663/663/663
f 662/662/662 661/661/661 664/664/664
f 665/665/665 666/666/666 667/667/667
f 666/666/666 665/665/665 668/668/668
f 669/669/669 670/670/670 671/671/671
f 670/670/670 669/669/669 672/672/672
f 672/672/672 669/669/669 673/673/673
f 673/673/673 669/669/669 674/674/674
f 675/675/675 676/676/676 677/677/677
f 676/676/676 675/675/675 678/678/678
f 678/678/678 679/679/679 676/676/676
f 679/679/679 678/678/678 680/680/680
f 680/680/680 681/681/681 679/679/679
f 681/681/681 680/680/680 682/682/682
f 683/683/683 681/681/681 682/682/682
f 681/681/681 683/683/683 684/684/684
