# Deagle Chamber (generated) | barrel -X up +Y
g chamber
v 0.166667 0.337729 -0.000000
v 0.166667 0.333604 -0.020729
v 0.166667 0.321862 -0.038300
v 0.166667 0.304292 -0.050042
v 0.166667 0.283562 -0.054167
v 0.166667 0.262833 -0.050042
v 0.166667 0.245262 -0.038300
v 0.166667 0.233521 -0.020729
v 0.166667 0.229396 -0.000000
v 0.166667 0.233521 0.020729
v 0.166667 0.245262 0.038300
v 0.166667 0.262833 0.050042
v 0.166667 0.283562 0.054167
v 0.166667 0.304292 0.050042
v 0.166667 0.321862 0.038300
v 0.166667 0.333604 0.020729
v -0.041667 0.337729 -0.000000
v -0.041667 0.333604 -0.020729
v -0.041667 0.321862 -0.038300
v -0.041667 0.304292 -0.050042
v -0.041667 0.283562 -0.054167
v -0.041667 0.262833 -0.050042
v -0.041667 0.245262 -0.038300
v -0.041667 0.233521 -0.020729
v -0.041667 0.229396 -0.000000
v -0.041667 0.233521 0.020729
v -0.041667 0.245262 0.038300
v -0.041667 0.262833 0.050042
v -0.041667 0.283562 0.054167
v -0.041667 0.304292 0.050042
v -0.041667 0.321862 0.038300
v -0.041667 0.333604 0.020729
v 0.166667 0.283562 -0.000000
v -0.041667 0.283562 -0.000000
vn 0.1704 -0.9832 0.0652
vn 0.1704 -0.8834 0.4365
vn 0.1704 -0.6491 0.7413
vn 0.1704 -0.3160 0.9333
vn 0.1704 0.0652 0.9832
vn 0.1704 0.4365 0.8834
vn 0.1704 0.7413 0.6491
vn 0.1704 0.9333 0.3160
vn 0.1704 0.9832 -0.0652
vn 0.1704 0.8834 -0.4365
vn 0.1704 0.6491 -0.7413
vn 0.1704 0.3160 -0.9333
vn 0.1704 -0.0652 -0.9832
vn 0.1704 -0.4365 -0.8834
vn 0.1704 -0.7413 -0.6491
vn 0.1704 -0.9333 -0.3160
vn -0.1704 -0.9832 -0.0652
vn -0.1704 -0.9333 0.3160
vn -0.1704 -0.7413 0.6491
vn -0.1704 -0.4365 0.8834
vn -0.1704 -0.0652 0.9832
vn -0.1704 0.3160 0.9333
vn -0.1704 0.6491 0.7413
vn -0.1704 0.8834 0.4365
vn -0.1704 0.9832 0.0652
vn -0.1704 0.9333 -0.3160
vn -0.1704 0.7413 -0.6491
vn -0.1704 0.4365 -0.8834
vn -0.1704 0.0652 -0.9832
vn -0.1704 -0.3160 -0.9333
vn -0.1704 -0.6491 -0.7413
vn -0.1704 -0.8834 -0.4365
vn 1.0000 0.0000 -0.0000
vn -1.0000 0.0000 -0.0000
f 1//1 17//17 18//18
f 1//1 18//18 2//2
f 33//33 2//2 1//1
f 34//34 17//17 18//18
f 2//2 18//18 19//19
f 2//2 19//19 3//3
f 33//33 3//3 2//2
f 34//34 18//18 19//19
f 3//3 19//19 20//20
f 3//3 20//20 4//4
f 33//33 4//4 3//3
f 34//34 19//19 20//20
f 4//4 20//20 21//21
f 4//4 21//21 5//5
f 33//33 5//5 4//4
f 34//34 20//20 21//21
f 5//5 21//21 22//22
f 5//5 22//22 6//6
f 33//33 6//6 5//5
f 34//34 21//21 22//22
f 6//6 22//22 23//23
f 6//6 23//23 7//7
f 33//33 7//7 6//6
f 34//34 22//22 23//23
f 7//7 23//23 24//24
f 7//7 24//24 8//8
f 33//33 8//8 7//7
f 34//34 23//23 24//24
f 8//8 24//24 25//25
f 8//8 25//25 9//9
f 33//33 9//9 8//8
f 34//34 24//24 25//25
f 9//9 25//25 26//26
f 9//9 26//26 10//10
f 33//33 10//10 9//9
f 34//34 25//25 26//26
f 10//10 26//26 27//27
f 10//10 27//27 11//11
f 33//33 11//11 10//10
f 34//34 26//26 27//27
f 11//11 27//27 28//28
f 11//11 28//28 12//12
f 33//33 12//12 11//11
f 34//34 27//27 28//28
f 12//12 28//28 29//29
f 12//12 29//29 13//13
f 33//33 13//13 12//12
f 34//34 28//28 29//29
f 13//13 29//29 30//30
f 13//13 30//30 14//14
f 33//33 14//14 13//13
f 34//34 29//29 30//30
f 14//14 30//30 31//31
f 14//14 31//31 15//15
f 33//33 15//15 14//14
f 34//34 30//30 31//31
f 15//15 31//31 32//32
f 15//15 32//32 16//16
f 33//33 16//16 15//15
f 34//34 31//31 32//32
f 16//16 32//32 17//17
f 16//16 17//17 1//1
f 33//33 1//1 16//16
f 34//34 32//32 17//17
# bbox cage (invisible) - forces identical size/center on import
v -0.833333 -0.577875 -0.161462
v -0.832083 -0.577875 -0.161462
v -0.833333 -0.576625 -0.161462
v 0.964490 0.481333 0.161462
v 0.963240 0.481333 0.161462
v 0.964490 0.480083 0.161462
vn 0 1 0
vn 0 1 0
vn 0 1 0
vn 0 1 0
vn 0 1 0
vn 0 1 0
f 35//35 36//36 37//37
f 38//38 39//39 40//40
